<svg xmlns="http://www.w3.org/2000/svg" viewBox="0 0 488.34 488.34"><defs><style>.cls-1{fill:none;}.cls-2{fill:#7a2235;}.cls-3{fill:#fff;}</style></defs><g id="Capa_2" data-name="Capa 2"><g id="Capa_1-2" data-name="Capa 1"><rect class="cls-1" width="488.34" height="488.34"/><path class="cls-2" d="M285.81,357c-5.78-9.48-15.15-12.47-23.9-7.11-5.45,3.34-10.74,4.37-16.88,2.27a13.17,13.17,0,0,0-7.28.09c-6.49,1.74-10.76,6.21-13.07,12.41-3.33,8.9-2.42,17.59,1.73,26.07,6.52,13.31,20.15,21.12,34.06,19.41,17.24-2.12,30.11-17.28,30.15-35.52A33,33,0,0,0,285.81,357Zm-45.23,7.35a23.46,23.46,0,0,0-5.26,14.16A33.22,33.22,0,0,0,239,393.77c.14.28.28.56.4.85,0,0-.08.13-.12.2-6.78-6.43-12.07-21-6.35-30.81,1.22-2.09,2.93-3.69,5.45-3.82,1-.05,2.66.33,2.92,1A3.88,3.88,0,0,1,240.58,364.33Zm15.53-5.51-8.75-.55,0-.46h8.79C256.16,358.15,256.14,358.48,256.11,358.82Z"/><path class="cls-2" d="M219.61,278.67c6.07.16,11-2.19,15.69-4.9,3.48-2,6.76-4.29,10.24-6.27,9-5.12,18.78-3.54,25.73,4.09a9.64,9.64,0,0,1,3,6.2c-9.56-5.74-22.71-3.22-32.35,2.62,3.49-.87,7-1.73,10.48-2.61a27.94,27.94,0,0,1,17.22.95,9.39,9.39,0,0,1,3.08,1.8,2.26,2.26,0,0,1,.31,2.17c-7.75,9.91-20.33,17.13-34.22,11.86-7.55-2.87-14-7.29-18.41-14.34A15.64,15.64,0,0,1,219.61,278.67Z"/><path class="cls-2" d="M251.59,342a81,81,0,0,1,6.31-31.3,94.25,94.25,0,0,1,13.16-22.53,171.16,171.16,0,0,1,11.7-12.7c2-2,3.65-1.71,5.38.57,2.46,3.25,2.19,5.56-1.46,7.87-11.94,7.55-19.69,18.38-24.76,31.3a79.69,79.69,0,0,0-5.13,28.93c0,2.26.33,4.67-2.19,6.16-2,1.17-2.75,1-3-1.34S251.59,344.35,251.59,342Z"/><path class="cls-3" d="M280.17,119.89c2.58,1.84,3.54,4.51,4.25,7.5,2.59,10.91,5,21.84,4.79,33.51l-17.38-15.19c-2.91,2.29-5.52,4.4-8.19,6.42-2.4,1.83-3.44,1.77-5.69-.22-6.06-5.36-12.1-10.74-18.39-16.34-.91,1.05-1.84,2-2.63,3.07-4.43,5.9-8.88,11.79-13.21,17.76-1.26,1.75-2.41,2.18-4.06.67a8.64,8.64,0,0,0-1.17-.84c-3.14-1.94-3-1.84-5.6.82-3.75,3.89-7.66,7.63-11.5,11.43l-.67-.28c.32-3.13.37-6.32,1-9.39,1.37-6.74,2.88-13.47,4.66-20.11a8.58,8.58,0,0,1,3.33-4.4,29.36,29.36,0,0,0,7.64-8.19c1.87-2.76,4-5.36,6-8l.82.06.88,4.6,1.54-.68,1.07,5.41c5.48-9.53,9.72-19.16,16.92-27.91a18.88,18.88,0,0,1,.66,3.3,38.71,38.71,0,0,1-.4,5.27c-.45,3-.51,5.59,2.88,7.25,1,.47,1.41,2.55,1.62,4a45.1,45.1,0,0,1,.07,6.16l7-6.56,11.9,10.46c.44-2,.69-3.69,1.23-5.31s.49-3.69,3.19-2.93c-1.1-3-3.81-5.21-3.8-9.14l10.89,7.29C279.9,119.49,280,119.69,280.17,119.89Zm-69,28.34-3.33-2.13-.25.32,4.68,4.89c1.76-1.56-1.25-1.9-1.11-3.07,1.5.12,3,.28,4.51.29.16,0,.53-1,.43-1.46a10.91,10.91,0,0,0-.93-2.18l-.53,1.29Zm23.19-24.66c-3.25.41-3.5,2.23-.89,6.83l4.32-3.76a5.34,5.34,0,0,1-1.39,2.17,10.45,10.45,0,0,0-1.92,2.53,2.14,2.14,0,0,0,.55,2c.42.29,1.37-.21,2.09-.36l-.13-.62h-1.39l0-.7h5.64l-.14-3.06h-2.21c.81-1,1.49-1.85,2.08-2.71a7.81,7.81,0,0,0,.61-1.38c-.57-.12-1.2-.44-1.7-.3a7.2,7.2,0,0,0-1.78,1.11l-4.74,3.15c-1-1.76-1.48-3.07.67-3.89.21-.08.21-.72.3-1.1l2.92-1.54-1.47-2.52C234.71,121,232.81,121.76,234.4,123.57ZM249.57,134c.34-1.07,1.29-2.73.92-3.12a48.69,48.69,0,0,0-5.46-4.38l-.53.45c1.37,1.65,2.74,3.31,4.16,5l-.46,2.11,1.42-.12,1,1.68-3.17.39,4.35,5.24,4.07-2.46c-3.4,6.11,2,7.33,4.49,10.49,2.59-1.8,5-3.57,7.53-5.2,1.3-.83,2.9-2.16,4.12-1.93,1.82.34,3.5,1.75,5.1,2.89,1.2.85,2,2.46,3.31,2.89a4.17,4.17,0,0,1,3,2.67,2,2,0,0,0,1.35.85c.25.05.92-.72.89-.77-.73-1.1-1.53-2.16-2.32-3.22l-.2.11-1.86-2.8c.9-.36,2.49-.58,2.65-1.17a18.93,18.93,0,0,0,.13-4.72l-2.14,1.24c2-1.41,2.08-3.13,1.11-5.18l-1.17.87.46-5-2.6,1.11a10.71,10.71,0,0,1-.84-1.15,16.14,16.14,0,0,1-.71-1.58c-.22.5-.45,1-.82,1.8-1.49-2.33-2.81-4.37-4-6.27-1.12,2.95-1.64,5.76,1.88,7.34l-2.89-.52c.84,1.76,1.22,3.28,2.15,4.28,1.31,1.43.91,2.09-.17,2.67l-10.74-5.05.52,2.91-.35.13-2.53-3.18,6.06-.69a22.25,22.25,0,0,0-1.85-1.92c-.47-.4-1.24-.94-1.65-.79-1.61.58-1.54,0-1.69-1.4-.11-1.06-1.35-2.06-2.23-2.94-.1-.1-1.13.73-1.74,1.13l-.79-1.21-1.56,1.82-.37-.34,1.95-3.81-.74-.57c-1.17,1.41-2.35,2.8-3.48,4.24-1.89,2.4.23,3.47,1.6,4.82.77.75,1.44,1.61,2.16,2.42-2,0-2.5-3.06-4.94-1.75l1.07,1.85ZM231.8,138.6c.08,0,.19,0,.23,0s.06-.15.06-.23c-.06-1.71-.19-3.42-.17-5.13s-1.1-2.4-2.75-1.82a13.94,13.94,0,0,1-3,.43l.46,1.62-5.28.25,1.21,4.42c-2.8-1.52-2.8-1.52-4.66.78l2.69,1.48-.55.14.61,3.09-1.16-.1a9.12,9.12,0,0,1-.27,2.75c-.94,2-.24,3.28.88,4,.74-1.14,1.18-2.58,2.14-3.12,1.32-.75,3-.81,4.56-1.2.2,0,.38-.3.52-.49,1.33-1.88,2.64-3.77,4.15-5.93-2.52-1.11-2.41-3-1.13-5.28Zm-26,14.47.42.32,1.71-1.28c-1.24,2.15.9,2.06,1.69,2.78,1.19-3.18.86-4.3-1.7-5.4Zm75.28-23.2.6-.41-1.6-3.94-2,1.72L275,124.79l-.54.79Z"/><path class="cls-3" d="M242.61,148.77c.41,2.37.94,4.72,1.21,7.11.24,2.11.75,3.83,2.89,4.85,1.75.85.9,2.45.74,3.84-.1.85-.22,2.26.21,2.51,5.7,3.3,8.16,9.32,12.06,14.12.26.31.5.63.77.93a3.93,3.93,0,0,0,.67.39c-.15-3.53-.3-6.88-.47-10.65l7.88,2.38.51-.91L262,165.72l8.31-7.5L275.83,170l2.12-2.38c3.29,2.44,6.66,4.85,9.9,7.42a2.91,2.91,0,0,1,.73,2.33c-.77,5.3-1.43,10.64-2.62,15.85-1.22,5.37-3,10.61-4.55,15.9a19.58,19.58,0,0,1-1.23,2.62,17.68,17.68,0,0,1-1.77-1.4c-4.12-4.26-8.26-8.49-12.28-12.84-1.32-1.43-2.59-.79-3.64-.12-5.85,3.74-5.48,2.79-10.08-2.26-3.54-3.89-7.14-7.72-11-11.88-2.71,4.06-5.11,7.72-7.56,11.34s-4.82,7.19-7.39,10.67A3,3,0,0,1,224,206a24.51,24.51,0,0,1-4.78-1.56c-1.78-.74-3-.22-4.14,1.22-3.45,4.29-7,8.51-10.89,13.21-.76-4.42-1.56-8.45-2.12-12.52-.75-5.4-1.25-10.83-1.95-16.23a6.17,6.17,0,0,1,1.89-5.58c4.2-4.3,8.2-8.79,12.29-13.2a2.46,2.46,0,0,1,1.6-.84c-.86,2.5-1.73,5-2.67,7.73l3.74-.36c-.52,2.43-1,4.58-1.45,6.73l.49.35a245,245,0,0,0,25.91-36.26Zm-11.92,42c3-.88,3.63-1.91,2.52-4.49l1.32.54c1.56-2.09,2.95-4,4.44-6l-2.77-2,5.81-.94c1,1.33,1.83,3.22,2.52,3.17,2.17-.15,2.07,1.85,3.1,2.68s1.31,2.14,2.18,3c1.14,1.14,2.65,1.89,3.74,3.06,1.79,1.91,3.37,4,5.11,6.13a8.2,8.2,0,0,0,2-1.33c1.87-2.3,4.62-2.54,6.67-.57,1.83,1.77,3.7,3.5,5.65,5.15.36.31,1.13.14,1.7.2l4.22,5.67a55.92,55.92,0,0,0,2.49-5.65c.63-2,.49-4.25,1.4-6s-.22-3.39.8-5.12,1.2-3.94,1.51-6,.28-3.93.39-5.73l-7.65-6a4.78,4.78,0,0,1-.61,1c-.6.57-1.27,1.06-1.91,1.59l-1-1.93c-.64-1.18-1.29-2.35-1.61-2.93h-3.79c1.92,2.65,3.87,5.42,5.94,8.09.35.45,1.23.48,1.87.7l0,.45-8.79-.62.11-.46-3.3.89v6.55l1.35-.54c-.73,1.5-1.4,2.89-2,4.19l-2,.57-9.65-12.65-1.64,1c.29-5.27-4.81-6.07-7.15-9.35a32.68,32.68,0,0,0,1-3.56c.09-.46-.37-1-.65-1.55a17.12,17.12,0,0,1-1.05-1.66c-.8-1.88-1.53-3.79-2.26-5.62-2.33,3.88-4.72,7.78-7,11.73-.24.41,0,1.13.08,1.71l-.36-.47-5.68,6.63,2.3,3.35,3.95.58-4,2.78.94-2.14-4.28.2.19-2.4L224,179l2.18,1.16-.25.47-2.58-.33-4.09,5.59,1.58-.3,1.43,4.4-2.3.2.72-2.34-.51-.25-1.43,1.31-2-1.06-2.25,2.72c2.18,2,4.09,7.52,3.23,9l3.19,1.14c1.18-1.31,2.19-1.19,3.15,1l.27-3.5h3.05l-.78-1.57c2.95,0,2.84-2.66,4.14-3.82l-2-1.5h2.85v-.48Zm-23.08,16.79c1.44.48,3.13-1.55,2.91-3.54a47.81,47.81,0,0,1,0-5.22H211l.6,5.36,2-2.28c-1.28-2-2.92-4.22.83-5.51.19-.07.08-1.07.07-1.63a6.37,6.37,0,0,0-.35-1.18l-.86,2.53-1.07-1.26-1.2,1.84c-1,.13-2.1,0-2.35.37-1.11,1.8-2.35,1.92-4.29.89.4,1.08.79,2.17,1.15,3.15l-1,.38c1.48,2.81,2.31,5.54,1.63,8.66l.85,0Zm1.9-24.19c1.91,2.61-.73,1.85-1.89,2.44.47.39.75.61,1,.84l.94.88c-2.55-.26-3.4.16-3.78,1.68l2.44-.91-.14,1.71a22.82,22.82,0,0,0,2.89-2.63,17.21,17.21,0,0,0,1.57-3.12Z"/><path class="cls-3" d="M171.52,202.25c-2.19,0-4.39.13-6.57,0-3.94-.28-4.47-.7-5-4.62s-.82-7.79-1.18-11.7a3.68,3.68,0,0,1,3.41-4.4c3-.46,6-.77,9.06-1,5.91-.44,11.83-.76,17.74-1.16,4.88-.33,6.7,1.08,7.28,6q1.54,13.26,2.89,26.52c.43,4.28-1,6.26-5.1,7.36-8.36,2.22-16.73,4.35-25.11,6.49a4,4,0,0,1-5.26-3.1c-.83-4.07-1.46-8.19-2.1-12.3-.33-2.13.73-3.42,2.73-4.21,2.49-1,4.91-2.16,7.36-3.25Zm20.21,1.33,2.27-1.85-.07-.62-3.16-.18-.3-1.2,2.78-.33-2.18-1.81c2.1-.8,2.27-2,1.09-3.26,0-2.43.66-4.69-.17-6-.94-1.46-3.22-2.06-5-3.07,1.14-1.94,2.49,1.23,4.39.22-.76-1-1.31-2.65-2.21-2.86-3.07-.75-4.8.36-6,3.29l2.56-.2c-1.11,2.05-1.75,4-3,5.39a11.69,11.69,0,0,0-3.35,7.74,23.7,23.7,0,0,1-.9,4.51c-.35,1.56-1.23,3.2-1,4.64.32,1.89-.8,2.59-1.58,3.84-1.73,2.72-4.54,5-4.35,8.66l.78.26,1-4.1,1.86.92-.95.77a2,2,0,0,0,1.86-.11c.88-.49,1.48-1.67,2.64-.06.6.84,1.86.66,2.22-.88.57-2.45,2.33-4.84-.39-7.26l4-.89.31.4-2,1.84,5.4,5.42.58-.63-1.78-1.51a4.22,4.22,0,0,1,2.37-.37,11.51,11.51,0,0,0,1.72-.25c-.62-2.54,1.59-1.4,2.41-2.12L195,214.2l.75-.3c-.45-1.26-1.4-2.57-1.25-3.76a6.2,6.2,0,0,0-2.45-6.25,1.86,1.86,0,0,1-.3-.37Zm-19.66,9.83.67.12,2.21-4.19-1.7-1.39Z"/><path class="cls-3" d="M201.16,346.22c-2.47-.61-4.69-1.17-6.91-1.69a3.38,3.38,0,0,1-2.8-3.4c-.17-2.56-.45-5.12-.47-7.67,0-4.4,1.38-5.87,5.81-6.23q11.25-.92,22.5-1.75a4.74,4.74,0,0,1,1.19,0c2.17.39,3.71,1.54,4,3.82,1,7.14,1.88,14.29,2.81,21.43a4.34,4.34,0,0,1,0,.72c-.07,3.1-5,8.74-8.06,8.94-7,.45-13.52,2.95-20.32,4.26-4.11.8-5.68-.08-6.11-4.28-.24-2.38-.39-4.78-.6-7.17-.27-3,.35-4,3.27-4.9,1.67-.53,3.36-1,5-1.52C200.7,346.77,200.79,346.59,201.16,346.22Zm5.68-9.18,1.18,1.61c2.15.22,2.86,1.21,3,4.27l-3.24,5.57,1.33,1a10.35,10.35,0,0,0,1.46-2.54,26.87,26.87,0,0,0,.38-4.13l2,1.17c-.66.89-1.13,1.51-1.6,2.13.7.36,1.41,1,2.08,1,.48,0,1.09-.95,1.29-1.58a24.84,24.84,0,0,0,.64-3.48c.44.45,1,1.34,1.3,1.26,1.5-.35,2.58-.35,2.66,1.58,0,.73.09,1.46.19,2.19.4,2.92-.09,3.8-2.93,4.53l3.92,2.26c-1.52-2.41-1.48-2.91.48-5.32v3.64c.43-.07,1.06-.06,1.09-.2a14.91,14.91,0,0,0,.78-4,77.41,77.41,0,0,0-.72-7.88c0-.31-.78-.52-1.2-.78,1.32-1.8.49-6.43-1.37-6.91l1.62-2.52-5.85-.48,1.64,2.74c-4.17-3.47-4.7-3.39-6.33.54-.61-.8-1.19-1.58-1.74-2.32l-3.09,3.22-.38-.32,1.15-3.35-4.17,1.57c1.51,1,1.18,1.86-.13,2.38L203.5,337l1-1,.74-.77Zm-.39,5.36L205,337.19C204.42,339.3,203.5,341.52,206.45,342.4Z"/><path class="cls-3" d="M184.47,253.31c-3.27.21-6.05.41-8.83.58a3.85,3.85,0,0,1-4.2-2.88c-1.36-4.19-2.7-8.38-3.92-12.6a4,4,0,0,1,2.76-5.14c3.08-1.07,6.22-2,9.39-2.76,5.9-1.44,11.82-2.82,17.77-4,3.11-.63,4.37.21,5.16,3.22a162.19,162.19,0,0,0,10.22,29.19,14.45,14.45,0,0,1,.82,2.51c.76,2.7.26,4.27-2.3,5.56-4.65,2.34-9.36,4.54-14.12,6.64-3.72,1.65-7.52,3.15-11.34,4.55-3,1.1-5.06.22-6.17-2.68-1.51-4-2.81-8-4.12-12a4.59,4.59,0,0,1,2-5.64C179.8,256.35,182,254.93,184.47,253.31Zm9,9.09c.86.07,1.92-.32,1.6,1.41-.15.8.71,1.78.87,2.14l-.36,4.11,2.71-2.17c-.41-.94-.93-2.31-1.58-3.62-1.29-2.62-1.31-2.61-.3-3.46l.75,1.77c.91,2.61,2.72,1.63,4.61,1l.89,2.74c1.38-.64,2.61-1.23,3.85-1.78s2.68-1.14,4.31-1.83l-2.77-3.67-2.36,3.85c-.82-.73-1.15-4-.21-4.59l.54,2c1.82-1.44,2.13-3,1.23-4.73a58.22,58.22,0,0,1-3.35-6.46c-1.16-3.23-1.84-6.63-2.81-9.92-.61-2.05-1.4-4-2.2-6.33a9.82,9.82,0,0,0,0-2.16,39,39,0,0,0-5-.35l1.57,3.32-.61.33-1.75-3.86c-1.11,2.53-2.54,4.43-2.7,6.42-.23,3.08,1.71,5.36,4.5,6.64l-.82,2.27h5.09l-.87,1.42-2.71-.79.19,3.08c1-.39,1.53-.65,2.12-.83.08,0,.29.33.43.5l-2.53,1.3c-2.57-4.49-5.09-8.87-7.7-13.42l-2.77,2,2.26,3.63L187,243l-9.42-8.1c-2.54.64-2.65.82-2.45,4,0,.75-.22,1.53-.15,2.28,0,.35.54.65.83,1A20.64,20.64,0,0,0,177,239c.1-.44-.46-1-.72-1.57l.64-.31c1.92,3.14,1.92,3.87.09,5.14l1,2.44-3-.57-.52,6,3.66-2.7c.08,1.74.64,2.43,2.78,1.81s4.52-.5,6.79-.7c-.32-1.6-.32-1.6,2.13-2.38-.81,1.36.45,5.3,1.88,5.83.23.08.53-.06.8-.07s1-.2,1.2,0c1.49,1.9,2.9,3.87,4.33,5.82l-4.1-3.51,1.45,4.85c-.89,1.49-1.43,2.41-2,3.31-2.33-1.56.11-3.2-.23-4.9a6.11,6.11,0,0,0-1.43,3.69c.11,1.22,1.06,2.36,1.64,3.53l.5-.26Zm-4.41,2.7-7.24-6.3-3.65,3.41.56.56.88-1.26c.43,1.31.73,2.32,1.1,3.31a11.12,11.12,0,0,0,.72,1.31H179.9c.87.92,2.57,1.17,2.81,1.9.35,1.05-.35,2.45-.63,3.84l1.76,1-1.23,1c2.54,2.06,4-1.11,6.27-.74-.81-1.88-1.47-3.44-2.12-5,2.5.56,4,4.2,7.3,1.82-.81-.59-1.85-.64-2.61-1.13a12.16,12.16,0,0,1-2.8-2.61C188.46,266,189.05,265.16,189.07,265.1Zm1-5.66c.37-2.3.72-4.44,1.11-6.84C187,255.45,186.82,257,190.11,259.44Zm-7-23.07-1.58-2.63-.58.28,1.81,5,.94,0,1.21-3.37-.63-.23Zm4.45,21.81-1.94-1.44-2.07,1.48C184.9,261.18,186.13,257.56,187.53,258.18Z"/><path class="cls-3" d="M219.17,262.1c-1.35-2.36-2.85-4.3-3.65-6.48-2.61-7.06-5-14.19-7.36-21.33a3.48,3.48,0,0,1,.35-2.86c4.07-4.69,8.28-9.26,12.44-13.87l.75.23a38.86,38.86,0,0,1-.93,4.83c-.47,1.49-.12,2.24.94,3.48,1.69,2,2.67,4.55,4.07,7.08,2.46-3,5.18-6.11,7.66-9.42,1.16-1.55,2.05-1.63,3.5-.52s3.27,2.21,5.46,3.66c-.31-2.85-.67-5.1-.74-7.36,0-1.18,0-2.91.73-3.48,3.05-2.4,2.72-5.25,1.75-8.36-.52-1.68-1.15-3.33-1.52-5a15.81,15.81,0,0,1,0-3.23l.93-.25L263.45,224c.54-2.67,1.1-5.47,1.53-7.58,3.19,2.77,6.37,5.45,9.42,8.26a2.51,2.51,0,0,1,.21,2.17c-2.55,7.09-5.13,14.16-7.83,21.18-.7,1.83-2,2.4-4,1.39-5.22-2.6-10.54-5-15.83-7.46-1.9-.88-3.54-.37-5.08.94-6,5.15-12.1,10.26-18.15,15.39Zm39.1-19.73.58.23,3.23,1.86c1.44-1.12,3-1.73,3.48-2.82a58.9,58.9,0,0,0,2.6-7.76c.07-.25-.41-.63-.52-1-.25-.77-.42-1.57-.62-2.35l2.39-.41a7,7,0,0,1,.8,0c-.81-.73-1.83-1.55-2.64-1.38a21.46,21.46,0,0,0-4.15,1.69,24.7,24.7,0,0,0-1.23-3.4,22.24,22.24,0,0,0-2.29-3.26c-2.09-2.58-4.25-5.11-6.36-7.68-.9-1.09-1.74-2.24-2.63-3.35-1.15-1.44-1.59-3.72-4.13-3.57l-.91.91,3.67,1.64-.64.7-2.31-.92,1,3.49a4.37,4.37,0,0,0-3.48,5.35c.41,1.41-.38,3.21,1.51,4.33.43.26,0,2.48-.49,3.62-.4,1-1.28,2.28-2.13,2.44a5.11,5.11,0,0,1-3.68-.95,35.09,35.09,0,0,1-4-4.4c-3.3,4.13-6.21,7.84-9.2,11.49-1.2,1.47-3,1.58-3.44.15-.7-2.32-2-4.68-1.11-7.68l-7.75,5.29c.24-2.07.42-3.6.61-5.25-.88.54-1.94.81-2.29,1.46-.53,1-1.07,3-.74,3.22,1.29.83,1.34,1.83,1.38,3.1a13.56,13.56,0,0,0,.56,4.33c1.15,3.11,2.57,6.12,3.69,8.71l2.22-2.37c.12,1.68-.73,3.22-.3,4.19.54,1.21,2.14,1.94,3.18,2.79l8.7-7.53L228,244.91c3.72,2.17,4.18,2,5.17-2.56l2.46.78c2.08-1.7,3.89-4.2,6.2-4.8,3.07-.8,5.46-1.62,6.27-5.21l1.9,2.19-1.83,2,5.08,3.13-1.74-4.06c2.61,1.17,1.51,5.87,5.43,4.32Zm-41.14-16.83c-.35,1.38-.59,2.41-.88,3.43s-.63,2-.94,3l.31.08c.9-2,1.79-4,2.74-6.06Z"/><path class="cls-3" d="M171.17,151.78c-2.32-.75-4.62-1.57-7-2.22a3.82,3.82,0,0,1-3.08-4.68c.54-3.38,1.3-6.74,2.17-10.06a3.32,3.32,0,0,1,3.71-2.75c5.33.51,10.68,1,16,1.68,4.68.61,9.32,1.5,14,2.28,3.08.51,4.33,2,3.81,5.12-.56,3.31-1.53,6.55-2.07,9.86-.78,4.82-1.39,9.67-2,14.52-.54,4.47-1.89,6.08-6.41,6.44-9.25.74-18.51,1.33-27.76,1.91a3.47,3.47,0,0,1-3.82-3.89c.21-4.15.46-8.3.8-12.44.24-2.92,1.33-3.81,4.2-4.13,2.49-.27,4.95-.76,7.42-1.16Zm10,11.19c1.27-1.25,2.64-1.66,2.88-3.86.34-3.1,1.81-6.09,3-9.69l1,2.26.76-.2c-.38-1.27-.44-2.83-1.24-3.73s-2.45-1.41-3.64-2l-4.77-.78,1-2.77,2,1.89a10.66,10.66,0,0,0,.85-1.38c.27-.66.44-1.36.65-2-.81,0-1.62,0-2.43.09-.43,0-.86.36-1.28.33-3.25-.22-3.25-.24-2.24,2.65-3.69.83-2.28-2.33-3-4l-1.79.7-1.09,5.39.43,0,1.48-2.64a2.16,2.16,0,0,1-.09,1.46c-1.16,3.12-1,3.44,2,4.9,1.13.54,2.18,1.23,3.72,2.1-3.33,4-8.68,2.11-11.86,5.06l1.1,1.69-.26.21-1.3-1.1-4.54,1.05-.23,3.65c1.13-1,1-3.52,3.28-2.6.42.16.21,1.92.29,2.94l-.75.08-.58-1.56L164,161l-2.44,7c3.31-1.12,1.68,1.06,2.23,2l4.52-.86c.35-.26.74.19,1.23.35,2.58.86,6.91-.78,8.32-3.09.38-.61,1.1-1.17,1.14-1.79.11-1.48.29-3.18-.33-4.4-.38-.77-2.15-.85-3.45-1.29C178.67,157.73,178.7,157.75,181.19,163Zm4.62,3.13.22.48-1.09,1.22c.73.08,1.27.18,1.8.19,6.11.12,7-.61,5.32-5.63a1.07,1.07,0,0,1,.08-.85c2.26-2.95.52-6.73,2.05-9.85.11-.22-.54-.82-.93-1.38,2.48-.91,1.18-2.51.74-3.9,3.61-.61,1.31-4,2.83-5.58.14-.16-.44-1.48-.69-1.48-2.32,0-4.8-2.34-6.56.13l-1.81-1.78-2.25,3.23,3,1-1.3,1.45a11.73,11.73,0,0,0,3.27-1.72c2-1.3,2-1.29,2.27.47-2.36-.29-3.79.92-4.41,3.85l1.81-1.48.39.31L189,147.28c1.8,3.51-.75,6.51-1.28,9.86l1.63-.33-6,9.71Zm-18.66-20c2.79-4.21,2.89-6.75.2-7.62l.9,2.2c-4,1.05-4,1.05-3.31,4.47l.61-2.95,2.54,1.68-2.4.92ZM167,135.75l.1.77,2.87,2.46.45-.68-1.24-.63.27-2.39Z"/><path class="cls-3" d="M204.62,81.94a6.46,6.46,0,0,0-.93.7c-3.2,3.46-3.47,3.46-7.76,1.37-.79-.38-2,.13-2.85-.14a43.78,43.78,0,0,1-6.53-2.35c-1.8-.84-2.17-2.79-1.09-4.76,4-7.33,8.67-14.29,14.78-20.05a168.07,168.07,0,0,1,13.94-11.77c3.53-2.67,4.67-2.15,6.58,1.78.77,1.58,1.35,3.25,2.09,4.85.9,1.91.35,3-1.38,4.34-5.24,4.06-10.26,8.42-15.34,12.68a14.2,14.2,0,0,0-1.48,1.76c4.24-3.43,8.06-6.61,12-9.68,1.64-1.28,3.43-2.36,5.18-3.49,1.48-1,3-1.4,4.11.5,1.25,2.06,1,3.68-.89,5-2.64,1.82-5.54,3.35-7.87,5.5-4,3.74-7.76,7.84-11.57,11.84a5.54,5.54,0,0,0-.75,1.69A1.35,1.35,0,0,1,204.62,81.94Zm4-28.66-.52.68c1.65,1,4.22,1.35,3,4.87l2.64-2.16Z"/><path class="cls-3" d="M223.89,412.42c-.09-.76-.15-1.22-.2-1.67-.51-4.38-.44-4.37,3.54-6.42,2-1,3.48-.57,5.24.69,3.63,2.57,7.4,5,11.25,7.22,2.51,1.46,3.28,3.19,1.69,5.7-2,3.17-4.17,6.24-6.27,9.36-1.67,2.49-3.82,3.6-7.19,2.06,2.89,3.06,1.12,5.25-.63,7.46a54.74,54.74,0,0,1-4.2,5.24c-2.49,2.46-4.4,2.39-6.85,0a68.2,68.2,0,0,1-13.7-19.31,16.73,16.73,0,0,1-1-2.95,3.2,3.2,0,0,1,1.77-4c3.28-1.68,6.5-3.45,9.83-5a4.81,4.81,0,0,1,3,.08A28.82,28.82,0,0,1,223.89,412.42Zm6.47,5.38-.94.38L226.57,420l-4.88-4.92c-1.49,5.07,3.2,5.75,5,8.29,1.38-2.25,2.82-1,4.89-.33l-1.87,1.19c1.12.17,2.56,0,2.85.51,1.83,3.24,2.92.79,4.83-.63l-5-1,1.83-2.24-5.72-4.93-.54.61Zm3.41-6.91c-1.23,2.42-3.12,4.17-1,6.93.68.89,1.28,1.56,2,1.26a3.54,3.54,0,0,0,1.81-2.18,15.75,15.75,0,0,0-.09-3.93l-.6.45Zm-14.63,9.59c.39-1.41.85-2.84,1.13-4.3a3.13,3.13,0,0,0-.41-1.85c-.08-.15-1.41.17-1.4.21.19,2.63-2.32,1.49-3.31,2.4-.42.4-.8.84-1.19,1.27l.63.56c1.26-.73,2.53-1.45,3.8-2.17C215.32,419.11,218.83,419.58,219.14,420.48Zm.79,14.75c-.42,1.18,2.22,3.65,4.5,3.35.48-.06.89-.6,1.34-.93a8.93,8.93,0,0,0-1.53-1C222.83,436.15,221.38,435.71,219.93,435.23Z"/><path class="cls-3" d="M256.48,455.69a60.79,60.79,0,0,1-24-5.14c-4.48-2.06-4.89-4.22-1.43-7.76,1.23-1.26,2.43-2.55,3.65-3.82a2.62,2.62,0,0,1,3.46-.49c19.41,9.8,39.85,4.89,54.4-9.31,1.15-1.13,2.25-1.5,3.63-.82,2.22,1.1,4.44,2.21,6.58,3.46,1.77,1,2.16,2.64.91,4.28a24.18,24.18,0,0,1-3.77,4C287.77,450.13,273.84,455.52,256.48,455.69Zm40.37-18.47c1.22-1.06,2.48-1.63,2.56-2.34.14-1.15-.69-2.12-2.21-1.88-.18,0-.47-.61-.64-.58-1.41.22-2.83-1.07-4.25.15-2.87,2.47-5.81,4.87-8.71,7.3,1.07,1.22,3.74,1.34,4.07,4l1-3.93,3.57-.81.8,1.35,1.47-2C296.12,439.55,296.74,439.12,296.85,437.22Zm-60,10.4,4.09-1.4v3.62c2.49.47,4.95,1.09,7.45,1.31.7.06,1.5-1.06,2.25-1.64l-2.21-1.62-.35.52,1.92-.75-.85-1-2.52-.27c-.08-.64,0-1.65-.26-1.77a37.83,37.83,0,0,0-5.17-1.84,20.93,20.93,0,0,0-3.32-.37l-.24-1C237.37,443.67,234.34,445.87,236.9,447.62Zm40.18-3.5,3.25-1.95c.07,1.39.12,2.29.18,3.32l3-1.13c-.11-2.12-1.58-3-3.41-3.11C278.68,441.17,277.13,443,277.08,444.12Zm-4.76,3.48c3.8,1.32,4.82.67,4.37-2.48Zm-15.11,0c-.88-2.26-2.37-.52-3.67-.47l2.55,1.77Z"/><path class="cls-3" d="M180,105.33a3.65,3.65,0,0,0-.37-.29c-6.39-3.46-6.54-3.86-3.79-10.62.54-1.33,1.12-2.64,1.76-3.93a5,5,0,0,1,6.2-2.81c7.5,2.28,14.95,4.74,22.42,7.15,2.28.73,4.53,1.58,6.82,2.31,3.37,1.09,4.69,3.37,3.34,6.67-1.17,2.87-2.84,5.54-4.24,8.32-2.13,4.22-4.28,8.42-6.29,12.69-1.79,3.77-3,4.49-7.11,4-8.19-1-16.38-1.87-24.55-2.89a30.92,30.92,0,0,1-5.6-1.29c-1.73-.55-2.63-1.72-2-3.71,1-3.36,1.93-6.77,3-10.11,1.56-4.78,2.71-5.45,7.77-4.92a23.77,23.77,0,0,0,2.67,0ZM178.28,115h-1.21l.54-2.11-.54-.11-.74,1.08-.46-.22L177,110.5l-3.42,2.85-.49-.55,2.3-2.43c-3.43.11-3.06,2.8-4.33,4.31,3.69,1.93-.44,4.14.51,6.18,3,.51,6.07,1,9.12,1.55,2.61.45,5.12.72,7.1-1.71a11.67,11.67,0,0,1,2.62-1.86c4.09,4.84,4.09,4.84,6.66,5.49a2.8,2.8,0,0,0,.69.2c2.06-.16,3.91.13,5.06-2.68,2.27-5.53,5.25-10.77,7.95-16.12.85-1.68,1.75-3.33,2.68-5.07l-8-2.55-1,1.39V97.58c-1.62.09-3.56-.33-4.76.43s-1.68,2.69-2.48,4.1l-1.9-.71.07.06-1.9-1.8c.66-.88,1.66-1.63,1.59-2.24a20.26,20.26,0,0,0-1.51-4.21l-1.83,2.34c.35-3.27-1.85-2.74-3.29-3.35-.71,3.55-1,3.67-4.05,2.07-1-.55-2.2-.91-3.22-1.33L179,100.05l5.57,3.24c-1-1.87-.52-3.8,1.67-6.43l4.86,1.42c-2.13,1-4.95.62-5.81,3.71l2.16,1-.48.45a5.85,5.85,0,0,0,1.17,1.49c2.25,1.5,2.41,2.32.83,4.46-.23.3-.13.85-.18,1.33-1-1.17-4.65-2-6.07-1.34-.53.25-1.93.05-1.11,1.5.13.24-.51.91-1,1.67l-.88-3.8-2,3,.48,0v3.33Z"/><path class="cls-3" d="M320.35,143.88c1.79.27,3.57.6,5.37.81,2.7.31,3.79,1.25,3.87,3.93.08,3.35,0,6.71-.11,10.06-.11,2.61-1.23,3.83-3.86,4-4.64.23-9.29.17-13.94.32-3.92.13-7.84.31-11.76.58-4.35.31-6.07-.93-6.6-5.26q-1.36-11.09-2.53-22.2c-.35-3.26.66-4.78,3.94-5.6,5.42-1.36,10.9-2.5,16.35-3.74,3.59-.81,7.15-1.75,10.77-2.39,4.19-.75,5.28.07,6,4.29.45,2.67.62,5.4.94,8.1a4.07,4.07,0,0,1-2.88,4.67c-1.84.7-3.7,1.35-5.55,2Zm-8.3,3.44a6.09,6.09,0,0,1-2.05-.26c-.87-.55-1.51-1.54-2.42-1.94-1.74-.77-1.66-1.74-.49-3.12l-1.51.12c.48-1.17-1.12-6.68-2-6.61-1.55.13-3.19-2.47-4.66,0,1.94,3.35,5,6.06,5.14,10.3l2.65,2.22-1.91,2.14-3.19-8.55-2,.58,1.62-2.16c-1.85-1.36-5.1.65-5.81-2.61.5,5.73,1,11.47,1.52,17.4,1.56-1.86,1.57.1,1.79.31-.19,1.65-.32,2.81-.48,4.17,2.67,0,5.25.64,7.2-.19s3.1-3.12,4.63-4.79l2.68,5.39c.33-3.85.59-6.82.85-9.81,2,.66,2,.74.91,2.78-2,3.61-.58,6.12,3.38,6.32a13.07,13.07,0,0,0,8.57-2.24c.12-1.87.39-3.76.33-5.65s-.16-3.66-3-3.82a99,99,0,0,1-10.59-1.65c-.52,1.06,2.57,2.19,0,3.56Zm-3.14-8.49-3.71-5.75a17.73,17.73,0,0,0,1.18,6.35,35.18,35.18,0,0,0,3.49,5.22l.63.29c-.22-3.48,4.4-2.15,4.63-5.39l.31,1.22c1.8-.64,3.61-1.25,5.39-1.92.51-.19,1.17-.44,1.38-.86.65-1.32,1.11-2.73,1.58-3.91l-1.17-.54.82-1.13c-1.39-1-1.42-1.37-.35-2.76a6,6,0,0,0,.59-1.37c-.49-.06-1-.11-1.49-.19-.26,0-.66-.26-.76-.16-.85.84-3.35-1.1-2.85,1.83l-2.08-.57c.14.53.23.84.14.51l-6.17.69C310,132.93,309.48,135.76,308.91,138.83Z"/><path class="cls-3" d="M291.23,63.74a60.36,60.36,0,0,0-14.48-12.55c-1.83-1.18-2.4-2.38-1.39-4.36.69-1.35,1.15-2.82,1.8-4.19,1.3-2.71,3-3.31,5.66-1.86a37.41,37.41,0,0,1,5.23,3.39,77.81,77.81,0,0,1,21.31,25.42c1.67,3.2,1.23,4.88-1.95,6.39s-6.15,2.72-9.2,4.12a2.68,2.68,0,0,1-3.74-1,67,67,0,0,0-20.75-19.75c-1.89-1.16-2.13-3.21-.75-5.21,1.19-1.72,2.74-1.42,4.19-.4C282.11,57.2,287,60.74,291.23,63.74ZM288.4,52.09l2-.38c.07,1.49.12,2.69.18,4l1.73.16c-.18-2-.34-3.85-.49-5.64h-3.77c.12.74.22,1.34.31,1.93l-2.46-3.4c.44,2.74-1.95,1.22-3.21,2.33.93.4,2.13,1.1,2.25.95,1-1.3,1.59-.23,2.34.24C287.56,52.39,288,52.15,288.4,52.09Zm-9.56-3.7c1.92,1.6,4.14.74,5.6-1.43l-4.19-4.85c-.52,1.89-1,3.5-1.39,5l2.62,1.22-.11.38ZM303.9,72.25l2.7-.9a9.35,9.35,0,0,0-1.83-1.58,13.82,13.82,0,0,0-3-.64l1.81,1.37c-1.36.88-2.62,1.65-1.16,3.6Z"/><path class="cls-3" d="M301.41,328c2.4,0,4.22.05,6,0a2.48,2.48,0,0,1,2.87,1.94c.91,3.23,2,6.41,2.77,9.68s-.62,5-4,5.47c-4.59.64-9.19,1.12-13.77,1.81a56.56,56.56,0,0,0-5.8,1.46,9.29,9.29,0,0,1-11.63-6.6c-1.47-6-2.81-12-4.08-18-.95-4.56-.26-5.54,4.16-7.1,5.65-2,11.26-4.11,16.92-6.08a44.06,44.06,0,0,1,6-1.59c2.34-.47,3.82.49,4.56,2.8.85,2.66,1.62,5.36,2.44,8a3.68,3.68,0,0,1-1.51,4.4C304.87,325.36,303.36,326.53,301.41,328Zm-5.49-10.48-3.65-2.06c-2.14.78-4.86,1.88-7.66,2.72-1.59.48-2.64,1.15-2.63,2.94a4.22,4.22,0,0,1-.64.14l-.33-1.78-3.57,1.56c.44,2.29-.42,5.27,2.95,6.47l.26-2h.4c.21,1.11.43,2.22.7,3.63l-2.16-.6c.6,3.81,1,7.32,1.74,10.78a6.91,6.91,0,0,0,1.74,3.63c3.71,3.32,8.06,1.95,9.63-2.86-1.76.43-2.12-.73-1.48-1.8.93-1.54.16-2.48-.51-3.64a33.86,33.86,0,0,1-1.43-3.2h1.77c.53-1.54.64-3.23,1.53-4.09,1.29-1.24,1-2.21.46-3.45l.66-.12.43,5,5.85-3.92-2-1.37c2.05-3.06,2.05-3.06,4-.93v-3.74c-1.2.24-2,.39-2.81.56s-1.61.37-2.59.6c-.24-.86-.46-1.67-.69-2.49l.74-1.57,2.43,1.61c-3-3.48-3-3.48-4.59-2Zm8.73,15.62c.52.57.87.92,1.18,1.3s.6.82,1.22,1.67c-1.38-4.69-4-5.86-8.07-3.68l3.71,2.36c-1,1.58-1.77,2.83-2.8,4.46L303,341.4l.68-1.86.46.11v2.26l5.69-1.4L308,339.2c.37-.6.93-1.23.82-1.4a2.28,2.28,0,0,0-1.36-.9,13.93,13.93,0,0,0-2.4,0Zm-5.81,3.23a18.46,18.46,0,0,0,.42-2.27,2.12,2.12,0,0,0-2.46-2.07c-1.38.4-2.77.76-4.13,1.13Zm2.29-21.48-1.24-2-2.55,1C298.2,315.56,299.41,316.31,301.13,314.92Z"/><path class="cls-3" d="M204.43,389.44c-8.36-.71-8.36-.71-9.78-9-.06-.32-.15-.63-.2-.94-1-6.54-.18-7.89,6.25-9.22,5-1,10.05-2,15.12-2.68,2.94-.41,3.71.66,3.4,3.63a38.6,38.6,0,0,0,4,21.62c2.09,4.16,1.9,5.11-2.09,7.47q-7.75,4.57-15.52,9.14c-2.28,1.32-3.71,1.13-4.56-1.37a92.46,92.46,0,0,1-3.41-13.41c-.18-.95,1.37-2.49,2.47-3.3A20.28,20.28,0,0,1,204.43,389.44Zm-1.29-9.25c.12,2.45,2.7,5.34,4.38,4.72-.7-.79-1.35-1.57-2-2.3s-1.55-1.61-2.33-2.42l-4.64-3.43c.21,1.21.41,1.93.45,2.66a19.18,19.18,0,0,1-.12,2.27l.69.15,1.07-2.32Zm5.34-7.69,4.2,5.43-2.15,3.1a7.65,7.65,0,0,0-1-.71c-.4-.2-.84-.32-1.29-.49-.39,2.59-.4,2.59,1.57,4.53a13.88,13.88,0,0,0,1.94,1.75c1.55,1,1.61,1.85.17,3.14-.79.69-1.08,1.93-1.6,2.93l.66.3,1-2c.3,2,.21,3-1.7,2.48-.55-.15-1.24.22-1.86.36l.18,1.08H219l-1.59,2.32.49.47,2.79-1.39c-1.49-3-2.94-5.86-4.32-8.75-.21-.44,0-1.06-.11-1.58-.32-1.59-.69-3.17-1-4.76l-.59.39-.11-.18a21.16,21.16,0,0,0,.45-5.59c0-.08-.29-.16-.46-.24Zm5.43,25.29-4.09.46-.45-.79-1.16,1.05c-2.39-3-2.39-3-4.43-.76l-1.07-1.39-.62.44c.43.55.88,1.09,1.28,1.67a14.15,14.15,0,0,1,1,1.53c-2.42,1.73.66,2.15.78,3l-1.31,2.26a20.92,20.92,0,0,0,3.66-1.75c1.76-.95,3.53-1.9,5.33-2.78,2-1,2.79-2.45,1.6-4.81Zm-8.37-20.37-3.21-3.13a5.82,5.82,0,0,0,.48,2.59c.34.78.79,1.52,1.21,2.34Zm1.22-4.69c.33,2.85,2.53,3.73,3.87,5.45Z"/><path class="cls-3" d="M302.54,237c1.66.64,3.31,1.34,5,1.92,3.27,1.12,3.75,1.88,2.81,5.08-1.23,4.23-2.49,8.44-3.83,12.64-1.09,3.43-2.95,4.59-6.37,3.74-7.6-1.89-15.2-3.8-22.74-5.91-4.72-1.32-5.91-3.23-4.5-7.79,2.87-9.26,6-18.42,9.16-27.59.93-2.71,3.07-3.94,5.94-4,8.81-.25,17.61-.55,26.42-.83,4-.13,5.55,1.88,4.32,5.53-1.09,3.27-2.5,6.45-3.32,9.78-1.08,4.36-4,5.78-8,6.09-1.62.13-3.23.46-4.84.7Zm7.54-17.64c-1.59-2.49-4-1.37-6.13-1.58-1.66-.16-2.54.59-3.35,2a14.28,14.28,0,0,1-3,3.26,1.61,1.61,0,0,1-1.47-.36,38.31,38.31,0,0,1-1.21-4c-1.27-.18-2.13-.36-3-.4a22.58,22.58,0,0,1-2.59.09,3.75,3.75,0,0,0-4.39,2.8c-.39,1.27-.87,2.54-1.13,3.84a16.16,16.16,0,0,0,0,2.89c-.18.16-1.06.58-1.19,1.15-.48,2.31-.61,4.62-2.17,6.68-1,1.25-1.16,3.06-1.67,4.51l2.67.91-2.73,1.25-.52-.51-3,8c3.83-.1,6.74,3.07,10.21.86a7.32,7.32,0,0,0,0,1.32c2.63.47,5,3,8.17.86l-.73-.78c.42-1.15.75-2.17,1.15-3.15a5.19,5.19,0,0,1,.77-1.28c.05-.06.76.21.76.35a4,4,0,0,1-.23,1.49c-.23.67-.85,1.3-.83,1.93a22.24,22.24,0,0,0,.72,3.65,23,23,0,0,1,4.82,1.24c2.14,1,3-.05,3.57-1.7q1.74-5.48,3.17-11.06a2.32,2.32,0,0,0-.58-2.05,21,21,0,0,0-3.64-1.41l-8.7-3.31c-.08-3.52,3.45-2.64,5.3-4.59l-3-.32c.38-1.36,4.75-2.63,6.65-1.6L300,232.19a13.6,13.6,0,0,0,8.88-.9,10.18,10.18,0,0,0,3.18-2.56c.48-.54.45-1.53.65-2.32l1.29-5.18-.27.08,2.14-3.34h-6.26Z"/><path class="cls-3" d="M313.13,101.29a41.6,41.6,0,0,1,6.12.09c1.07.16,2.65,1,2.91,1.91a85.82,85.82,0,0,1,2.73,11.61c.31,2-1.55,2.83-3.28,3.19-3.13.66-6.29,1.19-9.43,1.8-6.44,1.24-12.88,2.47-19.31,3.76-2.46.49-4.29-.22-5.3-2.55-2.94-6.83-5.88-13.66-8.73-20.53a3.44,3.44,0,0,1,1.87-4.81c4.67-2.27,9.38-4.48,14.05-6.74,4.46-2.16,8.9-4.38,13.36-6.54a13.8,13.8,0,0,1,3.11-1.23c2.07-.45,3.74,0,4.6,2.31,1,2.69,2.22,5.31,3.35,8,1.63,3.79,1.08,5.43-2.58,7.42-1.18.65-2.39,1.23-3.59,1.85Zm-6.84-3-1-2c3.2-1.12,1.42,1.63,2.23,2.63l9.19-5c-1.25-3-2.21-5.5-3.3-7.9-.26-.58-1.11-1.44-1.44-1.34a5.43,5.43,0,0,0-2.36,1.57,5.87,5.87,0,0,0-.66,2.12l-.3-.07.16-2.9c-2.66,1.65-4.72,3.52-7.13,4.27-2.57.81-2.88,2.44-3.28,4.49A6,6,0,0,1,297,96.79c-.13.15-1.38-.62-2.08-1-.47-.28-.84-.72-1.29-1-1.21-.88-6.74.62-7.3,2-.11.28.09.69.17,1.16l-1.85-1.16.33,1.81-.38.25L284,97.55c-.33,1.24-1,2.28-.73,3,.68,1.91,1.8,3.66,2.65,5.51,1.27,2.75,2.54,5.51,3.66,8.32.64,1.63,1,3.38,1.42,4.93l9.38-1.79c-1.16-1.38,1.35-3.66-1.82-3.88l3.33-1.93c1.88,1.49,3.64,4,5.55,4.15,3.25.21,6.6-1.12,9.91-1.76,1.34-.25,2.7-.38,4.22-.59-.62-3.15-1.22-6.17-1.81-9.11l-3.12,1.13,1.69-1.47c-5.38-.87-11.06,2-15.88-1.86L306,99.72l-1.07-1.15Z"/><path class="cls-3" d="M318.45,189.85c1.65.56,3.32,1.09,4.95,1.69a3.43,3.43,0,0,1,2.38,4.55c-.61,2.4-1,4.87-1.64,7.25-.95,3.35-2,4-5.52,4.15-3.29.09-6.57.18-9.85.2-5.21,0-10.41,0-15.62,0-4.06,0-5.83-1.93-5.12-5.87,1.61-9,3.32-18,5.05-26.91a4.42,4.42,0,0,1,4.34-3.83c6.95-.51,13.9-1,20.86-1.42,2.31-.14,4.65-.17,7-.09,3.12.1,4,.89,3.79,3.92-.19,3.59-.61,7.18-1,10.75a4.4,4.4,0,0,1-4.38,4.27c-1.73.16-3.44.49-5.15.74Zm4.47-9.69c2.8-.83,2.76-3.37,3.27-5.48.11-.48-.91-1.75-1.45-1.78-3.43-.17-6.87-.12-10.3-.07a1.78,1.78,0,0,0-1.16.71c-.92,1.24-1.75,2.53-2.61,3.81l-.18.31c-.07-.2-.19-.58-.2-.57-1.77.49-2-1.14-2.78-2a3.68,3.68,0,0,0-2.07-1.24c-1.95-.08-3.91.14-5.87.25-3.36.19-3.27.22-3.48,3.59a67.71,67.71,0,0,1-1.07,9.56c-1.1,5.29-2.54,10.51-3.83,15.71.7.26.92.36,1.14.43,4.09,1.35,7.06.39,9.43-3a27,27,0,0,1,2.38-2.54,33,33,0,0,0,1.49,4.16c.36.69,1.16,1.61,1.78,1.63,4.32.14,8.64.07,13.08.07.64-3.21,1.27-6.35,1.86-9.29l-11.67-4.26c-1.38-.5-1.81-1.48-.83-2.55a5.08,5.08,0,0,1,2.65-1.56c3.15-.57,6.34-.89,9.5-1.37,2.74-.41,3.31-1.16,3.05-4.2l-1.26,2.21Z"/><path class="cls-3" d="M299.36,398.45a21,21,0,0,0,2.45-2.63,5.57,5.57,0,0,1,6.29-2.75c2.75.49,5.56.64,8.32,1.06,2,.31,3.35,1.57,3,3.64-1.06,5.73-2.09,11.47-3.62,17.08a65,65,0,0,1-4.32,10.67c-1.73,3.64-3.54,4.25-7.08,2.44-3.25-1.67-6.36-3.63-9.54-5.46l.84-2.74c-.23-.08-.47-.26-.61-.21-3.81,1.64-6.79-.08-9.68-2.31-1.9-1.47-3.93-2.78-5.76-4.32-2.39-2-2.5-3.82-.19-5.78a47.9,47.9,0,0,0,10.62-12.92c1.24-2.16,6.69-2.9,8.48-1.21a3,3,0,0,1,.63,1.72C299.3,395.72,299.28,396.73,299.36,398.45Zm15.08,7.29,0-.91-3.36-.25,2.47-1.36a19.11,19.11,0,0,0-1-3.15,18.61,18.61,0,0,0-2-2.67c-1.17,1.64.24,2.39,1.42,3.27l-.82,1.65a22.73,22.73,0,0,0-1.78-2.75,24.36,24.36,0,0,0-2.61-2.24c-.55,2.71-1.52.55-1.89.38-1.34,1.44-2.52,2.66-3.65,3.92s-2.32,2.63-3.28,3.72a14.69,14.69,0,0,1-2.84-1.85,2.9,2.9,0,0,1-.57-2,29.88,29.88,0,0,1,.77-3.69l-.51-.06,1-.8-2.41-1.61c1,2.06-3.65,2.65-.78,4.44-3.69,0-3.06,3.71-4.9,4.8l1.94,1.25-7.93,3.69-.07.76,5.11,2.79,2.56-2.22.4.57-1.9,2.38,2.33,1.94-.08-.62,3.58-.48v-4.37l.35-.14c.51,1.66,1,3.31,1.52,5l.62-.07.11-2.35,2.12,1.92.17-.72,3.16.51-3.39,6.58c3.78.32,5.42,4.63,9.42,4l-.52-1.84c2.59-.46,6.64-11.76,5.19-14.18l1.2-.27-1.5-2.22Z"/><path class="cls-3" d="M310.91,369.24c1.57.21,3.16.36,4.72.65,2.26.43,3.78,1.48,3.8,4.13,0,3.35.57,6.72.4,10.05s-1.54,4.2-4.76,3.78c-6.18-.81-12.36-1.67-18.54-2.53-2.25-.31-3-1.35-2.61-4A43.69,43.69,0,0,0,292.06,361c-.23-.69-.43-1.38-.7-2.05-1.33-3.32-1.23-3.72,2.39-4.45,6-1.2,12-2.17,17.95-3.27,2.47-.45,3.83.71,4.42,3s1.2,4.65,1.6,7c.52,3-.15,4.09-3,5.5l-4,2Zm.48,10.72,2.43-2.28.28.12c-.26.56-.52,1.12-.86,1.88l2.74.41c0-1.78-.39-3.39.09-4.68.76-2-.72-2.21-1.74-2.44-.44-.1-1.17,1-1.56,1.42-2.63-2.94-7.17-1.46-10.68-3.52.83-1.21,2.15-2.26,2.05-3.15-.33-2.86,1.24-4.55,3-6.21.26-.25.92-.07,1.39-.08l-.73,1.12,2,2.81c.5-.36,1.59-.86,1.54-1.16-.2-1.21-.6-3.24-1.22-3.36-2.78-.52-2.16-2.23-1.88-4l2.53,2.41-1-4.32-2.58.53,1.19,1.48c-2-2-4.49.49-6.64-.76L298.17,362l-.6-.19,1.44-3.75-.31-.19-1.55,1.8-1.4-2c.82,3,1.54,5.65,2.28,8.39l2.19-1.45.49.61-2.51,2.18v13c.85-.77,1.55-1.41,2.44-2.2a4.27,4.27,0,0,0,4.78,3.82l-.92-3.08c.67.34.91.38.93.48.42,1.77,1.49,3.37,3.24,3.25,1-.07,1.87-1.79,2.79-2.76ZM309,365.83c-.89-1.16-1.49-1.95-2-2.56l-2,4Z"/><path class="cls-3" d="M242.3,145.18c-3.83,5.84-7.21,11.08-10.68,16.26-1.78,2.66-3.76,5.2-5.57,7.84-1.17,1.7-2.39,2-4.16.77s-3.56-2.13-5.73-3.4c-5,5.67-10.11,11.36-15.34,17.22-.66-4.09-.22-7.35,2.8-10.28a120.73,120.73,0,0,0,9.71-11c1.41-1.75,2.49-1.7,4.1-.49,1.85,1.38,3.81,2.61,5.88,4l17.92-25c6.64,6.19,12.89,12,19.24,18,3-2.36,5.91-4.6,8.75-6.95,1.47-1.21,2.51-1.4,4,.17,4.6,4.8,9.32,9.5,14.11,14.11,2,1.9,1.74,4.09,1.56,7.07-6.82-5.48-12.25-11.74-18.31-17.64-2.65,2.15-5.27,4.12-7.7,6.31-1.52,1.37-2.74,1.33-4.11,0-4.59-4.56-9.21-9.1-13.78-13.69C244.11,147.58,243.39,146.52,242.3,145.18Z"/><path class="cls-3" d="M252,32.66c5.25.84,11.17,1.71,17.05,2.79,2.68.49,3.09,1.41,2.51,4.14-.39,1.81-.8,3.6-1.21,5.4-.57,2.52-1.52,3-4.13,2.82-5.82-.4-11.68-1.17-17.45-.74-5.27.39-10.45,2.13-15.65,3.36-3.5.82-5-.16-5.61-3.69a30,30,0,0,0-1.05-4.91c-.75-2.23.05-3.71,2.05-4.38a77.69,77.69,0,0,1,9.69-2.68C242.51,33.92,246.89,33.42,252,32.66ZM248.93,38c-2.42,1.71-2.77-1.68-4.65-2.06l1.34,3-.53-.15q-1.08,2.52-2.18,5a6,6,0,0,0,2.35-2.77c.77-1.9,1.66-3,4-1-.21-1.07-.31-1.58-.4-2.07l3.94,2-3.3-3.18.4-.41-3.13-.67-.23.79a17.38,17.38,0,0,1,1.86.71C248.67,37.35,248.77,37.75,248.93,38Zm19.49,2.35a8.89,8.89,0,0,0-9.94-1.73l-.24-2.83-.59.13-.37,1.51c-1-.44-1.91-1.22-2.68-1.09s-2.6.46-1.85,2.19,2.19,2,4.31,1l2.39,2.58.79-1.93.4.12.14,1.8,3.73-2.84.37.45-3.53,3.37c1,.17,1.9.38,2.77.44,1.08.07,2.17,0,3.26,0-.42-1-.85-2-1.25-3-.05-.13,0-.3,0-.15ZM240,40c-3.47-2-4.21-1.75-4.6.84-2.07.79-4.13.7-5.87,1.83-.28.17-.12,1-.19,1.9l5.14-2.42.17,2.38Zm-.67-2.92-.51.15c.13.41.23,1.16.39,1.17a9.82,9.82,0,0,0,3.55,0c.4-.11.44-1.49.64-2.29l-.64-.25L240,38.12Z"/><path class="cls-3" d="M280.17,119.89c-.14-.2-.27-.4-.41-.59-3.38-3.37-6.76-6.74-10.62-10.57l-5.2,5.77L245.33,95.07l-10.72,16c-.14.2-.25.41-.37.62-3.36,5.59-3.84,5.7-9.26,2.35L209.2,133.11l-.87-.67c2.93-9.4,10.27-16,15.75-24.15,1.77,1.31,3.43,2.51,5.34,3.91,5.08-7.6,10.18-15.26,15.46-23.17l18.7,19.75L270,104.1c4.11,5.27,10.85,8.61,12.52,16.54Z"/><path class="cls-3" d="M240.9,189.76l16.76,18.35a45.78,45.78,0,0,0,3.72-2.72,1.89,1.89,0,0,1,3.06.17c3.95,4.21,8,8.32,11.79,12.69.81.94.56,2.81.32,4.48-5.22-3.1-8.55-7.95-13.08-11.87l-4.57,3.83-17.77-19-14.37,22.79-5.65-4-12.81,16-.89-.25a6.76,6.76,0,0,1,.4-2.53q5.31-8.3,10.86-16.45a2.06,2.06,0,0,1,1.92-.3c5.26,2.63,5.17,2.6,8.3-2.43C232.74,202.32,236.74,196.24,240.9,189.76Z"/><path class="cls-3" d="M260.82,442.59a65.66,65.66,0,0,1-20.2-3.74c-1.53-.52-3.17-1.17-2.46-3.37a4.54,4.54,0,0,1,4.9-2.87c3.63,1,7.21,2.29,10.9,2.81,11.88,1.67,22.3-1.82,31.33-9.63,1.11-1,2.19-2.13,3.76-1.19,1.19.71,2.75,1.57,3.08,2.67.24.81-1.05,2.34-2,3.2A47.86,47.86,0,0,1,270.4,441,72.74,72.74,0,0,1,260.82,442.59Z"/><path class="cls-3" d="M259.1,435.59c-4.42-1-8.86-1.93-13.26-3-1.66-.42-3.3-1.22-2.66-3.5a4,4,0,0,1,5-3c1.84.53,3.63,1.3,5.51,1.66,8.48,1.66,16.17-.5,23.32-5.07,1.08-.69,2.1-1.48,3.21-2.11,1.66-.94,3.59-.24,5,1.56s0,2.67-1.06,3.58C277,431.87,268.68,435,259.1,435.59Z"/><path class="cls-3" d="M254.55,47.75c3,.43,7.16,1,11.33,1.66a2.6,2.6,0,0,1,2.34,3.47c-.62,2.87-1.52,3.94-3.57,3.49-10.17-2.2-20-.7-29.89,2-3.09.83-4.78-.45-4.45-3.48a3.45,3.45,0,0,1,1.75-2.38A64.4,64.4,0,0,1,254.55,47.75Zm6.19,4.14c-1.21-2.25-1.21-2.32-3.47-2.26-2.47.07-4.94.29-7.57.45l.08,1.81Z"/><path class="cls-3" d="M230,334.85c-.24-5.83.71-6.88,5.05-7.35,2.93-.31,5.84-.78,8.75-1.24,3.12-.5,4.24.38,4,3.56-.44,4.95-1.07,9.87-1.59,14.81a2.78,2.78,0,0,1-2.72,2.76c-3.09.39-6.17.87-9.25,1.3a2.2,2.2,0,0,1-2.69-2.09C230.9,342.25,230.38,337.88,230,334.85Zm4.68,9,8.08-.56c-.13-2.82,1.52-5.9,0-8.72L244,332l-4.82,1,1.42-2.33h-6.69c-.36,5.89-.36,5.89,3.22,6.31l-2.48,1.54Z"/><path class="cls-3" d="M258.23,415.09c2.88-.69,6.38-1.42,9.81-2.41,1.91-.56,3.57-.68,5.17.67,1.35,1.14,2.82,2.14,4.11,3.33,1.56,1.45,1.63,3,0,4.56a7.26,7.26,0,0,1-1.26,1.1c-7.93,4.69-16.26,6.71-25.31,3.77-3.14-1-3.68-2.71-1.87-5.47a22.22,22.22,0,0,0,1.51-2.17C251.88,415.49,254,413.72,258.23,415.09Zm-4,3-3,4.31c1.76,0,3.8-.47,4.13.09,1.08,1.81,1.84,1.24,2.87.59,2.19,1.09,4.68.33,6.66-.24,3.24-.92,7-1.57,9.12-4.88-3.66-2.78-3.66-2.78-6.48-1.35A18.46,18.46,0,0,1,254.26,418.05Z"/><path class="cls-3" d="M263.24,64.56c-6.27-2.05-12.07-1.36-17.84-.5a82.43,82.43,0,0,0-8.18,1.82c-3,.75-5.14-1-4.72-4.06A2.8,2.8,0,0,1,234,60a50.49,50.49,0,0,1,27.75-2.78c3.93.7,5,2.29,3.45,5.48C264.85,63.51,263.83,64,263.24,64.56Zm-24-4.72.17.91,5.61-.62-.12-1Zm15.16-1.36,5.88,1.85C258.3,57.79,256.67,57.41,254.43,58.48Z"/><path class="cls-3" d="M204.62,81.94a1.35,1.35,0,0,0,.2-.27c4.86-4.62,9.65-9.32,14.63-13.81,1.7-1.52,3.91-2.48,5.87-3.71,1.09-.68,2.27-1.25,3.05.24s1.89,3,.3,4.6a4.88,4.88,0,0,1-1.16.85c-7,4-12.49,9.67-17.55,15.84-.81,1-2.3,2.09-3.41,2C202.61,87.5,202.41,86.67,204.62,81.94Z"/><path class="cls-3" d="M294,80.38a3.11,3.11,0,0,1-4.53,2.69,6.07,6.07,0,0,1-2-1.69,55.31,55.31,0,0,0-16.16-14.15c-1.49-.88-2.55-2-2-3.85.89-2.82,1.47-3.18,4.18-2,5.75,2.52,10.26,6.77,14.64,11.11a57,57,0,0,1,4.83,6A9.64,9.64,0,0,1,294,80.38Z"/><path class="cls-3" d="M250.11,64.51c4.68.46,7.87.71,11.05,1.11,1.91.24,2.74,1.41,2.4,3.39-.42,2.37-1.77,3.82-3.68,3.54a53.82,53.82,0,0,0-20.5,1.16c-2.1.5-3-.6-3.61-2.23-.61-1.8-.61-3.67,1.7-4.22C242.11,66.14,246.8,65.22,250.11,64.51Zm6.26,2.12C256,68.9,257.58,68.93,259,69c.52,0,1.05-.48,1.57-.74l-.3-.59Z"/><path class="cls-3" d="M215.35,90.7a14.59,14.59,0,0,1-3.27-1c-1.44-.87-2.13-2-.83-3.71A56.75,56.75,0,0,1,227.7,71.41c1.38-.82,2.74-1,3.73.64,1.31,2.16,1.12,4-.24,5.12-4.55,3.89-9,7.87-13.54,11.8C216.9,89.62,216.06,90.18,215.35,90.7Z"/><path class="cls-3" d="M261.05,341c.76-4.71,1.62-9.91,2.43-15.12.3-2,1.65-3.22,3.34-3,1,.1,2.31,1.68,2.6,2.83,1.27,4.95,2.22,10,3.26,15a2.14,2.14,0,0,1-2,2.88c-2.52.44-5,1.07-7.55,1.28S261.51,342.87,261.05,341Zm5.79-11.79H266c-.27,3.49-.53,7-.8,10.55l4.43-.22-3.13-3.14c-.17-.77,3.32-1.9.33-2.79Z"/><path class="cls-3" d="M252.09,72.57c2.89.62,5.32,1.06,7.71,1.66a2.17,2.17,0,0,1,1.63,3.15c-.36,1.06-.75,2.1-1.19,3.12-.72,1.67-1.86,2-3.79,2a134.13,134.13,0,0,0-13.87.76c-2.6.24-3.45-.28-4.34-3.52-.78-2.86-.41-4.16,2-4.75C244.23,74,248.33,73.32,252.09,72.57Zm1.18,4.72.42.94a10.91,10.91,0,0,0,3.41.07c.71-.22,1.24-1.28,1.66-2.07.08-.16-.69-1.13-1.08-1.14-3.75-.09-7.5,0-11.25,0l-.26,2.8h4.19L249.88,76l.46-.3L252,77.93l2.47-1.84.37.43Z"/><path class="cls-3" d="M266.45,73.52c.13-4.67,2.34-6,5.48-3.71,4.65,3.48,9.07,7.26,13.44,11.09,1.21,1.06,2.82,2.65,1,4.47-2.06,2.09-3.94,1.93-6.08.13-3.89-3.28-7.91-6.41-11.82-9.67A16,16,0,0,1,266.45,73.52Z"/><path class="cls-3" d="M274.17,91.29a13.49,13.49,0,0,1-2.54-1.06c-2.1-1.46-4-3.36-6.21-4.48-2.91-1.46-2.57-3.4-1.74-5.78,1.26-3.57,3-4.44,6.05-2.32a82.62,82.62,0,0,1,9.06,7.45c2,1.79,1.68,3.18-.68,4.52A33.75,33.75,0,0,1,274.17,91.29Zm2.7-5.76L273,82.09l-.39.36,1.84,2.32-2.87.52C273.4,86.7,275,87.71,276.87,85.53Z"/><path class="cls-3" d="M236.11,84.46a13.79,13.79,0,0,1-1.85,2.4c-2.18,1.88-4.45,3.65-6.72,5.42-2,1.58-7.5,1-9-1.07a1.9,1.9,0,0,1,.16-1.83c3.76-3.56,7.47-7.22,11.5-10.46,2.15-1.74,4-.8,4.94,1.91C235.51,81.89,235.72,83,236.11,84.46Zm-4.93-2.62c-1.34-.29-5.21,1.53-5.62,2.63a1.08,1.08,0,0,0-.06.68c.83,2.22-1.19,1.95-2.21,2.51a11.18,11.18,0,0,1-1.53.57c.18.4.33,1.12.56,1.15a2.64,2.64,0,0,0,1.82-.29c1.49-1.16,2.7-3.19,4.31-3.55C230.88,85,230.91,83.54,231.18,81.84Z"/><path class="cls-3" d="M206.84,337c.07-.22.09-.58.22-.63a19.11,19.11,0,0,1,4.17-1.1c-1.06,1.11-2.13,2.23-3.21,3.34Z"/><path class="cls-3" d="M258.27,242.37l1-2-1.54-1.63,2.44-1.57c.52,1.71,1,3.44,1.71,5.67l-3-.28Z"/><path class="cls-3" d="M282.24,181.17c-.51.14-1.12.53-1.63.42-2.68-.57-2.67-.61-4.62.4l-1.42-2.2.25-.22.69.61c1.15-1.61,2.29-3.18,3.43-4.76l.63.07.62,3.09-1.77-.93-.86,1.82Z"/><path class="cls-3" d="M240.63,167.23l-2.61.69,1.24-2.67-1.4-2.95.43-.41c.87.75,2.11,1.34,2.5,2.29S240.7,166.39,240.63,167.23Z"/><path class="cls-3" d="M226,181.89l1.78-.37a6.41,6.41,0,0,0,.06,2.31,8.84,8.84,0,0,0,1.75,1.94C227.26,185.4,226.27,184.05,226,181.89Z"/><path class="cls-3" d="M223.35,182.51l3.28,4.28-2.86-1-.75-3.21Z"/><path class="cls-3" d="M191.77,203.52l-1.33-.57-.52,3.26c-.4-.38-1.45-1.08-1.35-1.35a14.49,14.49,0,0,1,1.72-2.75c.48.49,1,1,1.44,1.46C191.73,203.58,191.77,203.52,191.77,203.52Z"/><path class="cls-3" d="M197.11,262.63a5,5,0,0,0,1-4.9l3.67,5.48Z"/><path class="cls-3" d="M183.7,246.33l-2.9-.8v-3.41Z"/><path class="cls-3" d="M183.45,261.94c.69.84,1.8,1.62,1.93,2.53s-.9,1.74-1.41,2.62l-.84-.09-.56-4.55Z"/><path class="cls-3" d="M218.78,236.6c.36.86,1.25,2.12,1,2.51-.6.81-1.82,1.16-2.78,1.71a10.53,10.53,0,0,1-.57-1.6,15.56,15.56,0,0,1-.11-2.11c1.09.92,2.09,1.24,2.54-.57Z"/><path class="cls-3" d="M246.3,218c2.37-1.59,4.15-1.29,6,1.28-1.21-.77-2.33-2.06-3.84-.44C248.29,219.08,247.05,218.33,246.3,218Z"/><path class="cls-3" d="M256.56,231.45c1,.49,2.08.7,2.4,1.32s.09,1.85.09,2.79l-1.1.09C257.47,234.19,257,232.73,256.56,231.45Z"/><path class="cls-3" d="M218.83,236.54c-.47-.31-1.37-.71-1.33-.9a34.05,34.05,0,0,1,1.23-3.71l1.49,2.35h-1.44v2.32Z"/><path class="cls-3" d="M168.93,167l-1.75-2,3.38-6,1.52.82L170.56,161l1.06,2C169.25,163.38,170,165.79,168.93,167Z"/><path class="cls-3" d="M178.22,115.08l1.71-1.47-3.37,7.51-1.09-.37a17.66,17.66,0,0,1,.87-2.84,25.58,25.58,0,0,1,1.95-2.92Z"/><path class="cls-3" d="M195.33,101.4l.15,1a21.53,21.53,0,0,1-2.68-.21,2.56,2.56,0,0,1-1.32-.8,1.27,1.27,0,0,1,.22-1,3.32,3.32,0,0,1,1.53.14c.74.25,1.44.63,2.17,1Z"/><path class="cls-3" d="M289.06,336.73c-1.73-1.41-4.57-1.77-4.9-4.83C287.36,332.1,287,335.65,289.06,336.73Z"/><path class="cls-3" d="M286.14,249.9,280.09,245a7.17,7.17,0,0,1,1.6-.52c.29,0,.64.41.86.34,4.05-1.3,3.5,1.45,3.42,3.81,0,.22.22.43.28.65S286.21,249.53,286.14,249.9Z"/><path class="cls-3" d="M288,245.41c0-.37-.22-1-.09-1.06,1.33-.75,2.72-1.41,4-2l2.93,3.78-.11.3c-.59-.38-1.52-.63-1.72-1.15-.88-2.34-2.07-1.76-3.47-.63,1.19,2.14,1.19,2.14-.25,2.21Z"/><path class="cls-3" d="M284,230c1.75.36,1.16,3.25,3.77,2v4Z"/><path class="cls-3" d="M288,245.41l1.25,1.42c.57,1,1.13,1.95,1.7,2.93l-.46.31L286.23,245Z"/><path class="cls-3" d="M300,406.35c-1.16,1.58-3.23,2.9-.41,5.46h-2.92C297.36,409.47,297.6,407.26,300,406.35Z"/><path class="cls-3" d="M311.46,379.9c-.36-.24-.85-.41-1-.74s.07-1.1-.17-1.28c-2.18-1.65-.16-2.58.76-3.73V377l2-.7c-.6,1.38-1.12,2.55-1.63,3.72Z"/></g></g></svg>