<svg xmlns="http://www.w3.org/2000/svg" viewBox="0 0 413.17 423.03"><defs><style>.cls-1{fill:#7a2235;}.cls-2{fill:#473728;}</style></defs><g id="Capa_2" data-name="Capa 2"><g id="Capa_1-2" data-name="Capa 1"><path class="cls-1" d="M127.1,324.33c-5.78-9.49-15.15-12.48-23.9-7.12-5.45,3.34-10.74,4.37-16.88,2.27a13.26,13.26,0,0,0-7.28.09C72.55,321.32,68.28,325.79,66,332c-3.33,8.91-2.42,17.59,1.73,26.07,6.52,13.31,20.15,21.12,34.06,19.41,17.24-2.12,30.11-17.28,30.15-35.52A32.91,32.91,0,0,0,127.1,324.33Zm-45.23,7.34a23.46,23.46,0,0,0-5.26,14.16,33.19,33.19,0,0,0,3.66,15.28c.14.28.28.56.4.85,0,0-.08.13-.12.2-6.78-6.43-12.07-21-6.35-30.81,1.22-2.09,2.93-3.69,5.45-3.82,1,0,2.66.33,2.92,1A3.87,3.87,0,0,1,81.87,331.67Zm15.53-5.51-8.75-.55,0-.45h8.79C97.45,325.49,97.43,325.82,97.4,326.16Z"/><path class="cls-1" d="M60.9,246c6.07.17,11-2.19,15.69-4.89,3.48-2,6.76-4.3,10.24-6.28,9-5.11,18.78-3.54,25.73,4.09a9.6,9.6,0,0,1,3,6.2c-9.55-5.74-22.7-3.22-32.34,2.63l10.48-2.62a27.87,27.87,0,0,1,17.22,1,9.37,9.37,0,0,1,3.08,1.79,2.26,2.26,0,0,1,.31,2.17C106.51,260,93.93,267.19,80,261.92c-7.55-2.86-14-7.29-18.41-14.33A16.17,16.17,0,0,1,60.9,246Z"/><path class="cls-1" d="M92.88,309.38a81.07,81.07,0,0,1,6.31-31.31,94,94,0,0,1,13.16-22.52,169.16,169.16,0,0,1,11.7-12.71c2-2,3.65-1.71,5.38.58,2.46,3.24,2.19,5.55-1.46,7.86-11.94,7.55-19.7,18.39-24.76,31.3a79.69,79.69,0,0,0-5.13,28.93c0,2.26.33,4.67-2.19,6.17-2,1.16-2.75,1-3-1.34S92.88,311.7,92.88,309.38Z"/><path class="cls-2" d="M362.8,255.21c6.9,3.77,6.94,10.17,7,16.6,0,5.28.1,10.55.34,15.82a27.34,27.34,0,0,0,1.1,5.84c.62,2.21,0,3.29-2.21,3.32-2.8,0-5.59.07-8.39.06-2.14,0-3.78-.72-4-3.15-.42-4.84-.95-9.67-1.19-14.52-.22-4.46,0-8.94-.2-13.4a4.77,4.77,0,0,0-6.25-4.17,2.26,2.26,0,0,0-1,1.77c0,6.47.07,12.94.17,19.4.07,3.74.32,7.47.33,11.2a2.59,2.59,0,0,1-3,2.91c-3-.05-6.08,0-9.12.09-2.09,0-2.91-1.13-2.79-3,.16-2.6.59-5.18.72-7.78.09-1.66-.19-3.34-.24-5-.15-5.26-.29-10.51-.38-15.77-.08-4.51-.09-9-.12-13.54,0-2.1-.06-4.21.06-6.3a17.33,17.33,0,0,1,.77-3.18c-1.25-1.09-.95-2.54.23-4.12l-1-.71c.23-1.72.43-3.25.67-5l1.72,1.05,1-2.05c-1,.09-2,.43-2.63.14a2.43,2.43,0,0,1-1-1.9c0-2.54.23-5.07.32-7.61,0-1.32-.14-2.66-.06-4,.11-1.81,1.44-2.51,3-2.57,4-.16,8.08-.23,12.12-.23,2.86,0,5.83-.29,8.55.36,6.89,1.64,11,6.63,12,13.26.81,5.35.18,11-.07,16.42C369,249.72,366.05,252.47,362.8,255.21Zm-15-6c1.16,0,2,.07,2.73,0,3.12-.33,4.61-1.37,4.78-3.7a110,110,0,0,0,.38-11.19c-.1-3.68-2.78-6.13-5.87-5.89-1.67.13-2.34.84-2.15,2.64a62.34,62.34,0,0,1,.13,6.56C347.85,241.44,347.84,245.29,347.84,249.19Z"/><path class="cls-2" d="M292.25,242.66c-.35-.6-1-1.19-1-1.8-.12-2,0-4,0-6,0-3.26,0-6.52-.08-9.78,0-2.32-.21-4.63-.15-6.94.05-2.1,1.71-2.57,3.36-2.63,5.53-.17,11.07-.34,16.61-.32,6.58,0,11.92,4.19,14.47,10.31,2.89,6.95,1.82,14,.7,20.93-.5,3.06-3,5.8-4.78,9,3.69,2.74,5.11,7.25,5.35,12.15.22,4.45-.17,8.94.13,13.38s1.22,8.63,1.65,13c.08.79-.83,2.37-1.36,2.41a80,80,0,0,1-10.5.15c-2-.13-2.54-2.11-2.72-3.78-.47-4.37-.88-8.76-1.11-13.15s-.23-8.79-.28-13.19c0-2.34-1.33-3.64-3.34-4.48-3-1.25-4.06-.56-4,2.6.12,7.26.29,14.52.36,21.79,0,2.71-.22,5.43-.24,8.14a2,2,0,0,1-2.17,2.31c-3.26.08-6.51.07-9.77,0a2.1,2.1,0,0,1-2.2-2.53c.18-2.84.57-5.67.69-8.5.06-1.56-.33-3.13-.36-4.7-.15-7.5-.22-15-.34-22.5-.06-3.91-.26-7.82-.21-11.73a24.31,24.31,0,0,1,.82-4.4Zm12.68-4h.1c0,2.79,0,5.59,0,8.38,0,.68.31,1.73.78,2,2.45,1.17,6.38-.78,6.56-3.44a111.42,111.42,0,0,0,.14-13.05c-.15-2.9-4.14-5.07-6.73-3.94a1.93,1.93,0,0,0-.84,1.5C304.89,233,304.93,235.82,304.93,238.68Z"/><path class="cls-2" d="M214.67,284.17c0-9.82,0-19.64,0-29.46,0-3.64.3-7.29.23-10.94-.12-6.67-.44-13.34-.61-20a52.62,52.62,0,0,1,.26-6.15c.14-1.55.7-2.58,2.73-2.46,2.88.16,5.79-.13,8.69-.22,2.12-.07,2.19,1.48,2.21,2.93q.13,8.28.16,16.54c0,3.67-.05,7.34-.06,11,0,.63,0,1.79.16,1.83A34.26,34.26,0,0,0,235,248.3c.52,0,1.58-1.59,1.58-2.44,0-9.33-.28-18.66-.43-28,0-1.28.28-2.37,2-2.42,3.11-.08,6.21-.33,9.31-.33,1.94,0,2.94.86,2.89,3.14-.14,6.79-.1,13.58,0,20.37s.52,13.86.64,20.79c.1,5.55-.07,11.11-.05,16.66,0,4.51.17,9,.2,13.51a38.08,38.08,0,0,1-.31,5c-.28,2.23-2.15,2.09-3.69,2.14-2.3.08-4.6-.08-6.9-.07-2.58,0-3.31-.57-3.36-3.19-.08-4.07,0-8.15-.06-12.23,0-5.81-.1-11.63-.1-17.44,0-1.92-.71-2.86-2.73-2.38a3.77,3.77,0,0,1-.48,0c-4.71.27-4.79.27-4.79,5.06,0,8.58.08,17.17.18,25.75.05,4-.85,4.82-4.74,4.52a46.85,46.85,0,0,0-5.43,0c-2.81.09-4.06-1-4.08-3.73,0-3,0-5.92,0-8.88Z"/><path class="cls-2" d="M208.94,274c.18,6-.17,11.8-3.93,16.92a14.21,14.21,0,0,1-8.66,5.59,20.37,20.37,0,0,1-13.6-1.3c-5.57-2.73-8.43-7.67-9-13.56-.74-7.25-.86-14.57-1.05-21.86-.19-7.06-.38-14.14-.09-21.19a54,54,0,0,1,2.07-13.83c2.12-6.74,7.43-10.29,14.42-10.52a27,27,0,0,1,10.48,1.66c5.54,2.17,8.21,7,8.86,12.77.42,3.81.37,7.67.41,11.52,0,2.73-.85,3.4-3.48,3.25s-5.19-.19-7.79-.29c-1.62-.07-2.07-1-2.16-2.54-.23-3.62-.79-7.22-.89-10.83a2.13,2.13,0,0,0-2.07-2.37c-1.08-.12-2.67-.07-3.23.59a7.71,7.71,0,0,0-1.79,4.23c-.19,3.24.16,6.51.16,9.77,0,5.81-.16,11.61-.12,17.42,0,6.72.18,13.45.36,20.17a4.33,4.33,0,0,0,4.18,3.88c2.29,0,3.65-1.37,3.76-4.11s-.09-5.28-.16-7.91a16.41,16.41,0,0,1-.09-2.88c.24-1.54,1-2.62,2.84-2.58,2.62.07,5.25,0,7.88,0,2-.07,2.73.93,2.72,2.77S208.94,272.23,208.94,274Z"/><path class="cls-2" d="M269.85,248.38c3.14,0,5.53.05,7.91,0a2.47,2.47,0,0,1,2.87,2.73q.12,4,.06,7.92c0,2-1.07,2.88-3.11,2.69a31.58,31.58,0,0,0-5.9-.24,2.78,2.78,0,0,0-1.72,2c-.13,6.38-.08,12.76-.08,19.49h9A19.11,19.11,0,0,0,281,283c4-.42,4.46.17,4.62,4.59.09,2.24.13,4.49.08,6.73a2.4,2.4,0,0,1-2.65,2.68q-12.1,0-24.22-.06c-1.66,0-2.45-.72-2.45-2.49,0-6.22-.18-12.45-.17-18.67s.23-12.21.22-18.32c0-8-.17-16.05-.25-24.08,0-5-.1-10.08-.12-15.12,0-2.26,1.05-3.14,3.28-3.12,7,0,14,.09,20.94,0,4.55,0,5.2.59,4.85,5-.16,2.06,0,4.14,0,6.2,0,1.76-.9,2.55-2.74,2.49-3.46-.12-6.92-.17-10.37,0-.76,0-2.09,1-2.11,1.59C269.79,236.34,269.85,242.28,269.85,248.38Z"/><path class="cls-2" d="M394.6,238.12,398.08,223c.23-1,.43-2,.71-3,1.31-4.63,2.52-5.4,7.29-4.82a15.46,15.46,0,0,0,3.78.1c2.53-.33,3.76.77,3.15,3.17-1.17,4.63-2.49,9.23-3.67,13.85-2.64,10.29-5.55,20.52-7.68,30.91-.92,4.5-.17,9.35-.19,14,0,5.51-.07,11,0,16.52,0,2.18-.79,3.31-3.1,3.21-3.12-.14-6.23-.18-9.35-.26-1.69,0-2.44-.9-2.37-2.6.26-6.54.52-13.07.73-19.6.2-5.75-.06-11.39-1.84-17-1.91-6-3.29-12.17-4.89-18.27q-2.67-10.18-5.32-20.39c-.73-2.82-.59-3.05,2.23-3.24s5.74-.38,8.62-.42c1.53,0,2.42.94,2.79,2.48,1.36,5.63,2.77,11.25,4.19,16.86.31,1.23.71,2.43,1.06,3.64Z"/><path class="cls-2" d="M346.21,335.91c0,6.46,0,12.93,0,19.39,0,1.66-.59,2.27-2.25,2.26-6.59-.06-6.06.84-6-5.75,0-11,0-21.92,0-32.88V306.48c2,0,4,.14,5.94,0s2.54.68,3.06,2.23c2.13,6.38,4.33,12.73,6.52,19.09.2.6.47,1.17.72,1.75l.62,0c0-4.06,0-8.12,0-12.18,0-3.1-.26-6.2-.22-9.29,0-.54.84-1.21,1.44-1.56.41-.25,1.09-.05,1.65-.06,5.5-.09,5.43-.1,5.39,5.56q-.09,15.76,0,31.52c0,4,.18,7.95.27,11.93,0,1.3-.48,2.17-1.93,2.19h-.48c-7.65-.13-6,1.18-8.53-6.08-1.79-5.2-3.51-10.43-5.26-15.64Z"/><path class="cls-2" d="M290.36,357.56c-.36-5.66-.71-11.06-1-16.45-.05-.8,0-1.61-.05-2.41-.2-2.85-1.35-3.67-4.49-3.06,0,3.78,0,7.6,0,11.42q0,4.32.15,8.64c0,1.3-.46,1.92-1.82,1.89-2.32,0-4.64,0-7.33,0,0-2.26,0-4.36,0-6.46-.06-6.71-.2-13.41-.2-20.11,0-4.95.12-9.91.27-14.86a40.41,40.41,0,0,1,.57-4.16c-1.39-1.25-.65-3.28-.65-5.63,4.9,0,9.63-.39,14.25.11,4.88.53,8.71,6,8.65,11.26,0,1.52-.06,3-.12,4.55-.14,3.47-.82,6.71-4.23,9.05,4.09,2.24,4.12,6,4.29,9.81.22,4.87.65,9.72,1,14.58.09,1.12-.05,1.88-1.45,1.86C295.86,357.53,293.54,357.56,290.36,357.56Zm-5.8-30.19c2.57.19,4.46,0,4.68-2.44a49.68,49.68,0,0,0,0-7.42,3,3,0,0,0-2.93-3c-.53-.05-1.63.73-1.65,1.16C284.5,319.56,284.56,323.43,284.56,327.37Z"/><path class="cls-2" d="M209.66,344.53c-.93,3.56-1.91,7.1-2.75,10.67-.41,1.74-1.13,2.67-3.09,2.44a23.16,23.16,0,0,0-4.56-.08c-1.89.13-2.52-.57-2-2.39,1.38-4.66,2.74-9.33,4.12-14a15.81,15.81,0,0,1,.73-2c2.31-5.08,2-10,0-15.19-2-5-3.17-10.24-4.68-15.38a18.22,18.22,0,0,1-.29-2.1c2.95,0,5.71-.12,8.45.1.58.05,1.31,1.28,1.54,2.08,1,3.37,1.8,6.79,3.18,10.28.94-3.28,2-6.52,2.75-9.85.47-2.22,1.31-3.12,3.66-2.75a43.09,43.09,0,0,0,6,.05c-.88,3.41-1.64,6.54-2.5,9.65-1.28,4.62-2.83,9.17-3.87,13.84a11.83,11.83,0,0,0,.56,5.62c1.86,6.37,3.92,12.68,5.91,19,.81,2.57.44,3.06-2.29,3.08-6.5,0-6.49,0-8.3-6.22-.67-2.33-1.39-4.65-2.09-7Z"/><path class="cls-2" d="M367,335c0-6.08-.07-12.16,0-18.24a12.2,12.2,0,0,1,5.27-9.84c6.13-4.48,16.39.33,17,7.87.21,2.39,0,4.81.08,7.21,0,1.37-.6,1.92-1.86,1.88a31,31,0,0,1-5-.37c-.54-.11-1.17-1.14-1.29-1.83-.31-1.8-.19-3.69-.6-5.46-.2-.87-1.11-2.1-1.85-2.22a2.29,2.29,0,0,0-2.7,2.37c-.08,1.67-.05,3.35,0,5q.1,11.53.22,23.06c0,.72-.29,1.63.05,2.12.63.93,1.52,2.09,2.48,2.3,1.44.3,2.31-.93,2.39-2.38.1-1.76,0-3.52.07-5.29,0-.48,0-1,0-1.44a1.75,1.75,0,0,1,2.46-1.78c1.94.82,5.38-1.47,5.8,2a35,35,0,0,1-.61,9.77c-.8,4.68-3.56,7.13-8.17,7.9s-9.31-.85-11.2-4.71a31.33,31.33,0,0,1-2.63-9.1c-.44-2.9-.1-5.92-.1-8.88Z"/><path class="cls-2" d="M235.81,336.43c0,6.21,0,12.11,0,18,0,2.78-.38,3.22-3.15,3.15-5.67-.14-5.79-.14-5.87-5.86-.16-9.87-.13-19.76-.24-29.64,0-2.72-.48-5.38.73-8.09.5-1.13-.46-2.85-.51-4.31a15.34,15.34,0,0,1,.33-2.9c2,0,3.46.05,4.87,0,4.44-.16,9.11-1.44,13.11,1.34,4.3,3,5.09,7.8,5,12.59a32.91,32.91,0,0,1-1.43,9.62c-1.36,4.22-4.58,6.4-9.21,6.1C238.4,336.37,237.3,336.43,235.81,336.43Zm-.46-15.19h.08c.09,1.67.21,3.34.25,5,0,1.89,1.12,2.22,2.53,1.49.86-.44,2.09-1.32,2.12-2a51.67,51.67,0,0,0-.45-9.39c-.09-.59-2.16-1.07-3.36-1.19-.31,0-1,1.45-1.12,2.3A25.46,25.46,0,0,0,235.35,321.24Zm-7.61,5.15c1.56-2.28,1.53-4,0-5.37Z"/><path class="cls-2" d="M324.43,335.35v13.47c2.69,0,5.22.11,7.73,0,1.69-.1,2.3.51,2.37,2.15.3,6.53.33,6.54-6.23,6.61-3.21,0-6.43-.12-9.62.09-2,.12-2.61-.6-2.59-2.4,0-3.92.05-7.83,0-11.75-.09-8.17-.23-16.33-.31-24.5,0-3.52,0-7,0-10.56,0-1.49.6-2.18,2.14-2.18,4.56,0,9.12-.08,13.68-.14,1.61,0,2.52.49,2.6,2.32.3,6.27.32,6.3-5.86,6.27a5.66,5.66,0,0,0-2.14,0c-.68.32-1.6,1.06-1.64,1.66-.18,2.79,0,5.59-.12,8.39-.05,1.52.47,2.26,2.05,2.14.47,0,.95.05,1.42,0,3.26-.14,3.67.25,3.48,3.45-.27,4.83-.27,4.83-5.18,5Z"/><path class="cls-2" d="M262.18,326.71a20.11,20.11,0,0,0,3.9.27c2.24-.32,3.17.5,2.93,2.72a7.7,7.7,0,0,0,0,1c.21,5.71-.82,4.92-4.92,4.65-1.31-.08-2,.34-2,1.71,0,3.82,0,7.64,0,11.78,2.73,0,5.09.07,7.45,0,1.84-.08,2.75.54,2.53,2.49a16,16,0,0,0,0,2.4c.19,3.91.19,3.86-3.8,3.84-3.76,0-7.52.11-11.28.13-2.87,0-3.27-.36-3.27-3.11q-.08-21.48-.09-43c0-5.18,0-5.19,5.46-5.31,3.29-.07,6.57-.14,9.86-.14,2.57,0,3.11.64,2.95,3.17-.35,5.43-.35,5.41-5.89,5.46a38.16,38.16,0,0,0-3.83.39Z"/><path class="cls-2" d="M402,348.86c2.92,0,5.46-.09,8,.05.69,0,1.85.71,1.91,1.19a25.54,25.54,0,0,1,.06,6c-.06.58-1.26,1.45-1.95,1.47-4.65.11-9.31-.06-14,0-1.81,0-2.41-.6-2.4-2.33,0-6.73,0-13.45,0-20.18,0-8.73,0-17.46-.14-26.19,0-1.86.48-2.61,2.43-2.58,4.56.05,9.13-.08,13.69-.1,1.52,0,2.27.59,2.2,2.36-.21,6.18-.15,6.18-6.31,6.13-3.65,0-3.61,0-3.52,3.7.07,2.77,0,5.54,0,8.6,2,0,3.55-.08,5,0,.55,0,1.52.49,1.53.79a60.9,60.9,0,0,1,0,6.89c0,.26-1,.61-1.6.65a24.72,24.72,0,0,0-3.34,0,2.33,2.33,0,0,0-1.51,1.56C401.93,340.87,402,344.78,402,348.86Z"/><path class="cls-2" d="M184,348.73c2.68,0,4.9.11,7.11,0,1.94-.12,3.14.28,2.91,2.55a16.5,16.5,0,0,0,0,2.63c.22,3.35-.21,3.78-3.49,3.74-4.16-.06-8.33-.11-12.49,0-1.8.05-2.4-.54-2.38-2.32.06-7.28,0-14.57,0-21.86,0-8.23,0-16.47-.14-24.7,0-2.15.73-2.63,2.6-2.6,4.4.07,8.81.15,13.2,0,2-.07,2.54.85,2.54,2.55,0,.08,0,.16,0,.24-.25,5.8-.25,5.78-6.17,5.85a33.28,33.28,0,0,0-3.36.36V327a38.74,38.74,0,0,0,4.62,0c1.6-.21,2,.55,2,1.89,0,.48,0,1,0,1.44,0,4.78,0,4.82-4.7,5-1.54.05-2.33.5-2.3,2.22C184,341.21,184,345,184,348.73Z"/><path class="cls-2" d="M303,336.3c0-8.86,0-17.72,0-26.58,0-3,.53-3.62,3.27-3.53.31,0,.61.19.92.22,1.61.17,3.87-.26,4.68.63s.49,3.14.48,4.79c-.05,6.16-.22,12.32-.27,18.48q-.07,12.1,0,24.23c0,2.58-.37,3-3,3-1.37,0-2.73,0-4.09,0-1.67.06-2.3-.82-2.3-2.36q0-9.47,0-18.94Z"/><path class="cls-2" d="M190.93,398.63a19.77,19.77,0,0,1-4.67-.11c-.64-.17-1.24-1.51-1.38-2.39-.28-1.82-.79-2.82-3-2.75s-1.82,1.57-2,2.81c-.38,2.49-2.15,3.51-4.46,2.37a2,2,0,0,1-.7-1.69c1.26-9.48,2.58-18.95,3.9-28.42.18-1.31.88-1.81,2.29-1.82,4.7,0,4.63-.07,5.39,4.59,1,6.31,2.17,12.6,3.25,18.9C190,392.77,190.42,395.44,190.93,398.63Zm-8.5-18.51-.38.12c-.31,2.64-.61,5.29-.94,8.12l2.64-.17Z"/><path class="cls-2" d="M221.12,374.67c0-2.18,0-4.08,0-6-.09-2.79,2.07-1.77,3.41-2,1.5-.28,1.77.51,1.76,2-.07,8.78,0,17.56,0,26.34,0,.16,0,.32,0,.48.11,3.35-1.23,4.21-4.56,3a2,2,0,0,0-1.28,0c-3.32,1.29-6.15,0-6.62-3.52a105.2,105.2,0,0,1-.49-11.24,33.23,33.23,0,0,1,.26-4.78C214.19,374.47,216.39,373.15,221.12,374.67ZM221,386.36h.18a53.67,53.67,0,0,0-.06-5.53c-.08-.77-.81-1.47-1.24-2.2-.45.72-1.28,1.43-1.3,2.16-.09,3.76,0,7.53.1,11.29,0,.71.71,1.39,1.09,2.08.41-.68,1.11-1.33,1.17-2C221.06,390.21,221,388.28,221,386.36Z"/><path class="cls-2" d="M319,382.16c0-3.12-.17-6.25,0-9.36.29-4.31,2.88-6.71,6.92-6.78,4.39-.08,6.73,2,7.28,6.56a19.42,19.42,0,0,1,0,2.16c0,3.26,0,3.16-3.25,3.12-1.8,0-2.49-.65-2.27-2.42a4.71,4.71,0,0,0-.08-2.37,2.59,2.59,0,0,0-1.7-1.39c-.42-.06-1.41.87-1.41,1.36,0,5.92,0,11.85.18,17.77,0,.82,1,2.21,1.68,2.3,1.63.21,1.38-1.33,1.43-2.42,0-.4,0-.8,0-1.2-.14-2.86.06-3,2.81-3.11,2.42-.12,2.9,1.08,2.62,3.12-.12.87-.09,1.76-.15,2.64-.24,3.82-2.54,6.41-5.93,6.7-4,.34-6.88-1.69-7.71-5.67a37.18,37.18,0,0,1-.59-5.48c-.09-1.84,0-3.69,0-5.53Z"/><path class="cls-2" d="M343.66,374.45c4.77-1.22,7.13.25,7.37,4.91.31,5.84.3,11.7.28,17.55,0,.58-.94,1.48-1.6,1.66a15.07,15.07,0,0,1-3.7.08V382.32a7.35,7.35,0,0,0,0-2.15c-.16-.52-.79-.91-1.21-1.35-.43.44-1.22.86-1.24,1.32-.15,3.42-.17,6.85-.19,10.28,0,2.24,0,4.49.08,6.72.08,1.73-1,1.82-2.19,1.7s-3,.65-3.07-1.59c-.07-2.64,0-5.28-.05-7.92-.05-6.73,0-13.47-.23-20.19-.11-3,1.8-2.38,3.43-2.58,1.91-.23,2,1,2,2.39C343.35,370.77,343.54,372.59,343.66,374.45Z"/><path class="cls-2" d="M200,375.22l1.76-.76c3.2-1.34,5.92.14,6.16,3.65.3,4.39.26,8.8.35,13.2,0,1.76,0,3.52,0,5.28,0,1.21.09,2.47-1.61,2.22-1.5-.23-3.87.86-3.89-2.11s0-6.24,0-9.36c0-2.09.17-4.18,0-6.25a6.71,6.71,0,0,0-1.12-2.3c-.53.76-1.51,1.5-1.53,2.27-.12,4.88,0,9.77,0,14.66,0,3-1.45,4.08-4.35,3a2.1,2.1,0,0,1-1-1.6c-.13-6.87-.21-13.75-.18-20.62a2.71,2.71,0,0,1,1.32-2.13,13.36,13.36,0,0,1,3.77.14Z"/><path class="cls-2" d="M291,386.91a61.62,61.62,0,0,1-.92,8c-.65,2.74-2.66,3.92-5.58,4s-5.44-1.24-6.25-3.87a19.31,19.31,0,0,1-.58-5.17c-.06-3.27-.06-6.55.07-9.83s2.09-5.56,5.13-6c3.41-.49,6.46,1.15,7.25,4.47C290.77,381.15,290.72,384,291,386.91Zm-5.55-.34h.07c0-2.07.12-4.14-.07-6.19-.06-.64-.94-1.21-1.45-1.8-.36.61-1,1.21-1,1.82q-.09,5.94.1,11.89c0,.6.71,1.18,1.09,1.77.42-.58,1.17-1.14,1.22-1.76C285.55,390.4,285.45,388.48,285.45,386.57Z"/><path class="cls-2" d="M236.93,387.44c0,1.81-.1,3.46,0,5.08.05.55.72,1.05,1.11,1.57.46-.46,1.15-.86,1.33-1.42a10.18,10.18,0,0,0,.2-2.53c.18-.15.31-.34.42-.33,1.59.18,3.66-1.16,4.66,1s-1,6.5-3.14,7.39c-2.38,1-4.95,1.35-7.09-.35s-2.86-4.14-2.72-7-.39-5.86-.16-8.75a13.35,13.35,0,0,1,1.79-5.8c1.51-2.44,4.16-2.81,6.84-2.16s3.83,2.59,4.24,5a47.66,47.66,0,0,1,.4,6.22c.07,1.46-.53,2.2-2.14,2.09S239.21,387.44,236.93,387.44Zm3.41-5.8c-.84-1.26-1.44-2.14-2-3a10,10,0,0,0-1.35,2.67c-.16,1-.42,2.57,1.34,2.39C239,383.61,239.49,382.53,240.34,381.64Z"/><path class="cls-2" d="M377.56,385.82c0-1.93-.12-3.86,0-5.77a6.39,6.39,0,0,1,6.23-6.12c3.9,0,6.29,2.26,6.61,6.17,0,.16,0,.32,0,.48,0,2.07.79,4.74-.21,6-.84,1.1-3.74.7-5.74.8-1.33.07-1.91.57-1.82,1.89a13.42,13.42,0,0,0,.15,2.85c.18.64.9,1.12,1.38,1.67.44-.57,1.32-1.2,1.25-1.7-.49-3.36,2-2.48,3.57-2.47,2.36,0,1.68,1.92,1.53,3.22-.44,4.09-2.21,5.87-5.82,6.06s-6-1.39-6.81-5.26a72.91,72.91,0,0,1-.72-7.85Zm6.55-7.2c-1.44,1.37-2.07,2.81-1.13,4.51a2.53,2.53,0,0,0,1.52.84c.24.06.88-.34.88-.53C385.38,381.81,386.25,380,384.11,378.62Z"/><path class="cls-2" d="M262.5,392c0,2.4-.2,4.76-2.61,6a7.73,7.73,0,0,1-7.81-.33c-1.61-.95-3.28-5.11-2.39-6.59.41-.7,1.86-1.06,2.82-1,.68,0,1.42.87,2,1.5.24.28-.08,1,.15,1.36a2.12,2.12,0,0,0,1.37,1c.34,0,1.06-.94,1-1.25a10.69,10.69,0,0,0-1.73-3.63c-1.12-1.32-2.78-2.18-3.95-3.47a7.85,7.85,0,0,1-.57-9,7.21,7.21,0,0,1,8-2.34c2.61.82,4.74,4.87,3.41,7.22-.42.75-2.3.81-3.54.9-.35,0-.83-.93-1.16-1.49a18.69,18.69,0,0,0-1-1.95c-.08-.11-1.26.25-1.32.53-.18.78-.37,1.92.05,2.41a20.78,20.78,0,0,0,3.62,3.1C261.49,387,262.46,388.71,262.5,392Z"/><path class="cls-2" d="M302.28,371.33c-.17.86-.31,1.56-.48,2.46,1.75-.08,2.87.34,2.93,2.4s-.75,2.94-2.75,3c0,5.95-.09,11.77,0,17.59.05,1.69-.53,2.22-2,2.07s-3.35.69-3.27-2.13c.16-5,.08-10.06.05-15.09,0-1.23.46-2.7-1.55-3.2-.39-.09-.65-1.91-.45-2.82s1.07-1.41,2.07-2.62c.66-6,1.9-7.15,7.26-6.29C305.12,370.15,304.73,371.2,302.28,371.33Z"/><path class="cls-2" d="M367.24,398.45V366.61h5c.1.95.26,1.72.26,2.49,0,9.27-.11,18.54-.12,27.81,0,1.49-.62,2-2,1.85C369.44,398.66,368.57,398.58,367.24,398.45Z"/><path class="cls-2" d="M361.56,374.59v23.68c-.26.19-.32.28-.38.28-4.92.53-5,.43-4.89-4.46.08-5.27.15-10.54,0-15.81C356.26,374.08,355.63,373.86,361.56,374.59Z"/><path class="cls-2" d="M361.57,366.49c.11,2.12.19,3.68.27,5.4h-5.33c.07-1.6-.42-3.63.38-4.59S359.74,366.74,361.57,366.49Z"/><path class="cls-2" d="M121.46,87.23c2.58,1.84,3.54,4.52,4.25,7.5,2.59,10.92,5,21.84,4.79,33.51l-17.38-15.19c-2.91,2.29-5.52,4.4-8.19,6.43-2.4,1.82-3.44,1.76-5.69-.22-6.06-5.37-12.1-10.75-18.4-16.35-.9,1.06-1.83,2-2.63,3.08-4.42,5.9-8.87,11.78-13.2,17.76-1.26,1.74-2.41,2.17-4.06.66a8.64,8.64,0,0,0-1.17-.84c-3.14-1.94-3-1.83-5.6.82-3.75,3.89-7.66,7.63-11.5,11.43l-.67-.28c.32-3.13.37-6.32,1-9.39,1.37-6.74,2.88-13.47,4.66-20.11a8.58,8.58,0,0,1,3.33-4.4,29.46,29.46,0,0,0,7.64-8.18c1.87-2.76,4-5.37,6-8l.82.07.88,4.59,1.54-.68,1.06,5.41c5.49-9.53,9.73-19.16,16.92-27.91a18.17,18.17,0,0,1,.67,3.3,38.71,38.71,0,0,1-.4,5.27c-.45,3-.51,5.59,2.88,7.25,1,.48,1.41,2.55,1.62,4a45.13,45.13,0,0,1,.07,6.16c2.58-2.43,4.74-4.45,7-6.56l11.9,10.47c.44-2,.69-3.7,1.23-5.32s.49-3.68,3.19-2.93c-1.11-3-3.81-5.21-3.8-9.14l10.89,7.29Zm-69,28.34-3.33-2.13-.25.33,4.68,4.88c1.76-1.55-1.25-1.89-1.11-3.07,1.5.12,3,.29,4.5.29.17,0,.54-1,.44-1.46a10.4,10.4,0,0,0-.94-2.18L56,113.52C54.82,114.21,53.66,114.89,52.5,115.57ZM75.68,90.91c-3.24.41-3.49,2.24-.88,6.83L79.12,94a5.28,5.28,0,0,1-1.39,2.17,10.45,10.45,0,0,0-1.92,2.53,2.16,2.16,0,0,0,.55,2c.41.28,1.37-.22,2.09-.37l-.13-.61h-1.4l0-.71h5.64L82.38,96H80.17c.81-1,1.48-1.85,2.08-2.7a7.2,7.2,0,0,0,.6-1.39c-.56-.12-1.19-.44-1.69-.3a7.2,7.2,0,0,0-1.78,1.11l-4.74,3.15c-1-1.76-1.48-3.07.67-3.89.21-.08.21-.72.3-1.1l2.92-1.54-1.47-2.52C76,88.35,74.1,89.11,75.68,90.91Zm15.18,10.48c.34-1.08,1.29-2.74.92-3.12a47.67,47.67,0,0,0-5.46-4.39l-.53.45c1.37,1.65,2.74,3.31,4.16,5l-.46,2.11,1.42-.12,1,1.68-3.17.4,4.35,5.23,4.07-2.46c-3.4,6.12,2,7.34,4.49,10.49,2.59-1.79,5-3.57,7.53-5.19,1.3-.84,2.9-2.16,4.12-1.94,1.82.34,3.5,1.75,5.1,2.89,1.2.86,2,2.47,3.3,2.89a4.16,4.16,0,0,1,3,2.68,2,2,0,0,0,1.35.84c.25,0,.92-.71.89-.77-.73-1.1-1.54-2.15-2.32-3.22l-.2.11-1.86-2.79c.9-.37,2.49-.58,2.65-1.18a18.91,18.91,0,0,0,.13-4.72l-2.14,1.24c2-1.41,2.08-3.13,1.11-5.18l-1.17.87.46-5L121,99.33a8.78,8.78,0,0,1-.84-1.15,16.14,16.14,0,0,1-.71-1.58c-.22.5-.45,1-.82,1.8l-4-6.27c-1.12,3-1.64,5.77,1.88,7.34L113.56,99c.84,1.75,1.22,3.27,2.14,4.27,1.32,1.43.91,2.1-.16,2.67l-10.74-5.05.52,2.91-.35.14-2.53-3.18,6.06-.7a23.81,23.81,0,0,0-1.85-1.92c-.47-.39-1.24-.93-1.65-.79-1.61.59-1.54,0-1.69-1.39-.11-1.07-1.35-2.06-2.23-2.94-.1-.11-1.13.72-1.74,1.12l-.79-1.2L97,94.71l-.37-.34,1.95-3.81L97.83,90c-1.17,1.41-2.35,2.81-3.48,4.24-1.89,2.4.23,3.47,1.6,4.82.77.76,1.44,1.61,2.16,2.43-2,0-2.5-3.06-4.94-1.76l1.07,1.85Zm-17.77,4.55c.08,0,.19,0,.23,0s.06-.15.06-.22c-.06-1.71-.19-3.43-.17-5.14s-1.1-2.4-2.75-1.82a14,14,0,0,1-3,.43l.46,1.62-5.28.26,1.21,4.42C61,104,61,104,59.18,106.25l2.69,1.48-.55.14.61,3.1-1.16-.11a9.37,9.37,0,0,1-.27,2.75c-.94,2-.24,3.28.88,4,.74-1.14,1.18-2.58,2.14-3.12,1.32-.75,3-.81,4.56-1.2.2,0,.38-.29.52-.49,1.33-1.88,2.64-3.77,4.15-5.93-2.52-1.11-2.41-3-1.14-5.27ZM47.14,120.41l.42.33,1.71-1.29c-1.24,2.15.9,2.06,1.69,2.78,1.19-3.18.86-4.29-1.71-5.39Zm75.28-23.2.6-.41c-.49-1.21-1-2.42-1.6-3.94l-2,1.72-3.14-2.45-.54.8Z"/><path class="cls-2" d="M83.9,116.11c.41,2.37.94,4.72,1.21,7.11.24,2.11.75,3.83,2.89,4.86,1.75.84.9,2.44.74,3.83-.1.85-.22,2.26.21,2.51,5.7,3.31,8.16,9.32,12.06,14.12.26.31.5.63.77.93a4.43,4.43,0,0,0,.67.4c-.15-3.53-.3-6.89-.47-10.66l7.88,2.39.51-.91-7.12-7.62,8.31-7.51,5.56,11.78,2.12-2.38c3.29,2.44,6.66,4.85,9.9,7.42a2.92,2.92,0,0,1,.73,2.33c-.77,5.3-1.43,10.64-2.62,15.85-1.22,5.37-3,10.62-4.55,15.9a19,19,0,0,1-1.23,2.62,16.35,16.35,0,0,1-1.77-1.4c-4.12-4.25-8.26-8.49-12.28-12.84-1.32-1.43-2.59-.78-3.64-.11-5.85,3.73-5.48,2.79-10.08-2.27-3.54-3.89-7.15-7.72-11-11.87-2.71,4.06-5.11,7.71-7.56,11.34s-4.82,7.18-7.39,10.66a3,3,0,0,1-2.51.77,23.86,23.86,0,0,1-4.78-1.56c-1.78-.74-3-.22-4.14,1.22-3.45,4.3-7,8.51-10.89,13.21-.76-4.42-1.57-8.45-2.12-12.52-.75-5.39-1.25-10.82-2-16.23a6.16,6.16,0,0,1,1.89-5.58c4.2-4.3,8.2-8.79,12.29-13.2a2.5,2.5,0,0,1,1.6-.84c-.86,2.5-1.73,5-2.67,7.73l3.74-.36c-.52,2.43-1,4.58-1.45,6.73l.49.35a245.47,245.47,0,0,0,25.91-36.25ZM72,158.07c3-.88,3.63-1.9,2.52-4.49l1.32.54,4.44-6-2.78-1.94,5.82-.94c1,1.32,1.83,3.21,2.52,3.16,2.17-.14,2.07,1.85,3.1,2.68s1.31,2.14,2.18,3c1.13,1.13,2.65,1.88,3.74,3,1.79,1.91,3.37,4,5.11,6.14a8.23,8.23,0,0,0,2-1.34c1.87-2.29,4.62-2.54,6.67-.56,1.83,1.77,3.7,3.49,5.65,5.14.36.31,1.13.15,1.7.2l4.22,5.67a55.92,55.92,0,0,0,2.49-5.65c.63-2,.49-4.25,1.4-6s-.22-3.39.8-5.12,1.2-3.94,1.51-6,.28-3.93.39-5.73l-7.65-6a4.86,4.86,0,0,1-.61,1c-.6.56-1.27,1.06-1.91,1.58l-1-1.93-1.61-2.92h-3.79c1.92,2.64,3.87,5.41,5.94,8.09.34.44,1.23.47,1.87.7l0,.44-8.79-.62.11-.45-3.3.88v6.55l1.35-.54c-.73,1.5-1.4,2.89-2,4.19l-2,.57-9.65-12.64-1.64.94c.29-5.26-4.81-6.06-7.15-9.35a32.47,32.47,0,0,0,1-3.55c.09-.47-.37-1.06-.65-1.55s-.8-1.07-1-1.66c-.8-1.89-1.53-3.8-2.26-5.63-2.34,3.88-4.72,7.78-7,11.73-.25.42,0,1.14.08,1.71l-.36-.47L69,141.53l2.3,3.35,4,.59-4,2.78.93-2.15-4.27.2.19-2.4-2.82,2.4,2.18,1.17-.25.47-2.58-.34c-1.51,2.07-2.83,3.88-4.09,5.59l1.58-.29,1.43,4.39-2.3.2.71-2.34-.5-.24L60,156.21l-2-1.06-2.25,2.72c2.18,2,4.09,7.52,3.23,9l3.19,1.14c1.18-1.32,2.19-1.19,3.15,1l.27-3.51h3L67.88,164c3,0,2.84-2.66,4.14-3.82l-2-1.5H72.9v-.48ZM48.9,174.86c1.44.49,3.13-1.54,2.91-3.54a47.81,47.81,0,0,1,0-5.22h.55l.59,5.36,2-2.28c-1.28-2-2.92-4.22.83-5.51.19-.07.08-1.06.07-1.63a6.61,6.61,0,0,0-.35-1.18l-.86,2.53-1.07-1.26L52.35,164c-1,.13-2.1,0-2.35.36-1.11,1.8-2.36,1.92-4.29.89l1.15,3.15-1,.38c1.48,2.81,2.31,5.54,1.62,8.66l.86,0Zm1.9-24.19c1.91,2.62-.73,1.85-1.89,2.44.47.39.75.61,1,.84l.94.89c-2.55-.26-3.4.16-3.78,1.68l2.44-.92-.14,1.71a22.82,22.82,0,0,0,2.89-2.63,16.89,16.89,0,0,0,1.57-3.12Z"/><path class="cls-2" d="M12.81,169.6c-2.19,0-4.39.12-6.57,0-3.94-.28-4.47-.7-5-4.61s-.82-7.8-1.18-11.7a3.69,3.69,0,0,1,3.41-4.41c3-.46,6-.77,9.06-1,5.91-.44,11.83-.76,17.74-1.16,4.88-.32,6.7,1.08,7.28,6q1.54,13.24,2.89,26.52c.43,4.27-1,6.26-5.1,7.36-8.36,2.21-16.74,4.35-25.11,6.48A4,4,0,0,1,4.94,190c-.83-4.08-1.46-8.19-2.1-12.31-.33-2.13.73-3.42,2.73-4.2,2.49-1,4.91-2.16,7.36-3.26ZM33,170.92l2.27-1.85-.07-.62-3.16-.18-.3-1.19,2.78-.34-2.18-1.81c2.1-.8,2.26-2,1.09-3.26,0-2.43.66-4.68-.17-6-.94-1.47-3.22-2.06-5-3.08,1.14-1.94,2.49,1.24,4.39.23-.76-1-1.32-2.65-2.21-2.87-3.07-.74-4.8.36-6,3.29l2.56-.19c-1.11,2-1.75,4-3,5.38a11.65,11.65,0,0,0-3.35,7.74,23.8,23.8,0,0,1-.9,4.52c-.35,1.55-1.23,3.19-1,4.63.32,1.89-.8,2.59-1.59,3.84-1.72,2.72-4.53,5-4.34,8.66l.78.26,1-4.1,1.86.93-.95.76a2,2,0,0,0,1.86-.1c.88-.5,1.48-1.67,2.64-.07.6.84,1.86.67,2.22-.88.57-2.44,2.32-4.83-.39-7.26l4-.88.31.39-2,1.85,5.4,5.41.58-.63L28.36,182a4.38,4.38,0,0,1,2.37-.37,12.93,12.93,0,0,0,1.72-.24c-.62-2.55,1.59-1.41,2.41-2.13l1.45,2.27.75-.3c-.45-1.26-1.4-2.57-1.26-3.76a6.16,6.16,0,0,0-2.44-6.24,2.28,2.28,0,0,1-.3-.38Zm-19.66,9.83.66.12,2.22-4.18-1.7-1.39Z"/><path class="cls-2" d="M42.45,313.56c-2.47-.6-4.69-1.17-6.92-1.68a3.39,3.39,0,0,1-2.79-3.41c-.17-2.56-.45-5.11-.47-7.67,0-4.4,1.38-5.87,5.81-6.23,7.5-.61,15-1.17,22.5-1.75a5.27,5.27,0,0,1,1.19,0c2.17.39,3.71,1.54,4,3.83,1,7.14,1.88,14.28,2.81,21.43a4.29,4.29,0,0,1,0,.72c-.07,3.09-5,8.73-8.06,8.93-7,.45-13.52,2.95-20.32,4.26-4.11.8-5.69-.08-6.11-4.27-.24-2.39-.39-4.79-.6-7.18-.27-3,.35-4,3.27-4.89,1.67-.54,3.36-1,5-1.53C42,314.11,42.08,313.94,42.45,313.56Zm5.68-9.18L49.31,306c2.15.23,2.86,1.21,3,4.27l-3.24,5.57,1.33,1a10.6,10.6,0,0,0,1.46-2.55,26.87,26.87,0,0,0,.38-4.13l2,1.18-1.6,2.12c.7.36,1.41,1,2.08,1,.48,0,1.09-.94,1.29-1.57a25.39,25.39,0,0,0,.64-3.48c.44.44,1,1.33,1.3,1.26,1.5-.36,2.58-.36,2.66,1.57,0,.73.09,1.47.19,2.19.4,2.92-.09,3.8-2.93,4.53l3.91,2.27c-1.51-2.42-1.47-2.92.49-5.33v3.64c.43-.07,1.06-.06,1.09-.2a14.83,14.83,0,0,0,.78-4,77.41,77.41,0,0,0-.72-7.88c0-.31-.78-.52-1.2-.78,1.32-1.8.49-6.43-1.37-6.91l1.62-2.51-5.85-.49,1.64,2.74c-4.17-3.47-4.7-3.39-6.33.54-.61-.8-1.19-1.58-1.74-2.32l-3.1,3.22-.37-.32,1.15-3.35-4.17,1.57c1.51,1,1.18,1.86-.13,2.38l1.17,3.12,1-1,.74-.78Zm-.39,5.36-1.42-5.2C45.71,306.64,44.78,308.86,47.74,309.74Z"/><path class="cls-2" d="M25.76,220.65c-3.28.22-6.05.41-8.83.58a3.83,3.83,0,0,1-4.2-2.88c-1.36-4.18-2.7-8.38-3.92-12.6a4,4,0,0,1,2.76-5.14c3.08-1.07,6.22-2,9.38-2.76,5.91-1.44,11.83-2.82,17.78-4,3.11-.63,4.37.21,5.16,3.22a161.92,161.92,0,0,0,10.22,29.19,14.45,14.45,0,0,1,.82,2.51c.75,2.7.25,4.27-2.3,5.56-4.65,2.34-9.36,4.54-14.12,6.64-3.72,1.65-7.52,3.15-11.34,4.56-3,1.09-5.06.22-6.17-2.68-1.51-4-2.81-8-4.13-12a4.62,4.62,0,0,1,2.05-5.64C21.09,223.69,23.3,222.27,25.76,220.65Zm9,9.09c.86.08,1.92-.32,1.6,1.41-.15.8.71,1.78.87,2.14l-.36,4.11,2.71-2.16c-.41-.94-.93-2.31-1.58-3.63-1.29-2.62-1.31-2.6-.3-3.46l.75,1.77c.91,2.62,2.71,1.63,4.61,1l.89,2.74c1.38-.64,2.61-1.23,3.85-1.78s2.68-1.14,4.31-1.83l-2.77-3.66L47,230.27c-.82-.74-1.15-4-.22-4.59l.55,2c1.82-1.45,2.12-3,1.23-4.73-1.1-2.17-2.54-4.2-3.35-6.47-1.16-3.22-1.84-6.62-2.81-9.92-.61-2-1.4-4-2.2-6.32a9.92,9.92,0,0,0,0-2.17,41,41,0,0,0-5-.35L36.78,201l-.61.33-1.75-3.85c-1.11,2.52-2.54,4.42-2.7,6.41-.24,3.08,1.71,5.36,4.5,6.64l-.82,2.28h5.09l-.87,1.41-2.72-.78.19,3.07c1-.39,1.54-.65,2.13-.83.08,0,.29.33.43.51l-2.53,1.29c-2.57-4.49-5.09-8.87-7.7-13.42l-2.77,2,2.26,3.62-.66.65-9.42-8.11c-2.54.64-2.65.83-2.45,4.05.05.76-.22,1.53-.15,2.28,0,.35.54.66.83,1a21.5,21.5,0,0,0,1.27-3.14c.1-.45-.46-1-.72-1.57l.64-.32c1.92,3.14,1.92,3.88.09,5.15l1,2.43-3-.57-.52,6,3.66-2.7c.08,1.75.64,2.43,2.78,1.81s4.52-.49,6.79-.7c-.32-1.6-.32-1.6,2.13-2.37-.81,1.36.44,5.29,1.88,5.82.23.08.53-.06.8-.07s1-.2,1.2,0c1.49,1.9,2.9,3.87,4.33,5.82l-4.1-3.51,1.45,4.85c-.89,1.5-1.43,2.41-2,3.31-2.33-1.55.11-3.2-.23-4.89a6.06,6.06,0,0,0-1.43,3.68c.11,1.22,1.06,2.36,1.63,3.53l.51-.26Zm-4.41,2.7-7.24-6.29c-1.14,1.06-2.4,2.23-3.65,3.41l.56.56.88-1.27c.43,1.31.73,2.32,1.1,3.31a10,10,0,0,0,.72,1.32H21.19c.87.92,2.57,1.16,2.81,1.9.35,1-.35,2.45-.63,3.84l1.76,1-1.23,1c2.54,2.05,4-1.12,6.26-.74l-2.11-5c2.5.56,4,4.21,7.3,1.82-.81-.59-1.85-.64-2.61-1.13a12.16,12.16,0,0,1-2.8-2.61C29.75,233.36,30.34,232.5,30.36,232.44Zm1-5.65c.37-2.31.72-4.44,1.11-6.84C28.3,222.8,28.11,224.34,31.4,226.79Zm-7-23.08-1.58-2.62-.58.27,1.81,5,.94,0L26.17,203l-.63-.23Zm4.45,21.81-1.94-1.43-2.08,1.47C26.19,228.52,27.42,224.9,28.82,225.52Z"/><path class="cls-2" d="M60.46,229.44c-1.36-2.36-2.85-4.29-3.66-6.48-2.6-7.06-5-14.19-7.35-21.33a3.46,3.46,0,0,1,.35-2.85c4.06-4.7,8.28-9.27,12.44-13.88l.75.23a40.4,40.4,0,0,1-.93,4.83c-.47,1.49-.12,2.25.94,3.48,1.69,2,2.67,4.55,4.07,7.09,2.46-3,5.18-6.12,7.66-9.42,1.16-1.55,2-1.64,3.5-.53s3.27,2.21,5.46,3.66c-.31-2.85-.67-5.1-.74-7.36,0-1.18,0-2.91.73-3.48,3-2.39,2.72-5.25,1.75-8.35-.52-1.68-1.15-3.34-1.52-5.05a15.91,15.91,0,0,1,0-3.24l.93-.25,19.94,24.86c.54-2.68,1.1-5.48,1.53-7.58,3.19,2.77,6.37,5.44,9.42,8.26a2.5,2.5,0,0,1,.21,2.17c-2.55,7.08-5.14,14.15-7.83,21.17-.7,1.83-2,2.4-4,1.39-5.22-2.59-10.54-5-15.84-7.46-1.89-.88-3.53-.37-5.07,1Q74,218,65,225.65Zm39.1-19.72.58.22,3.23,1.86c1.44-1.12,3-1.73,3.48-2.82a58.41,58.41,0,0,0,2.6-7.76c.07-.25-.41-.62-.52-1-.25-.78-.42-1.57-.62-2.36.79-.14,1.59-.28,2.39-.4a7,7,0,0,1,.8-.06c-.81-.73-1.83-1.55-2.64-1.38a21.46,21.46,0,0,0-4.15,1.69,24.7,24.7,0,0,0-1.23-3.4,22.69,22.69,0,0,0-2.29-3.25c-2.09-2.59-4.25-5.12-6.36-7.68-.91-1.1-1.74-2.25-2.63-3.36-1.16-1.44-1.59-3.72-4.13-3.57l-.91.91L90.83,179l-.64.7-2.31-.92c.39,1.4.68,2.45,1,3.48a4.37,4.37,0,0,0-3.48,5.35c.41,1.41-.38,3.21,1.51,4.34.43.25,0,2.47-.49,3.62-.4,1-1.28,2.28-2.13,2.43a5.06,5.06,0,0,1-3.68-.95,35.09,35.09,0,0,1-4-4.4c-3.3,4.14-6.21,7.85-9.2,11.49-1.2,1.47-3,1.58-3.44.16-.7-2.33-2-4.69-1.11-7.69L55.09,202l.61-5.25c-.89.53-1.94.8-2.29,1.46-.53,1-1.08,3-.74,3.21,1.29.83,1.34,1.83,1.37,3.1a13.81,13.81,0,0,0,.57,4.33c1.15,3.11,2.57,6.12,3.69,8.72l2.22-2.37c.12,1.67-.73,3.22-.3,4.18.54,1.21,2.14,1.94,3.18,2.79l8.7-7.53-2.81-2.34c3.72,2.17,4.18,2,5.17-2.55l2.46.77c2.08-1.69,3.89-4.2,6.2-4.8,3.06-.79,5.46-1.62,6.27-5.21l1.9,2.19-1.83,2,5.08,3.14L92.8,203.7c2.61,1.18,1.51,5.88,5.43,4.33ZM58.42,192.88c-.35,1.38-.59,2.41-.88,3.43s-.63,2-.95,3l.32.08,2.73-6Z"/><path class="cls-2" d="M12.46,119.12c-2.32-.74-4.62-1.57-7-2.22a3.82,3.82,0,0,1-3.08-4.68c.54-3.38,1.3-6.74,2.17-10.06a3.32,3.32,0,0,1,3.71-2.75c5.33.52,10.67,1,16,1.68,4.68.61,9.32,1.5,14,2.28,3.08.52,4.33,2,3.81,5.12-.56,3.31-1.53,6.55-2.07,9.86-.78,4.82-1.39,9.67-2,14.52-.54,4.47-1.89,6.08-6.41,6.44-9.25.74-18.51,1.33-27.76,1.92A3.48,3.48,0,0,1,0,137.34c.22-4.16.47-8.31.81-12.45.23-2.92,1.33-3.81,4.2-4.12,2.49-.28,5-.77,7.42-1.17Zm10,11.19c1.27-1.25,2.64-1.66,2.88-3.85.34-3.11,1.81-6.1,3-9.69l1,2.26.76-.21c-.38-1.27-.44-2.83-1.24-3.73s-2.45-1.41-3.64-2l-4.77-.77,1-2.77,2,1.88a9.86,9.86,0,0,0,.86-1.38c.27-.66.44-1.36.65-2-.81,0-1.62,0-2.43.1-.43,0-.86.35-1.28.32-3.25-.22-3.25-.23-2.24,2.65-3.69.84-2.28-2.33-3-4l-1.79.7-1.09,5.39.43,0,1.48-2.63A2.13,2.13,0,0,1,15,112c-1.16,3.13-1,3.44,2,4.9,1.13.55,2.18,1.23,3.72,2.11-3.33,4-8.68,2.11-11.86,5l1.1,1.7-.26.2-1.3-1.09-4.54,1-.23,3.66c1.13-1,1-3.53,3.28-2.61.42.17.21,1.92.29,2.95l-.75.07-.58-1.55-.63-.14-2.44,7c3.31-1.13,1.68,1,2.23,2l4.52-.87c.35-.25.74.2,1.23.36,2.58.86,6.91-.79,8.32-3.09.38-.61,1.1-1.18,1.14-1.8.11-1.48.29-3.18-.33-4.4-.38-.77-2.15-.85-3.45-1.28C20,125.07,20,125.09,22.48,130.31Zm4.62,3.13.22.48-1.09,1.22c.73.08,1.26.18,1.8.19,6.11.12,7-.61,5.32-5.63a1.08,1.08,0,0,1,.08-.85c2.26-2.95.52-6.73,2-9.84.11-.23-.54-.83-.93-1.39,2.48-.91,1.17-2.51.74-3.89,3.61-.62,1.31-4,2.83-5.59.14-.16-.44-1.47-.69-1.48-2.32,0-4.8-2.34-6.56.13L29.06,105l-2.25,3.23,3,1-1.3,1.45A12,12,0,0,0,31.77,109c2-1.3,2-1.3,2.27.46-2.36-.28-3.79.92-4.41,3.86l1.81-1.49.39.32-1.58,2.46c1.8,3.51-.75,6.52-1.28,9.86l1.63-.33-6,9.71Zm-18.66-20c2.79-4.2,2.89-6.74.2-7.62l.9,2.21c-4,1-4,1-3.31,4.46l.61-3,2.54,1.68-2.4.92ZM8.25,103.1l.1.76,2.87,2.46.45-.68L10.43,105l.27-2.39Z"/><path class="cls-2" d="M45.91,49.29A5.8,5.8,0,0,0,45,50c-3.2,3.46-3.47,3.45-7.76,1.37-.79-.38-2,.12-2.85-.14a46.13,46.13,0,0,1-6.53-2.35c-1.8-.85-2.17-2.8-1.09-4.77,4.05-7.33,8.67-14.29,14.78-20A169.92,169.92,0,0,1,55.47,12.29c3.53-2.67,4.67-2.16,6.58,1.77.76,1.58,1.35,3.26,2.09,4.85.9,1.92.35,3-1.38,4.34-5.24,4.06-10.26,8.42-15.35,12.68a16.53,16.53,0,0,0-1.47,1.77c4.24-3.44,8.06-6.62,12-9.68,1.63-1.29,3.43-2.36,5.18-3.5,1.48-1,3-1.39,4.11.5,1.25,2.06,1,3.68-.89,5-2.64,1.82-5.54,3.35-7.87,5.5-4,3.74-7.76,7.85-11.57,11.84a5.49,5.49,0,0,0-.75,1.7Zm4-28.66-.52.68c1.65,1,4.22,1.34,3,4.86L55,24Z"/><path class="cls-2" d="M65.18,379.76c-.09-.76-.15-1.21-.2-1.67-.51-4.37-.44-4.36,3.54-6.42,2-1,3.48-.57,5.24.69,3.63,2.58,7.4,5,11.25,7.22,2.51,1.46,3.27,3.19,1.69,5.7-2,3.17-4.17,6.25-6.27,9.36-1.67,2.49-3.82,3.61-7.19,2.07,2.89,3.05,1.12,5.25-.63,7.45a58,58,0,0,1-4.2,5.24c-2.49,2.47-4.4,2.39-6.85,0a67.72,67.72,0,0,1-13.7-19.31,16.73,16.73,0,0,1-1-2.95,3.2,3.2,0,0,1,1.77-4c3.27-1.67,6.5-3.45,9.83-5a4.8,4.8,0,0,1,3,.07A28.82,28.82,0,0,1,65.18,379.76Zm6.47,5.39-.94.38-2.85,1.79L63,382.39c-1.49,5.08,3.2,5.76,5,8.29,1.38-2.25,2.82-1,4.89-.33L71,391.54c1.12.18,2.56,0,2.84.51,1.83,3.25,2.93.8,4.84-.62l-5-1,1.83-2.24-5.72-4.93-.54.61Zm3.41-6.91c-1.23,2.41-3.12,4.16-1,6.92.67.89,1.27,1.56,2,1.26a3.52,3.52,0,0,0,1.82-2.18,15.76,15.76,0,0,0-.09-3.93l-.6.45Zm-14.63,9.59c.39-1.42.85-2.85,1.13-4.31a3.08,3.08,0,0,0-.41-1.84c-.09-.16-1.41.16-1.41.21.2,2.62-2.31,1.48-3.3,2.4-.42.39-.8.84-1.19,1.26l.63.56,3.8-2.17C56.61,386.45,60.12,386.93,60.43,387.83Zm.79,14.75c-.42,1.17,2.22,3.65,4.5,3.34.48-.06.89-.6,1.34-.92a8.93,8.93,0,0,0-1.53-1C64.12,403.49,62.67,403.06,61.22,402.58Z"/><path class="cls-2" d="M97.77,423a60.85,60.85,0,0,1-24-5.13c-4.47-2.07-4.88-4.23-1.42-7.77,1.23-1.26,2.43-2.55,3.65-3.82a2.62,2.62,0,0,1,3.46-.49c19.41,9.81,39.85,4.89,54.39-9.3,1.16-1.13,2.26-1.5,3.63-.83,2.23,1.1,4.45,2.22,6.59,3.47,1.77,1,2.16,2.63.91,4.27a24.64,24.64,0,0,1-3.77,4C129.05,417.48,115.13,422.86,97.77,423Zm40.37-18.46c1.22-1.07,2.48-1.64,2.56-2.35a1.71,1.71,0,0,0-2.21-1.88c-.18,0-.47-.61-.64-.58-1.41.23-2.83-1.07-4.25.15-2.87,2.48-5.81,4.88-8.71,7.3,1.07,1.22,3.74,1.34,4.07,4l1-3.92,3.57-.82.8,1.36,1.47-2C137.41,406.89,138,406.46,138.14,404.57ZM78.19,415l4.09-1.4v3.62c2.49.47,5,1.09,7.45,1.31.7.06,1.5-1.06,2.25-1.63l-2.21-1.63-.35.52,1.92-.74c-.28-.35-.56-.69-.85-1L88,413.72c-.08-.64,0-1.65-.26-1.78a37.78,37.78,0,0,0-5.17-1.83,19.79,19.79,0,0,0-3.32-.38l-.24-1C78.66,411,75.63,413.21,78.19,415Zm40.18-3.49,3.24-2c.08,1.4.13,2.3.19,3.32l3-1.13c-.11-2.11-1.58-3-3.41-3.11C120,408.51,118.42,410.36,118.37,411.47Zm-4.76,3.47c3.79,1.32,4.82.67,4.37-2.48Zm-15.11,0c-.88-2.26-2.37-.52-3.67-.46l2.55,1.77Z"/><path class="cls-2" d="M21.33,72.68a2.06,2.06,0,0,0-.37-.29c-6.39-3.47-6.54-3.87-3.79-10.62.54-1.33,1.12-2.65,1.75-3.94A5.05,5.05,0,0,1,25.13,55c7.5,2.28,15,4.74,22.42,7.15,2.28.74,4.53,1.58,6.82,2.32,3.37,1.09,4.69,3.36,3.34,6.66-1.17,2.87-2.84,5.54-4.25,8.32-2.12,4.22-4.27,8.42-6.29,12.69-1.78,3.77-3,4.49-7.1,4-8.19-1-16.38-1.87-24.55-2.88A31.58,31.58,0,0,1,9.92,92c-1.73-.55-2.63-1.73-2-3.71,1-3.36,1.93-6.78,3-10.12,1.56-4.78,2.71-5.44,7.77-4.91a26.41,26.41,0,0,0,2.67,0Zm-1.76,9.66H18.36l.54-2.1-.54-.12-.74,1.09L17.16,81l1.14-3.14L14.88,80.7l-.49-.55,2.3-2.43c-3.43.1-3.06,2.79-4.33,4.31,3.69,1.92-.45,4.14.51,6.17,3,.51,6.07,1,9.12,1.55,2.61.45,5.11.72,7.1-1.7a11.36,11.36,0,0,1,2.62-1.86C35.8,91,35.8,91,38.37,91.67c.24.06.47.22.69.2,2.06-.15,3.91.13,5.06-2.67,2.27-5.54,5.24-10.78,8-16.13.84-1.68,1.75-3.33,2.68-5.07l-8-2.55-1,1.39V64.92c-1.61.1-3.55-.33-4.75.43S39.32,68,38.52,69.46l-1.9-.72.07.07L34.79,67c.66-.87,1.66-1.62,1.59-2.24a20.19,20.19,0,0,0-1.51-4.2L33,62.89c.35-3.27-1.85-2.74-3.29-3.35-.72,3.55-1,3.68-4.05,2.08a34.45,34.45,0,0,0-3.22-1.34L20.25,67.4l5.57,3.24c-1-1.88-.52-3.81,1.67-6.43l4.86,1.41c-2.13,1-5,.62-5.81,3.71l2.16,1-.48.44a5.91,5.91,0,0,0,1.17,1.5c2.25,1.5,2.41,2.31.83,4.45-.23.31-.13.86-.18,1.34-1-1.18-4.66-2-6.07-1.34-.53.25-1.93,0-1.11,1.5.13.23-.51.9-1,1.67L21,76.09l-2,3,.49,0v3.33Z"/><path class="cls-2" d="M161.64,111.22c1.79.28,3.57.61,5.37.81,2.69.31,3.79,1.25,3.86,3.93.09,3.35,0,6.71-.1,10.06-.11,2.61-1.23,3.83-3.86,4-4.64.24-9.29.18-13.94.32-3.92.13-7.84.31-11.76.59-4.35.3-6.07-.93-6.6-5.27q-1.37-11.09-2.53-22.2c-.35-3.26.66-4.78,3.93-5.6,5.43-1.35,10.91-2.5,16.36-3.73,3.59-.82,7.15-1.76,10.77-2.4,4.19-.74,5.28.07,6,4.29.45,2.68.62,5.4.94,8.1a4.07,4.07,0,0,1-2.88,4.67c-1.84.71-3.7,1.35-5.55,2Zm-8.3,3.44c-.93-.1-1.61,0-2.05-.26-.87-.55-1.51-1.53-2.42-1.94-1.74-.77-1.66-1.74-.5-3.11l-1.5.12c.48-1.18-1.12-6.69-2-6.62-1.55.13-3.2-2.47-4.66,0,1.94,3.35,5,6.06,5.14,10.3L148,115.4l-1.91,2.15L142.89,109l-2,.58,1.62-2.16c-1.85-1.36-5.1.66-5.81-2.61.5,5.74,1,11.47,1.52,17.4,1.56-1.85,1.57.11,1.79.32-.19,1.64-.32,2.8-.48,4.16,2.67,0,5.25.64,7.2-.19s3.1-3.12,4.63-4.79l2.68,5.4c.33-3.85.59-6.82.85-9.82,2,.66,2,.74.91,2.78-2,3.61-.58,6.12,3.38,6.32a13.07,13.07,0,0,0,8.57-2.24c.12-1.86.39-3.76.33-5.65s-.16-3.66-3-3.82A99,99,0,0,1,154.5,113c-.52,1.06,2.57,2.19,0,3.56Zm-3.14-8.49-3.71-5.75a17.73,17.73,0,0,0,1.18,6.35,34.75,34.75,0,0,0,3.49,5.23l.63.28c-.23-3.48,4.4-2.15,4.63-5.39l.31,1.22c1.8-.63,3.61-1.25,5.39-1.92.51-.19,1.17-.44,1.38-.86.65-1.32,1.11-2.73,1.58-3.91l-1.17-.53.81-1.14c-1.38-1-1.41-1.36-.34-2.75a6.31,6.31,0,0,0,.59-1.38l-1.49-.18c-.26,0-.66-.27-.76-.17-.85.84-3.35-1.1-2.85,1.83l-2.08-.57c.14.53.23.85.14.52l-6.17.68C151.29,100.28,150.77,103.1,150.2,106.17Z"/><path class="cls-2" d="M132.52,31.09A60.39,60.39,0,0,0,118,18.53c-1.83-1.18-2.4-2.38-1.39-4.35.69-1.36,1.15-2.83,1.8-4.2,1.3-2.7,3-3.31,5.66-1.86a38.34,38.34,0,0,1,5.23,3.39,77.81,77.81,0,0,1,21.31,25.42c1.67,3.2,1.23,4.89-2,6.39s-6.15,2.72-9.2,4.12a2.66,2.66,0,0,1-3.74-1A67.08,67.08,0,0,0,115,26.67c-1.89-1.16-2.13-3.22-.75-5.22,1.19-1.72,2.74-1.42,4.19-.4C123.4,24.54,128.31,28.08,132.52,31.09Zm-2.83-11.66,2-.37c.07,1.48.12,2.68.18,4l1.73.16c-.18-2-.34-3.86-.49-5.65h-3.77c.12.74.22,1.35.31,1.93l-2.46-3.39c.44,2.73-2,1.21-3.21,2.32.93.41,2.13,1.1,2.25,1,1-1.3,1.59-.23,2.34.24C128.85,19.74,129.32,19.5,129.69,19.43Zm-9.56-3.69c1.92,1.59,4.14.73,5.6-1.43l-4.19-4.86-1.39,5,2.62,1.22-.11.37Zm25.05,23.85,2.71-.89a9.08,9.08,0,0,0-1.83-1.59,14.45,14.45,0,0,0-3-.64l1.81,1.38c-1.36.88-2.62,1.64-1.16,3.59Z"/><path class="cls-2" d="M142.7,295.38c2.4,0,4.22.05,6,0a2.5,2.5,0,0,1,2.88,1.94c.91,3.23,2,6.42,2.77,9.68s-.62,5-4,5.47c-4.59.64-9.19,1.12-13.77,1.81a56.56,56.56,0,0,0-5.8,1.46,9.29,9.29,0,0,1-11.63-6.6c-1.47-6-2.81-12-4.08-18-.95-4.56-.26-5.53,4.16-7.1,5.65-2,11.26-4.1,16.91-6.07a44.61,44.61,0,0,1,6-1.6c2.34-.46,3.82.5,4.56,2.8.85,2.67,1.61,5.36,2.44,8a3.69,3.69,0,0,1-1.51,4.41C146.16,292.7,144.65,293.88,142.7,295.38Zm-5.49-10.49-3.65-2.05c-2.14.77-4.86,1.87-7.66,2.71-1.59.49-2.64,1.15-2.63,2.94a3.15,3.15,0,0,1-.64.14l-.33-1.78-3.57,1.57c.44,2.29-.42,5.26,3,6.46l.26-2h.4c.21,1.11.43,2.23.7,3.63l-2.16-.6c.6,3.81,1,7.32,1.74,10.78a6.91,6.91,0,0,0,1.74,3.63c3.71,3.33,8.06,1.95,9.63-2.86-1.76.44-2.12-.73-1.48-1.8.93-1.53.16-2.47-.52-3.64-.52-.92-.87-1.94-1.42-3.2h1.77c.53-1.54.63-3.23,1.53-4.09,1.28-1.23,1-2.21.46-3.45l.66-.11.43,5,5.85-3.93-2-1.37c2.06-3.05,2.06-3.05,4-.93v-3.73c-1.2.23-2,.38-2.81.55l-2.59.6c-.24-.86-.47-1.67-.69-2.49l.74-1.57,2.43,1.61c-3-3.47-3-3.47-4.59-2Zm8.73,15.63c.52.57.87.92,1.18,1.29s.6.82,1.22,1.67c-1.38-4.69-4-5.86-8.07-3.68l3.71,2.37-2.8,4.45,3.08,2.12.68-1.86.46.11v2.26l5.69-1.39-1.81-1.31c.37-.61.93-1.23.82-1.41a2.22,2.22,0,0,0-1.36-.89,14,14,0,0,0-2.4,0Zm-5.81,3.23a19.2,19.2,0,0,0,.42-2.27,2.12,2.12,0,0,0-2.46-2.07c-1.38.39-2.77.75-4.13,1.12Zm2.29-21.49-1.24-2-2.55,1C139.49,282.91,140.7,283.65,142.42,282.26Z"/><path class="cls-2" d="M45.72,356.78c-8.36-.71-8.36-.71-9.78-9-.06-.31-.15-.62-.2-.94-1-6.54-.18-7.89,6.24-9.22,5-1,10.06-2,15.13-2.68,2.93-.41,3.71.67,3.4,3.63a38.64,38.64,0,0,0,4,21.63c2.09,4.15,1.9,5.1-2.09,7.46-5.17,3-10.34,6.12-15.53,9.14-2.27,1.32-3.7,1.13-4.55-1.37A92.13,92.13,0,0,1,39,362c-.18-.94,1.37-2.49,2.46-3.3A20.37,20.37,0,0,1,45.72,356.78Zm-1.29-9.25c.12,2.45,2.7,5.34,4.38,4.72-.7-.79-1.35-1.56-2-2.3s-1.55-1.61-2.33-2.42L39.8,344.1c.21,1.21.41,1.93.45,2.66a19.35,19.35,0,0,1-.12,2.28l.69.14,1.07-2.32Zm5.34-7.69,4.2,5.44-2.15,3.1a7.65,7.65,0,0,0-1-.71,11.53,11.53,0,0,0-1.29-.5c-.39,2.59-.4,2.59,1.57,4.53a14,14,0,0,0,1.94,1.76c1.55,1,1.61,1.85.17,3.13-.79.69-1.08,1.94-1.6,2.93l.66.31,1-2c.3,2,.21,3-1.7,2.48-.55-.14-1.24.23-1.86.36l.18,1.08H60.24l-1.58,2.32.49.48,2.79-1.4c-1.5-3-2.94-5.86-4.32-8.75-.21-.44,0-1.06-.11-1.57-.32-1.6-.69-3.18-1-4.76l-.59.39-.11-.19a21.16,21.16,0,0,0,.45-5.59c0-.08-.29-.16-.46-.23Zm5.43,25.3-4.09.45-.45-.79-1.16,1.05c-2.39-3-2.39-3-4.43-.76L44,363.7l-.62.44c.43.56.88,1.1,1.28,1.67a13,13,0,0,1,1,1.53c-2.41,1.73.67,2.15.79,3l-1.31,2.26a20.22,20.22,0,0,0,3.66-1.75c1.76-.95,3.53-1.9,5.33-2.77,2-1,2.79-2.46,1.6-4.81Zm-8.37-20.38-3.21-3.13a5.79,5.79,0,0,0,.48,2.59c.34.79.78,1.52,1.21,2.34Zm1.22-4.69c.33,2.86,2.53,3.73,3.87,5.45Z"/><path class="cls-2" d="M143.82,204.35c1.67.65,3.32,1.34,5,1.92,3.27,1.12,3.75,1.88,2.81,5.09-1.23,4.22-2.49,8.44-3.83,12.63-1.09,3.44-3,4.59-6.37,3.74-7.6-1.88-15.2-3.8-22.75-5.91-4.71-1.32-5.9-3.23-4.49-7.79,2.87-9.25,6-18.42,9.16-27.58.93-2.71,3.07-3.95,5.94-4,8.81-.26,17.61-.56,26.42-.84,4-.12,5.55,1.88,4.32,5.54-1.09,3.26-2.5,6.44-3.32,9.77-1.08,4.36-4,5.78-8,6.09-1.62.13-3.23.46-4.84.7Zm7.55-17.64c-1.59-2.49-4-1.37-6.13-1.57-1.66-.16-2.54.59-3.35,2a14.08,14.08,0,0,1-3,3.26,1.61,1.61,0,0,1-1.47-.36,38.31,38.31,0,0,1-1.21-4c-1.27-.17-2.13-.36-3-.39a25.07,25.07,0,0,1-2.59.08,3.75,3.75,0,0,0-4.39,2.8c-.39,1.28-.87,2.54-1.13,3.84a16.17,16.17,0,0,0,0,2.89c-.18.16-1.06.58-1.19,1.16-.48,2.3-.61,4.62-2.17,6.67-1,1.26-1.17,3.06-1.67,4.52l2.66.9L120,209.78l-.52-.5-3,8c3.83-.11,6.74,3.06,10.21.85a6.39,6.39,0,0,0,0,1.32c2.63.47,5,3,8.17.87l-.73-.79c.42-1.15.75-2.16,1.15-3.15a5.13,5.13,0,0,1,.77-1.27c.05-.07.76.21.76.34a4,4,0,0,1-.23,1.5c-.24.66-.85,1.29-.83,1.93a22.14,22.14,0,0,0,.72,3.64,23.62,23.62,0,0,1,4.82,1.24c2.13,1,3,0,3.57-1.7,1.16-3.65,2.2-7.34,3.17-11.05a2.34,2.34,0,0,0-.58-2.06,21,21,0,0,0-3.64-1.41l-8.7-3.31c-.08-3.52,3.45-2.63,5.3-4.59l-3-.32c.38-1.35,4.75-2.62,6.65-1.6l-2.76,1.79a13.66,13.66,0,0,0,8.88-.91,10.18,10.18,0,0,0,3.18-2.56c.48-.53.45-1.53.65-2.31l1.29-5.19-.27.08,2.14-3.34h-6.26Z"/><path class="cls-2" d="M154.42,68.64a41.46,41.46,0,0,1,6.11.08c1.08.17,2.66,1,2.92,1.91a85.82,85.82,0,0,1,2.73,11.61c.31,2-1.55,2.84-3.28,3.2-3.13.65-6.29,1.19-9.43,1.79C147,88.47,140.59,89.71,134.16,91c-2.46.49-4.29-.21-5.3-2.55-2.94-6.83-5.88-13.66-8.73-20.52A3.45,3.45,0,0,1,122,63.1c4.67-2.27,9.38-4.47,14.05-6.74,4.46-2.16,8.9-4.38,13.36-6.54a14.28,14.28,0,0,1,3.11-1.23c2.07-.45,3.74,0,4.6,2.31,1,2.7,2.22,5.32,3.35,8,1.63,3.8,1.08,5.43-2.58,7.43-1.18.64-2.4,1.23-3.59,1.84Zm-6.84-3-1-2c3.2-1.11,1.42,1.64,2.23,2.63l9.19-5c-1.25-3-2.21-5.51-3.3-7.91-.26-.58-1.12-1.44-1.44-1.34a5.37,5.37,0,0,0-2.36,1.57,5.74,5.74,0,0,0-.66,2.12l-.3-.07.16-2.9c-2.66,1.65-4.72,3.52-7.13,4.28-2.57.8-2.88,2.43-3.28,4.49a6,6,0,0,1-1.42,2.65c-.13.15-1.39-.61-2.08-1-.47-.29-.84-.73-1.29-1.05-1.21-.89-6.74.61-7.3,2-.11.29.09.69.17,1.16l-1.85-1.15.33,1.8-.38.25-.56-1.21c-.33,1.23-1,2.27-.73,3,.68,1.91,1.8,3.66,2.65,5.51,1.27,2.75,2.54,5.51,3.66,8.33a50,50,0,0,1,1.42,4.93l9.38-1.79C140.5,83.49,143,81.2,139.84,81l3.33-1.93c1.88,1.5,3.64,4,5.55,4.15,3.25.21,6.6-1.12,9.91-1.75,1.34-.26,2.7-.39,4.22-.6-.62-3.14-1.22-6.17-1.81-9.11l-3.12,1.13,1.69-1.47c-5.38-.86-11.06,2-15.88-1.86l3.52-2.48-1.07-1.15Z"/><path class="cls-2" d="M159.74,157.19c1.65.56,3.32,1.09,4.95,1.7a3.42,3.42,0,0,1,2.38,4.54c-.61,2.4-1,4.87-1.64,7.25-1,3.35-2,4-5.53,4.15-3.28.09-6.56.18-9.84.21-5.21,0-10.41,0-15.62,0-4.06,0-5.83-1.92-5.12-5.87q2.42-13.47,5.05-26.91a4.42,4.42,0,0,1,4.34-3.83q10.42-.76,20.86-1.42c2.31-.14,4.65-.17,7-.09,3.12.11,4,.89,3.79,3.92-.19,3.59-.61,7.18-1,10.76a4.41,4.41,0,0,1-4.38,4.27c-1.73.15-3.44.48-5.15.73Zm4.47-9.69c2.8-.82,2.76-3.36,3.27-5.48.11-.48-.91-1.75-1.45-1.77-3.43-.17-6.87-.12-10.3-.07a1.71,1.71,0,0,0-1.16.71c-.92,1.23-1.75,2.53-2.61,3.8l-.18.31c-.07-.2-.19-.57-.2-.57-1.77.49-2-1.13-2.78-2a3.62,3.62,0,0,0-2.07-1.24,57.73,57.73,0,0,0-5.87.24c-3.36.19-3.27.23-3.48,3.59a68,68,0,0,1-1.07,9.57c-1.1,5.28-2.54,10.5-3.83,15.7.7.27.92.36,1.14.43,4.09,1.35,7.06.39,9.43-3a27,27,0,0,1,2.38-2.54,33.22,33.22,0,0,0,1.49,4.17c.36.68,1.16,1.6,1.78,1.62,4.32.14,8.64.08,13.08.08.64-3.22,1.27-6.35,1.86-9.29L152,157.56c-1.38-.5-1.8-1.47-.82-2.55a5.07,5.07,0,0,1,2.65-1.55c3.14-.58,6.33-.9,9.5-1.37,2.74-.41,3.31-1.16,3.05-4.2l-1.26,2.21Z"/><path class="cls-2" d="M140.65,365.79a21,21,0,0,0,2.45-2.62,5.56,5.56,0,0,1,6.29-2.76c2.75.49,5.56.64,8.32,1.06,2,.31,3.35,1.57,3,3.65-1.06,5.72-2.09,11.47-3.62,17.07a65,65,0,0,1-4.32,10.67c-1.73,3.65-3.54,4.25-7.08,2.44-3.25-1.67-6.36-3.62-9.54-5.46l.84-2.73c-.23-.08-.47-.27-.61-.21-3.81,1.63-6.79-.09-9.68-2.32-1.9-1.47-3.93-2.77-5.76-4.32-2.39-2-2.5-3.82-.2-5.77a48,48,0,0,0,10.63-12.93c1.24-2.16,6.68-2.9,8.48-1.21a3,3,0,0,1,.63,1.72C140.59,363.07,140.57,364.08,140.65,365.79Zm15.08,7.3,0-.92-3.36-.24,2.47-1.36a18.82,18.82,0,0,0-1-3.15,18.67,18.67,0,0,0-2-2.68c-1.17,1.64.24,2.4,1.42,3.27l-.82,1.66a22,22,0,0,0-1.78-2.75,23.28,23.28,0,0,0-2.61-2.24c-.55,2.7-1.52.54-1.89.37-1.34,1.44-2.52,2.67-3.65,3.92s-2.32,2.63-3.28,3.73a15.18,15.18,0,0,1-2.84-1.85,2.93,2.93,0,0,1-.57-2,29.65,29.65,0,0,1,.77-3.7l-.51-.05,1-.8-2.41-1.62c1,2.07-3.66,2.65-.79,4.44-3.68,0-3.05,3.71-4.89,4.81l1.94,1.24-7.93,3.69-.07.77,5.11,2.78,2.56-2.21.4.57-1.9,2.37,2.33,1.95-.08-.63L135,382v-4.37l.35-.13c.51,1.65,1,3.31,1.52,5l.62-.07.11-2.34,2.12,1.91.17-.72,3.16.51-3.39,6.58c3.78.33,5.42,4.63,9.42,4.05l-.52-1.85c2.59-.45,6.64-11.76,5.19-14.18L155,376l-1.5-2.22Z"/><path class="cls-2" d="M152.2,336.58c1.57.22,3.16.37,4.72.66,2.26.42,3.78,1.47,3.8,4.13,0,3.35.57,6.71.4,10s-1.54,4.21-4.76,3.78q-9.27-1.21-18.54-2.52c-2.26-.32-3-1.35-2.61-4a43.69,43.69,0,0,0-1.86-20.39c-.23-.68-.43-1.38-.7-2.05-1.33-3.31-1.23-3.72,2.39-4.45,6-1.2,12-2.17,17.94-3.27,2.47-.45,3.84.72,4.43,3s1.2,4.66,1.6,7c.52,3-.15,4.09-3,5.5l-4,2Zm.48,10.72,2.43-2.28.28.13-.87,1.87,2.75.42c0-1.79-.39-3.4.09-4.68.76-2-.73-2.22-1.74-2.45-.44-.1-1.17,1.05-1.56,1.43-2.63-2.94-7.17-1.47-10.68-3.53.83-1.21,2.15-2.26,2.05-3.15-.33-2.85,1.24-4.55,3-6.21.26-.24.92-.06,1.39-.08l-.73,1.12,2,2.81c.5-.36,1.59-.86,1.54-1.16-.2-1.2-.6-3.24-1.22-3.36-2.78-.52-2.16-2.23-1.88-4l2.53,2.41c-.45-1.95-.73-3.15-1-4.31l-2.57.52,1.19,1.49c-2-2-4.49.48-6.64-.77l-3.62,5.78-.6-.19,1.44-3.75-.31-.19-1.55,1.8-1.4-2c.82,3,1.54,5.66,2.28,8.4l2.19-1.45.49.6-2.51,2.18v13l2.44-2.2a4.27,4.27,0,0,0,4.78,3.83l-.92-3.09c.67.34.91.39.93.48.42,1.78,1.49,3.37,3.24,3.25,1-.07,1.86-1.79,2.79-2.76Zm-2.35-14.12-2-2.57-2,4Z"/><path class="cls-2" d="M83.59,112.52c-3.83,5.84-7.21,11.08-10.68,16.26-1.78,2.66-3.76,5.2-5.57,7.84-1.17,1.7-2.39,2-4.16.77s-3.56-2.13-5.73-3.4L42.11,151.22c-.66-4.09-.22-7.36,2.8-10.28a120.86,120.86,0,0,0,9.71-11c1.41-1.74,2.49-1.7,4.1-.49,1.85,1.39,3.81,2.61,5.88,4l17.92-25,19.24,18c3-2.36,5.91-4.6,8.75-7,1.47-1.2,2.51-1.39,4,.17,4.59,4.81,9.32,9.5,14.11,14.11,2,1.91,1.74,4.1,1.56,7.07-6.82-5.48-12.25-11.74-18.31-17.63-2.65,2.15-5.28,4.11-7.7,6.3-1.52,1.37-2.74,1.33-4.11,0-4.6-4.56-9.21-9.11-13.78-13.7C85.4,114.93,84.68,113.86,83.59,112.52Z"/><path class="cls-2" d="M93.3,0c5.25.85,11.17,1.72,17,2.79,2.68.5,3.09,1.41,2.51,4.15-.39,1.8-.8,3.59-1.21,5.39-.57,2.52-1.52,3-4.13,2.82-5.82-.39-11.68-1.17-17.45-.74-5.27.4-10.45,2.13-15.65,3.36-3.5.82-5-.15-5.61-3.69a30.21,30.21,0,0,0-1-4.91c-.75-2.23,0-3.71,2-4.38A79,79,0,0,1,79.5,2.11C83.8,1.26,88.18.76,93.3,0ZM90.22,5.36C87.8,7.07,87.45,3.68,85.57,3.3l1.34,3-.53-.16-2.18,5a6,6,0,0,0,2.35-2.77c.77-1.9,1.66-3,4-1-.21-1.08-.31-1.58-.4-2.08l3.94,2-3.3-3.18.4-.42L88.1,3.08l-.23.78a15.54,15.54,0,0,1,1.86.72C90,4.7,90.06,5.09,90.22,5.36Zm19.49,2.35A8.89,8.89,0,0,0,99.77,6l-.24-2.83-.59.13-.37,1.51c-1-.44-1.91-1.22-2.68-1.08s-2.6.46-1.85,2.18,2.19,2,4.31,1c.8.86,1.57,1.69,2.38,2.58l.8-1.92.4.11.14,1.81,3.73-2.85.37.45-3.53,3.38c1,.17,1.9.37,2.77.43,1.08.08,2.17,0,3.26,0-.42-1-.85-2-1.25-3,0-.12,0-.3,0-.14ZM81.29,7.35c-3.47-2-4.21-1.75-4.6.84-2.07.8-4.13.7-5.87,1.83-.28.18-.12,1-.19,1.91L75.77,9.5l.17,2.38Zm-.67-2.92-.52.15c.13.41.24,1.16.4,1.18a10.29,10.29,0,0,0,3.55,0c.4-.12.44-1.5.64-2.3l-.64-.25-2.73,2.3Z"/><path class="cls-2" d="M121.46,87.23l-.41-.59L110.43,76.07l-5.2,5.77L86.62,62.42l-10.72,16c-.14.2-.25.42-.37.62-3.36,5.59-3.84,5.7-9.26,2.35q-7.9,9.57-15.78,19.11l-.87-.67c2.92-9.4,10.27-16,15.74-24.14l5.35,3.91c5.07-7.61,10.18-15.27,15.46-23.17l18.7,19.74,6.43-4.67c4.11,5.27,10.85,8.6,12.52,16.53Z"/><path class="cls-2" d="M82.19,157.1,99,175.46a45.84,45.84,0,0,0,3.72-2.73,1.89,1.89,0,0,1,3.06.17c4,4.22,8,8.32,11.79,12.69.81.95.56,2.81.31,4.48-5.22-3.09-8.54-7.94-13.07-11.86-1.4,1.17-2.86,2.38-4.57,3.82l-17.77-19-14.37,22.8-5.65-4-12.81,16-.89-.25a6.76,6.76,0,0,1,.4-2.53q5.31-8.29,10.86-16.45a2.06,2.06,0,0,1,1.92-.3c5.26,2.63,5.17,2.61,8.3-2.42C74,169.67,78,163.58,82.19,157.1Z"/><path class="cls-2" d="M102.11,409.94a66,66,0,0,1-20.2-3.75c-1.53-.52-3.18-1.17-2.47-3.37A4.54,4.54,0,0,1,84.35,400c3.63,1,7.21,2.28,10.9,2.8,11.88,1.67,22.3-1.82,31.33-9.62,1.11-1,2.19-2.13,3.76-1.2,1.19.71,2.75,1.57,3.08,2.67.24.82-1.06,2.35-2,3.2a48.06,48.06,0,0,1-19.74,10.56A76.53,76.53,0,0,1,102.11,409.94Z"/><path class="cls-2" d="M100.39,402.94c-4.42-1-8.86-1.94-13.26-3.05-1.66-.42-3.3-1.22-2.66-3.49a4,4,0,0,1,5-3c1.84.52,3.63,1.29,5.5,1.66,8.49,1.65,16.18-.51,23.33-5.08,1.08-.69,2.1-1.48,3.21-2.11,1.66-.94,3.59-.23,5,1.56s0,2.67-1.06,3.58C118.25,399.21,110,402.33,100.39,402.94Z"/><path class="cls-2" d="M95.84,15.1c3,.42,7.16,1,11.33,1.65a2.6,2.6,0,0,1,2.34,3.47c-.62,2.88-1.52,3.94-3.57,3.49-10.17-2.2-20.06-.7-29.89,2-3.09.84-4.78-.44-4.45-3.48a3.47,3.47,0,0,1,1.75-2.38A64.17,64.17,0,0,1,95.84,15.1ZM102,19.23c-1.21-2.25-1.21-2.32-3.47-2.26-2.47.07-4.94.29-7.57.46l.08,1.8Z"/><path class="cls-2" d="M71.29,302.2c-.24-5.83.71-6.89,5-7.35,2.93-.32,5.84-.78,8.75-1.25,3.12-.5,4.24.38,4,3.57C88.61,302.11,88,307,87.46,312a2.77,2.77,0,0,1-2.72,2.76c-3.09.39-6.17.87-9.25,1.3A2.19,2.19,0,0,1,72.8,314C72.19,309.59,71.67,305.22,71.29,302.2Zm4.68,9,8.08-.57c-.13-2.81,1.52-5.89,0-8.72l1.31-2.59-4.82,1L81.92,298H75.23c-.36,5.89-.36,5.89,3.22,6.31L76,305.84Z"/><path class="cls-2" d="M99.52,382.44c2.87-.7,6.38-1.42,9.8-2.42,1.92-.55,3.58-.67,5.18.68,1.35,1.13,2.82,2.13,4.11,3.33,1.56,1.44,1.63,3,0,4.56a7.71,7.71,0,0,1-1.26,1.1c-7.93,4.68-16.27,6.7-25.32,3.76-3.13-1-3.67-2.7-1.86-5.47a21.08,21.08,0,0,0,1.51-2.17C93.17,382.83,95.24,381.07,99.52,382.44Zm-4,2.95-3,4.31c1.76,0,3.8-.46,4.13.09,1.07,1.81,1.84,1.25,2.87.59,2.19,1.09,4.68.33,6.66-.23,3.24-.93,7-1.58,9.12-4.89-3.66-2.78-3.66-2.78-6.48-1.35A18.41,18.41,0,0,1,95.55,385.39Z"/><path class="cls-2" d="M104.53,31.9c-6.27-2-12.07-1.36-17.84-.5-2.76.41-5.47,1.14-8.18,1.82-3,.75-5.14-1-4.72-4a2.8,2.8,0,0,1,1.54-1.83,50.49,50.49,0,0,1,27.75-2.79c3.93.7,5,2.29,3.45,5.48C106.14,30.85,105.12,31.37,104.53,31.9Zm-24-4.72.17.92,5.61-.62-.12-1Zm15.16-1.36,5.88,1.86C99.59,25.13,98,24.76,95.72,25.82Z"/><path class="cls-2" d="M45.91,49.29l.2-.27C51,44.4,55.76,39.69,60.74,35.21c1.7-1.53,3.91-2.48,5.87-3.71,1.09-.69,2.27-1.26,3,.23s1.88,3,.3,4.6a5.21,5.21,0,0,1-1.16.86c-7,4-12.49,9.66-17.55,15.84-.81,1-2.3,2.08-3.41,2C43.9,54.84,43.7,54,45.91,49.29Z"/><path class="cls-2" d="M135.24,47.72a3.11,3.11,0,0,1-4.53,2.69,6,6,0,0,1-2-1.69,55.31,55.31,0,0,0-16.16-14.15c-1.49-.88-2.56-2-2-3.85.89-2.81,1.47-3.18,4.18-2,5.75,2.53,10.25,6.78,14.63,11.12a55.71,55.71,0,0,1,4.84,6A9.64,9.64,0,0,1,135.24,47.72Z"/><path class="cls-2" d="M91.4,31.85c4.68.46,7.87.71,11,1.11,1.91.24,2.74,1.42,2.4,3.39-.42,2.38-1.77,3.82-3.68,3.54a53.88,53.88,0,0,0-20.51,1.16c-2.09.5-3-.6-3.6-2.22-.62-1.81-.61-3.68,1.7-4.23C83.4,33.48,88.09,32.56,91.4,31.85ZM97.66,34c-.38,2.26,1.21,2.29,2.58,2.34.52,0,1.05-.48,1.57-.74L101.5,35Z"/><path class="cls-2" d="M56.64,58.05a15.71,15.71,0,0,1-3.27-1c-1.44-.87-2.13-2-.83-3.72A57,57,0,0,1,69,38.75c1.38-.82,2.74-1,3.72.64,1.32,2.16,1.13,4-.23,5.12-4.55,3.9-9,7.87-13.54,11.8C58.19,57,57.34,57.52,56.64,58.05Z"/><path class="cls-2" d="M102.34,308.36c.76-4.72,1.62-9.92,2.43-15.13.3-2,1.65-3.22,3.34-3,1,.1,2.31,1.69,2.6,2.83,1.27,5,2.22,10,3.26,15,.35,1.64-.34,2.6-2,2.89-2.52.43-5,1.06-7.55,1.27S102.8,310.21,102.34,308.36Zm5.79-11.8h-.83c-.27,3.49-.53,7-.81,10.56l4.44-.22-3.13-3.15c-.17-.77,3.32-1.9.33-2.78Z"/><path class="cls-2" d="M93.38,39.92c2.89.61,5.32,1,7.71,1.65a2.18,2.18,0,0,1,1.63,3.16c-.36,1.05-.75,2.1-1.19,3.12-.72,1.67-1.86,2-3.79,2a134.13,134.13,0,0,0-13.87.76c-2.6.24-3.45-.27-4.34-3.52-.78-2.86-.41-4.15,2-4.75C85.52,41.33,89.62,40.67,93.38,39.92Zm1.18,4.71.42.94a10.34,10.34,0,0,0,3.41.07c.71-.21,1.24-1.27,1.66-2.06.08-.17-.69-1.13-1.08-1.14-3.75-.09-7.5-.06-11.25-.06l-.26,2.8h4.19l-.49-1.89.47-.29,1.67,2.27,2.47-1.83.37.43Z"/><path class="cls-2" d="M107.74,40.87c.12-4.68,2.34-6.06,5.47-3.71,4.66,3.47,9.08,7.26,13.45,11.08,1.21,1.06,2.82,2.65,1,4.47-2.06,2.09-3.94,1.94-6.08.13-3.89-3.28-7.91-6.41-11.82-9.67A16.57,16.57,0,0,1,107.74,40.87Z"/><path class="cls-2" d="M115.46,58.63a12.86,12.86,0,0,1-2.54-1.06c-2.1-1.46-4-3.35-6.21-4.48-2.91-1.45-2.57-3.4-1.74-5.77,1.26-3.58,3-4.45,6-2.33a83.87,83.87,0,0,1,9.06,7.46c2,1.79,1.68,3.17-.68,4.52A34.44,34.44,0,0,1,115.46,58.63Zm2.7-5.76-3.9-3.44-.39.36,1.84,2.32-2.87.52C114.69,54,116.25,55.05,118.16,52.87Z"/><path class="cls-2" d="M77.4,51.81a13.7,13.7,0,0,1-1.86,2.39c-2.17,1.88-4.44,3.65-6.71,5.42-2,1.59-7.5,1-9-1.07A1.9,1.9,0,0,1,60,56.72c3.76-3.56,7.47-7.21,11.49-10.46,2.16-1.74,4-.8,5,1.92C76.8,49.23,77,50.33,77.4,51.81Zm-4.93-2.62c-1.34-.29-5.21,1.53-5.62,2.63a1,1,0,0,0-.06.68c.83,2.22-1.19,1.94-2.21,2.5a11.18,11.18,0,0,1-1.53.57c.18.4.33,1.12.56,1.15a2.65,2.65,0,0,0,1.82-.29c1.49-1.16,2.69-3.19,4.31-3.55C72.16,52.33,72.2,50.88,72.47,49.19Z"/><path class="cls-2" d="M48.13,304.38c.07-.22.09-.58.22-.63a19.11,19.11,0,0,1,4.17-1.1q-1.59,1.68-3.21,3.34Z"/><path class="cls-2" d="M99.56,209.72l1-2L99,206.12l2.44-1.57c.52,1.71,1,3.45,1.71,5.67l-3-.28Z"/><path class="cls-2" d="M123.53,148.51c-.51.15-1.12.53-1.63.42-2.68-.57-2.67-.61-4.63.41l-1.41-2.2.25-.23.69.61,3.43-4.76.63.07.62,3.1-1.77-.94-.86,1.82Z"/><path class="cls-2" d="M81.92,134.57l-2.61.7,1.24-2.68-1.4-3,.43-.41c.87.75,2.1,1.35,2.5,2.29S82,133.74,81.92,134.57Z"/><path class="cls-2" d="M67.25,149.23l1.78-.36a6.37,6.37,0,0,0,.06,2.3,8.59,8.59,0,0,0,1.75,1.94C68.55,152.74,67.56,151.39,67.25,149.23Z"/><path class="cls-2" d="M64.64,149.85l3.28,4.28-2.86-1-.75-3.21Z"/><path class="cls-2" d="M33.06,170.86l-1.33-.56-.52,3.25c-.4-.38-1.45-1.08-1.35-1.35a14.81,14.81,0,0,1,1.72-2.75L33,170.92Z"/><path class="cls-2" d="M38.4,230a5,5,0,0,0,1-4.9L43,230.55Z"/><path class="cls-2" d="M25,213.67l-2.9-.79v-3.42Z"/><path class="cls-2" d="M24.74,229.28c.68.84,1.8,1.62,1.93,2.54s-.9,1.74-1.41,2.62l-.85-.1-.55-4.55Z"/><path class="cls-2" d="M60.07,203.94c.36.87,1.25,2.12,1,2.51-.6.81-1.82,1.17-2.78,1.71a10.53,10.53,0,0,1-.57-1.6,17,17,0,0,1-.12-2.11c1.09.92,2.1,1.24,2.55-.57Z"/><path class="cls-2" d="M87.59,185.37c2.37-1.59,4.15-1.29,6,1.29-1.21-.78-2.33-2.07-3.84-.45C89.58,186.42,88.34,185.67,87.59,185.37Z"/><path class="cls-2" d="M97.85,198.79c1,.49,2.08.7,2.4,1.32s.09,1.85.09,2.8l-1.1.08C98.76,201.53,98.28,200.07,97.85,198.79Z"/><path class="cls-2" d="M60.12,203.88c-.47-.3-1.38-.71-1.33-.9a33.25,33.25,0,0,1,1.23-3.7l1.49,2.34H60.07v2.32Z"/><path class="cls-2" d="M10.22,134.3l-1.75-2,3.38-6,1.52.83-1.53,1.11,1.07,2C10.54,130.72,11.32,133.14,10.22,134.3Z"/><path class="cls-2" d="M19.51,82.42,21.22,81l-3.37,7.52-1.09-.37a16.54,16.54,0,0,1,.87-2.85,26.49,26.49,0,0,1,1.95-2.92Z"/><path class="cls-2" d="M36.62,68.74l.15,1a21.52,21.52,0,0,1-2.68-.22,2.5,2.5,0,0,1-1.32-.8,1.21,1.21,0,0,1,.22-1,3.32,3.32,0,0,1,1.53.13c.74.25,1.44.63,2.17,1C36.69,68.81,36.62,68.74,36.62,68.74Z"/><path class="cls-2" d="M130.35,304.07c-1.73-1.41-4.57-1.76-4.9-4.83C128.65,299.44,128.29,303,130.35,304.07Z"/><path class="cls-2" d="M127.43,217.24l-6.05-4.93a6.86,6.86,0,0,1,1.6-.53c.29,0,.64.41.86.34,4-1.3,3.5,1.45,3.42,3.82,0,.21.22.42.28.65S127.5,216.87,127.43,217.24Z"/><path class="cls-2" d="M129.29,212.75c0-.36-.22-1-.09-1.05,1.33-.75,2.72-1.42,4-2l2.93,3.79-.11.3c-.59-.38-1.52-.63-1.72-1.16-.88-2.33-2.07-1.75-3.47-.63,1.19,2.15,1.19,2.15-.25,2.21Z"/><path class="cls-2" d="M125.25,197.29c1.75.36,1.16,3.26,3.77,2v4C127.53,200.92,126.39,199.11,125.25,197.29Z"/><path class="cls-2" d="M129.29,212.75l1.25,1.42c.56,1,1.13,2,1.7,2.94l-.46.3-4.27-5.11Z"/><path class="cls-2" d="M141.28,373.69c-1.16,1.58-3.23,2.9-.41,5.46H138C138.65,376.81,138.89,374.6,141.28,373.69Z"/><path class="cls-2" d="M152.75,347.24c-.36-.24-.85-.41-1-.74s.08-1.1-.16-1.27c-2.18-1.65-.16-2.58.76-3.73v2.79l2-.7c-.6,1.38-1.12,2.55-1.63,3.72Z"/></g></g></svg>