<svg xmlns="http://www.w3.org/2000/svg" viewBox="0 0 702.97 558.9"><defs><style>.cls-1{fill:none;}.cls-2{fill:#7a2235;}.cls-3{fill:#473728;}</style></defs><g id="Capa_2" data-name="Capa 2"><g id="Capa_1-2" data-name="Capa 1"><rect class="cls-1" width="702.97" height="558.9"/><path class="cls-2" d="M272,392.26c-5.78-9.49-15.15-12.47-23.9-7.11-5.45,3.34-10.74,4.37-16.88,2.26a13.26,13.26,0,0,0-7.28.1c-6.49,1.74-10.76,6.21-13.07,12.41-3.33,8.9-2.42,17.59,1.73,26.06,6.52,13.31,20.15,21.12,34.06,19.41,17.24-2.12,30.11-17.27,30.15-35.51A33,33,0,0,0,272,392.26Zm-45.23,7.35a23.42,23.42,0,0,0-5.26,14.16A33.15,33.15,0,0,0,225.17,429c.13.28.28.56.4.85,0,.05-.08.14-.12.2-6.78-6.42-12.07-20.95-6.35-30.8,1.22-2.1,2.93-3.69,5.45-3.82,1-.05,2.66.33,2.92.95A3.9,3.9,0,0,1,226.77,399.61Zm15.53-5.52-8.75-.55,0-.45h8.79C242.35,393.42,242.33,393.76,242.3,394.09Z"/><path class="cls-2" d="M205.8,314c6.07.16,11-2.2,15.69-4.9,3.48-2,6.76-4.29,10.24-6.27,9-5.12,18.78-3.54,25.73,4.09a9.58,9.58,0,0,1,3,6.2c-9.55-5.74-22.7-3.22-32.34,2.62,3.49-.87,7-1.73,10.48-2.61a27.94,27.94,0,0,1,17.22.95,9.39,9.39,0,0,1,3.08,1.8,2.26,2.26,0,0,1,.31,2.17c-7.75,9.91-20.33,17.12-34.22,11.86-7.55-2.87-14-7.29-18.41-14.34A15.64,15.64,0,0,1,205.8,314Z"/><path class="cls-2" d="M237.78,377.31A81.1,81.1,0,0,1,244.09,346a94.38,94.38,0,0,1,13.16-22.52,169,169,0,0,1,11.7-12.7c2-2,3.65-1.71,5.38.57,2.46,3.24,2.19,5.56-1.46,7.87-11.94,7.55-19.7,18.38-24.76,31.29A79.78,79.78,0,0,0,243,379.45c0,2.26.33,4.67-2.19,6.16-2,1.16-2.75,1-3-1.34S237.78,379.63,237.78,377.31Z"/><path class="cls-3" d="M507.7,323.15c6.9,3.76,6.94,10.16,7,16.6,0,5.27.1,10.55.34,15.82a27.34,27.34,0,0,0,1.1,5.84c.62,2.2,0,3.28-2.21,3.32-2.8,0-5.59.06-8.39.06-2.14,0-3.78-.73-4-3.16-.42-4.83-.95-9.67-1.19-14.51-.22-4.46,0-8.94-.2-13.41a4.77,4.77,0,0,0-6.25-4.16,2.26,2.26,0,0,0-1,1.77c0,6.47.07,12.93.17,19.4.07,3.73.32,7.46.33,11.19a2.59,2.59,0,0,1-3,2.91c-3-.05-6.08,0-9.12.1-2.09.05-2.91-1.13-2.79-3,.16-2.6.59-5.18.72-7.78.09-1.66-.19-3.33-.24-5-.15-5.26-.29-10.51-.38-15.77-.08-4.51-.09-9-.12-13.54,0-2.1-.06-4.2.06-6.3a17.05,17.05,0,0,1,.77-3.17c-1.25-1.1-.95-2.55.23-4.12l-1-.72c.23-1.72.43-3.24.67-5l1.72,1.06c.36-.73.75-1.54,1-2.06-1,.09-2,.43-2.63.14a2.41,2.41,0,0,1-1-1.9c0-2.53.23-5.07.32-7.6,0-1.33-.14-2.66-.06-4,.11-1.81,1.44-2.51,3-2.57,4-.15,8.08-.23,12.12-.23,2.86,0,5.83-.28,8.55.37,6.89,1.64,11,6.62,12,13.26.81,5.34.18,10.94-.07,16.41C513.91,317.65,511,320.4,507.7,323.15Zm-15-6c1.16,0,1.95.07,2.73,0,3.12-.33,4.61-1.37,4.78-3.69a110.2,110.2,0,0,0,.38-11.19c-.1-3.69-2.78-6.14-5.87-5.9-1.68.14-2.34.85-2.15,2.65a65,65,0,0,1,.13,6.55C492.75,309.38,492.74,313.22,492.74,317.12Z"/><path class="cls-3" d="M437.15,310.6c-.35-.6-1-1.19-1-1.81-.12-2,0-4,0-5.94,0-3.27,0-6.53-.08-9.79,0-2.31-.21-4.63-.15-6.94.05-2.1,1.71-2.57,3.36-2.62,5.53-.18,11.07-.35,16.61-.33,6.58,0,11.92,4.2,14.47,10.32,2.89,6.95,1.82,14,.7,20.92-.5,3.07-3,5.81-4.78,9,3.69,2.74,5.11,7.26,5.35,12.16.22,4.45-.17,8.93.13,13.38s1.22,8.63,1.65,13c.08.79-.83,2.38-1.36,2.41a78.33,78.33,0,0,1-10.5.15c-2-.12-2.54-2.1-2.72-3.78-.47-4.37-.88-8.75-1.11-13.14s-.23-8.8-.28-13.2c0-2.33-1.33-3.63-3.34-4.48-3-1.25-4.06-.56-4,2.6.12,7.26.29,14.53.36,21.79,0,2.71-.22,5.43-.24,8.15a2,2,0,0,1-2.17,2.31c-3.26.07-6.51.07-9.77,0a2.11,2.11,0,0,1-2.2-2.54c.18-2.84.57-5.66.69-8.5.06-1.55-.34-3.13-.36-4.69-.15-7.5-.22-15-.34-22.51-.06-3.91-.26-7.82-.21-11.72a24.41,24.41,0,0,1,.82-4.41Zm12.68-4h.1c0,2.8-.05,5.6,0,8.39,0,.68.31,1.73.78,1.95,2.45,1.17,6.38-.78,6.56-3.43a111.59,111.59,0,0,0,.14-13.06c-.15-2.89-4.14-5.06-6.74-3.94a2,2,0,0,0-.83,1.5C449.79,300.88,449.83,303.75,449.83,306.62Z"/><path class="cls-3" d="M359.57,352.1c0-9.82,0-19.63,0-29.45,0-3.65.3-7.3.23-10.94-.12-6.68-.44-13.35-.61-20a52.89,52.89,0,0,1,.26-6.16c.14-1.54.7-2.57,2.73-2.46,2.88.16,5.79-.13,8.69-.22,2.12-.07,2.19,1.48,2.21,2.94q.13,8.26.16,16.54c0,3.67-.05,7.33-.06,11,0,.64,0,1.79.16,1.83a33.52,33.52,0,0,0,6.55,1.07c.53,0,1.59-1.58,1.59-2.44-.05-9.33-.28-18.66-.43-28,0-1.29.28-2.38,2-2.42,3.11-.08,6.21-.33,9.31-.34,1.94,0,2.94.86,2.89,3.15-.14,6.78-.1,13.58,0,20.36s.52,13.86.64,20.79c.1,5.56-.07,11.11,0,16.67,0,4.5.17,9,.2,13.51a38.18,38.18,0,0,1-.31,5c-.28,2.23-2.15,2.08-3.69,2.13-2.3.08-4.6-.07-6.9-.07-2.58,0-3.31-.57-3.36-3.18-.08-4.08,0-8.16-.06-12.23,0-5.82-.1-11.63-.1-17.45,0-1.92-.71-2.85-2.73-2.38a2.54,2.54,0,0,1-.48,0c-4.71.28-4.79.28-4.79,5.06,0,8.59.08,17.17.18,25.76.05,3.95-.85,4.81-4.74,4.51a49.18,49.18,0,0,0-5.43,0c-2.81.1-4.06-1-4.08-3.73,0-3,0-5.92,0-8.88Z"/><path class="cls-3" d="M353.84,341.91c.18,6-.17,11.81-3.93,16.93a14.2,14.2,0,0,1-8.66,5.58,20.37,20.37,0,0,1-13.6-1.29c-5.57-2.73-8.43-7.68-9-13.57-.74-7.24-.86-14.56-1.05-21.86-.19-7.06-.38-14.13-.09-21.18a54.43,54.43,0,0,1,2.06-13.84C321.67,286,327,282.4,334,282.16a27,27,0,0,1,10.48,1.66c5.54,2.18,8.21,7,8.86,12.78.42,3.8.37,7.67.41,11.51,0,2.73-.85,3.41-3.48,3.25s-5.19-.18-7.79-.29c-1.62-.06-2.07-1-2.16-2.54-.23-3.61-.79-7.21-.89-10.83a2.12,2.12,0,0,0-2.07-2.36c-1.08-.13-2.67-.07-3.23.59a7.68,7.68,0,0,0-1.79,4.22c-.19,3.25.16,6.52.16,9.77,0,5.81-.16,11.62-.12,17.43,0,6.72.18,13.44.36,20.16a4.34,4.34,0,0,0,4.18,3.89c2.29,0,3.65-1.37,3.76-4.12s-.09-5.27-.16-7.91a16.29,16.29,0,0,1-.09-2.87c.24-1.54,1-2.63,2.84-2.58q3.93.09,7.88,0c2-.06,2.73.93,2.72,2.77S353.84,340.16,353.84,341.91Z"/><path class="cls-3" d="M414.75,316.32c3.14,0,5.53.05,7.91,0a2.47,2.47,0,0,1,2.87,2.73c.08,2.64.1,5.29.06,7.93,0,2-1.07,2.88-3.11,2.68a32.44,32.44,0,0,0-5.9-.23,2.75,2.75,0,0,0-1.72,2c-.14,6.37-.08,12.75-.08,19.48h9c.71,0,1.43,0,2.14,0,4-.43,4.46.16,4.62,4.59.09,2.24.13,4.48.08,6.72,0,1.67-.83,2.69-2.65,2.68q-12.12,0-24.22-.05c-1.66,0-2.45-.73-2.45-2.49,0-6.23-.18-12.45-.17-18.67s.23-12.22.22-18.32c0-8-.17-16.06-.25-24.08-.05-5-.1-10.08-.12-15.12,0-2.26,1.05-3.14,3.28-3.13,7,.05,14,.1,20.94,0,4.55-.06,5.2.59,4.85,5-.16,2.05,0,4.13,0,6.2,0,1.75-.9,2.54-2.74,2.48-3.46-.11-6.92-.16-10.37,0-.76,0-2.09,1-2.11,1.59C414.69,304.27,414.75,310.22,414.75,316.32Z"/><path class="cls-3" d="M539.5,306.05q1.74-7.56,3.47-15.12c.24-1,.44-2,.72-3,1.31-4.63,2.52-5.39,7.29-4.81a15.46,15.46,0,0,0,3.78.09c2.53-.32,3.76.77,3.15,3.17-1.17,4.64-2.49,9.23-3.67,13.86-2.64,10.28-5.55,20.51-7.68,30.9-.92,4.51-.17,9.35-.19,14,0,5.5-.07,11,0,16.52,0,2.17-.79,3.31-3.1,3.2-3.12-.14-6.23-.17-9.35-.26-1.69,0-2.44-.89-2.37-2.6.26-6.53.52-13.07.73-19.6.2-5.74-.06-11.39-1.84-17-1.91-6-3.29-12.17-4.89-18.27q-2.67-10.19-5.32-20.38c-.73-2.82-.59-3,2.23-3.25s5.74-.38,8.62-.41c1.53,0,2.42.94,2.79,2.47,1.36,5.63,2.77,11.25,4.19,16.87.31,1.22.71,2.42,1.06,3.63Z"/><path class="cls-3" d="M491.11,403.85c0,6.46,0,12.92,0,19.38,0,1.66-.59,2.27-2.25,2.26-6.59-.05-6.06.84-6-5.75,0-11,0-21.92,0-32.88V374.41c2,0,4,.14,5.94,0s2.54.68,3.06,2.24c2.13,6.37,4.33,12.73,6.52,19.09.2.59.47,1.16.72,1.75l.62,0c0-4.07,0-8.13,0-12.19,0-3.1-.26-6.19-.22-9.29,0-.54.84-1.21,1.44-1.56.41-.24,1.09,0,1.65-.05,5.5-.1,5.43-.1,5.39,5.56q-.1,15.75,0,31.51c0,4,.18,8,.27,11.93,0,1.3-.48,2.18-1.93,2.19-.16,0-.32,0-.48,0-7.65-.12-6,1.18-8.53-6.07-1.79-5.21-3.51-10.43-5.26-15.65Z"/><path class="cls-3" d="M435.26,425.5c-.36-5.67-.71-11.06-1-16.46-.05-.8,0-1.61-.05-2.4-.2-2.86-1.35-3.68-4.49-3.07,0,3.78,0,7.61,0,11.43q0,4.32.15,8.64c0,1.3-.46,1.92-1.82,1.89-2.32,0-4.64,0-7.33,0,0-2.26,0-4.36,0-6.46-.06-6.7-.2-13.4-.2-20.11,0-4.95.12-9.9.27-14.85a40,40,0,0,1,.57-4.16c-1.39-1.26-.65-3.29-.65-5.63,4.9,0,9.63-.4,14.25.1,4.88.53,8.71,6,8.65,11.26,0,1.52-.06,3-.12,4.56-.14,3.47-.82,6.71-4.23,9,4.09,2.25,4.12,6,4.29,9.82.22,4.86.65,9.72,1,14.57.09,1.13,0,1.89-1.45,1.86C440.76,425.46,438.44,425.5,435.26,425.5Zm-5.8-30.2c2.57.19,4.46,0,4.68-2.44a49.68,49.68,0,0,0,0-7.42,3,3,0,0,0-2.93-3c-.53-.05-1.63.73-1.65,1.15C429.4,387.49,429.46,391.36,429.46,395.3Z"/><path class="cls-3" d="M354.56,412.47c-.93,3.55-1.91,7.09-2.75,10.67-.41,1.73-1.13,2.67-3.09,2.43a24.8,24.8,0,0,0-4.56-.08c-1.89.13-2.52-.57-2-2.38,1.38-4.67,2.74-9.33,4.12-14a15.81,15.81,0,0,1,.73-2c2.31-5.07,2-10,0-15.19-1.95-5-3.17-10.24-4.68-15.38a18,18,0,0,1-.29-2.09c2.95,0,5.71-.12,8.45.1.58,0,1.31,1.27,1.54,2.08,1,3.37,1.8,6.79,3.18,10.28.94-3.28,2-6.53,2.75-9.86.47-2.21,1.31-3.11,3.66-2.75a43.09,43.09,0,0,0,6,.05c-.88,3.41-1.64,6.55-2.5,9.65-1.28,4.62-2.83,9.18-3.87,13.85a11.83,11.83,0,0,0,.56,5.62c1.86,6.37,3.92,12.68,5.91,19,.81,2.58.44,3.07-2.29,3.09-6.5,0-6.49,0-8.3-6.22-.67-2.34-1.39-4.66-2.09-7Z"/><path class="cls-3" d="M511.91,402.89c0-6.08-.07-12.16,0-18.24a12.18,12.18,0,0,1,5.27-9.83c6.13-4.49,16.39.32,17,7.86.21,2.39,0,4.81.08,7.21,0,1.38-.6,1.93-1.86,1.88a31,31,0,0,1-5-.37c-.54-.11-1.17-1.13-1.29-1.82-.31-1.8-.19-3.69-.6-5.46-.21-.88-1.11-2.1-1.85-2.22a2.28,2.28,0,0,0-2.7,2.37c-.08,1.67,0,3.35,0,5q.1,11.52.22,23.06c0,.72-.29,1.63,0,2.12.63.93,1.52,2.09,2.48,2.29,1.44.31,2.31-.92,2.39-2.38.1-1.75,0-3.52.07-5.28,0-.48,0-1,0-1.45a1.74,1.74,0,0,1,2.46-1.77c1.94.81,5.38-1.48,5.8,2a35.08,35.08,0,0,1-.61,9.78c-.8,4.67-3.56,7.12-8.17,7.9s-9.31-.86-11.2-4.71a31.42,31.42,0,0,1-2.63-9.1c-.44-2.9-.1-5.92-.1-8.89Z"/><path class="cls-3" d="M380.71,404.37c0,6.2,0,12.11,0,18,0,2.79-.38,3.22-3.15,3.15-5.67-.14-5.79-.14-5.88-5.85-.15-9.88-.12-19.76-.23-29.64,0-2.73-.48-5.38.73-8.09.5-1.14-.46-2.86-.51-4.32a15.21,15.21,0,0,1,.33-2.89c2,0,3.46,0,4.87,0,4.44-.17,9.11-1.45,13.11,1.33,4.3,3,5.09,7.81,5.05,12.59a32.87,32.87,0,0,1-1.43,9.62c-1.36,4.23-4.58,6.41-9.21,6.11C383.3,404.31,382.2,404.37,380.71,404.37Zm-.46-15.19h.08c.09,1.67.21,3.34.25,5,.05,1.89,1.12,2.22,2.53,1.5.86-.44,2.09-1.32,2.12-2a51.78,51.78,0,0,0-.45-9.4c-.09-.59-2.16-1.06-3.36-1.18-.31,0-1,1.45-1.12,2.29A25.57,25.57,0,0,0,380.25,389.18Zm-7.61,5.15c1.56-2.29,1.53-4.05,0-5.37Z"/><path class="cls-3" d="M469.33,403.29v13.47c2.69,0,5.22.1,7.73,0,1.69-.09,2.3.51,2.37,2.16.29,6.53.33,6.54-6.24,6.61-3.2,0-6.42-.12-9.61.08-2,.13-2.61-.59-2.59-2.4,0-3.91.05-7.83,0-11.75-.09-8.16-.23-16.33-.31-24.49,0-3.52,0-7.05,0-10.57,0-1.49.6-2.17,2.14-2.17,4.56,0,9.12-.08,13.68-.15,1.6,0,2.52.49,2.6,2.33.3,6.27.32,6.3-5.86,6.27a5.28,5.28,0,0,0-2.14,0c-.68.31-1.6,1.05-1.64,1.66-.18,2.78,0,5.59-.12,8.38,0,1.52.47,2.26,2.05,2.14.47,0,.95,0,1.42,0,3.26-.15,3.67.25,3.48,3.44-.27,4.84-.27,4.84-5.18,5C470.65,403.3,470.18,403.29,469.33,403.29Z"/><path class="cls-3" d="M407.08,394.64a19.35,19.35,0,0,0,3.9.27c2.24-.31,3.17.51,2.93,2.73a6.12,6.12,0,0,0,0,1c.21,5.71-.82,4.91-4.92,4.65-1.31-.09-2,.34-2,1.71,0,3.82,0,7.63,0,11.77,2.73,0,5.09.08,7.45,0,1.84-.08,2.75.55,2.53,2.49a16.16,16.16,0,0,0,0,2.41c.19,3.91.19,3.86-3.8,3.83-3.76,0-7.52.11-11.28.13-2.87,0-3.27-.35-3.27-3.1q-.08-21.5-.09-43c0-5.18,0-5.19,5.46-5.31,3.29-.07,6.57-.13,9.86-.13,2.57,0,3.11.63,2.95,3.16-.35,5.44-.35,5.41-5.89,5.46-1.31,0-2.62.27-3.83.39Z"/><path class="cls-3" d="M546.89,416.79c2.92,0,5.46-.08,8,.06.69,0,1.85.7,1.91,1.18a25.54,25.54,0,0,1,.06,6c-.06.58-1.26,1.45-2,1.47-4.65.11-9.31-.06-14,.05-1.81,0-2.41-.6-2.4-2.33,0-6.73,0-13.46,0-20.19,0-8.73,0-17.46-.14-26.18,0-1.87.48-2.61,2.43-2.59,4.56.06,9.13-.08,13.69-.09,1.52,0,2.27.58,2.2,2.35-.21,6.18-.15,6.18-6.31,6.13-3.65,0-3.61,0-3.52,3.71.07,2.77,0,5.54,0,8.59,2,0,3.55-.07,5,0,.55,0,1.52.49,1.53.79a60.93,60.93,0,0,1,0,6.89c0,.26-1,.6-1.6.65a24.72,24.72,0,0,0-3.34,0A2.31,2.31,0,0,0,547,404.9C546.83,408.81,546.89,412.72,546.89,416.79Z"/><path class="cls-3" d="M328.85,416.67c2.68,0,4.9.1,7.11,0,1.94-.13,3.14.27,2.91,2.54a16.61,16.61,0,0,0,0,2.64c.22,3.35-.21,3.77-3.49,3.73-4.16-.05-8.33-.11-12.49,0-1.8.05-2.4-.55-2.38-2.32.06-7.29,0-14.58,0-21.86,0-8.24,0-16.47-.14-24.71-.05-2.14.73-2.63,2.6-2.6,4.4.07,8.81.15,13.2,0,2.05-.08,2.54.85,2.54,2.54,0,.08,0,.16,0,.24-.25,5.81-.25,5.79-6.17,5.85a30.55,30.55,0,0,0-3.36.37v11.85a36.73,36.73,0,0,0,4.62,0c1.6-.21,2,.56,2,1.89,0,.48.05,1,.05,1.45,0,4.77,0,4.81-4.7,5-1.54.06-2.34.51-2.3,2.22C328.9,409.14,328.85,412.89,328.85,416.67Z"/><path class="cls-3" d="M447.92,404.23c0-8.85,0-17.71,0-26.57,0-3,.53-3.63,3.27-3.54.31,0,.61.2.92.23,1.61.17,3.87-.27,4.68.62s.49,3.15.48,4.8c-.05,6.15-.22,12.31-.27,18.47q-.08,12.12,0,24.23c0,2.58-.37,3-3,3.06-1.37,0-2.73,0-4.09,0-1.67.06-2.3-.83-2.3-2.36q0-9.48,0-18.94Z"/><path class="cls-3" d="M335.83,466.56a19.25,19.25,0,0,1-4.67-.11c-.64-.17-1.24-1.5-1.38-2.38-.28-1.82-.79-2.82-3-2.76s-1.82,1.58-2,2.81c-.38,2.49-2.15,3.51-4.46,2.38a2,2,0,0,1-.7-1.7c1.26-9.48,2.58-18.95,3.9-28.42.18-1.31.88-1.81,2.29-1.81,4.7,0,4.63-.07,5.39,4.58,1,6.31,2.17,12.6,3.25,18.9C334.92,460.71,335.32,463.37,335.83,466.56Zm-8.5-18.51-.38.12c-.31,2.65-.61,5.29-.94,8.13l2.64-.17Z"/><path class="cls-3" d="M366,442.61c0-2.19.05-4.09,0-6-.09-2.78,2.07-1.77,3.41-2,1.5-.27,1.77.51,1.76,2-.07,8.78,0,17.56,0,26.34,0,.16,0,.32,0,.48.11,3.35-1.23,4.2-4.56,3a2,2,0,0,0-1.28,0c-3.32,1.29-6.15,0-6.62-3.52a104.9,104.9,0,0,1-.49-11.23,33.15,33.15,0,0,1,.26-4.78C359.09,442.41,361.29,441.08,366,442.61Zm-.17,11.68H366a53.44,53.44,0,0,0-.06-5.52c-.08-.77-.81-1.48-1.24-2.21-.45.72-1.28,1.43-1.3,2.16-.09,3.77,0,7.53.1,11.29,0,.71.71,1.39,1.09,2.09.41-.68,1.11-1.34,1.17-2C366,458.15,365.85,456.22,365.85,454.29Z"/><path class="cls-3" d="M463.94,450.1c0-3.12-.17-6.26,0-9.36.29-4.31,2.88-6.71,6.92-6.78,4.39-.08,6.73,2,7.28,6.56a19.24,19.24,0,0,1,0,2.15c0,3.26,0,3.17-3.25,3.12-1.8,0-2.49-.64-2.27-2.42a4.71,4.71,0,0,0-.08-2.37,2.64,2.64,0,0,0-1.7-1.39c-.42-.06-1.41.87-1.41,1.36,0,5.92,0,11.85.18,17.77,0,.83,1,2.22,1.68,2.3,1.63.21,1.38-1.32,1.43-2.41,0-.4,0-.8,0-1.2-.14-2.87.06-3,2.81-3.11,2.42-.12,2.9,1.07,2.62,3.11-.12.87-.09,1.76-.15,2.64-.24,3.82-2.54,6.41-5.94,6.7-4,.34-6.87-1.68-7.7-5.66a37.31,37.31,0,0,1-.59-5.49c-.09-1.84,0-3.68,0-5.52Z"/><path class="cls-3" d="M488.56,442.38c4.77-1.22,7.12.26,7.37,4.91.31,5.84.3,11.7.28,17.56,0,.58-.94,1.47-1.6,1.66a15.65,15.65,0,0,1-3.7.07V450.26a7.33,7.33,0,0,0,0-2.15c-.16-.53-.79-.91-1.21-1.36-.43.44-1.22.86-1.24,1.32-.15,3.43-.17,6.86-.19,10.29,0,2.24,0,4.48.08,6.72.08,1.72-1,1.82-2.19,1.7s-3,.65-3.07-1.6c-.07-2.64,0-5.28-.05-7.92-.05-6.73,0-13.46-.23-20.19-.11-2.95,1.8-2.37,3.43-2.57,1.91-.24,2,1,2,2.38C488.25,438.7,488.44,440.52,488.56,442.38Z"/><path class="cls-3" d="M344.85,443.15l1.76-.76c3.2-1.34,5.92.14,6.16,3.65.3,4.39.26,8.8.35,13.2,0,1.77,0,3.53,0,5.29,0,1.21.09,2.46-1.61,2.21-1.5-.22-3.87.86-3.89-2.11s0-6.24,0-9.36c0-2.08.17-4.17,0-6.25a6.89,6.89,0,0,0-1.12-2.3c-.53.76-1.51,1.51-1.53,2.28-.12,4.88,0,9.77,0,14.65,0,3-1.45,4.08-4.35,3a2.09,2.09,0,0,1-1-1.59c-.13-6.88-.21-13.75-.18-20.63a2.73,2.73,0,0,1,1.32-2.13,13.74,13.74,0,0,1,3.77.14Z"/><path class="cls-3" d="M435.9,454.84a61.77,61.77,0,0,1-.92,8c-.65,2.73-2.66,3.91-5.58,4s-5.44-1.23-6.25-3.86a19.35,19.35,0,0,1-.58-5.17c-.06-3.28-.06-6.56.07-9.83s2.09-5.56,5.13-6c3.41-.5,6.46,1.14,7.25,4.46C435.67,449.09,435.62,451.94,435.9,454.84Zm-5.55-.34h.07c0-2.06.12-4.14-.07-6.19-.06-.64-.94-1.2-1.45-1.8-.36.61-1,1.21-1,1.83q-.09,5.94.1,11.88c0,.6.71,1.19,1.09,1.78.42-.59,1.17-1.15,1.22-1.77C430.45,458.34,430.35,456.42,430.35,454.5Z"/><path class="cls-3" d="M381.83,455.37c0,1.82-.1,3.46.05,5.08.05.56.72,1.05,1.11,1.58.46-.47,1.15-.86,1.33-1.42a9.79,9.79,0,0,0,.19-2.53c.19-.15.32-.35.42-.34,1.6.18,3.67-1.16,4.67,1s-1,6.5-3.14,7.39c-2.38,1-4.95,1.36-7.09-.34s-2.86-4.15-2.72-7-.39-5.86-.16-8.75a13.31,13.31,0,0,1,1.79-5.79c1.51-2.45,4.16-2.82,6.84-2.17s3.83,2.6,4.24,5a47.54,47.54,0,0,1,.4,6.22c.07,1.46-.53,2.2-2.14,2.09S384.11,455.37,381.83,455.37Zm3.41-5.79-2-3a10.08,10.08,0,0,0-1.35,2.68c-.16,1-.42,2.56,1.34,2.38C383.85,451.54,384.39,450.47,385.24,449.58Z"/><path class="cls-3" d="M522.46,453.75c0-1.92-.12-3.85,0-5.76a6.4,6.4,0,0,1,6.23-6.13c3.9,0,6.29,2.27,6.61,6.17,0,.16,0,.32,0,.48,0,2.07.79,4.74-.21,6-.84,1.1-3.74.71-5.74.8-1.33.07-1.91.57-1.82,1.89a13.51,13.51,0,0,0,.15,2.86c.18.63.9,1.11,1.38,1.66.44-.57,1.32-1.2,1.25-1.7-.49-3.35,2-2.47,3.57-2.46,2.36,0,1.68,1.91,1.53,3.22-.44,4.09-2.21,5.86-5.82,6.06s-6-1.4-6.81-5.26a73.14,73.14,0,0,1-.72-7.85Zm6.55-7.2c-1.44,1.37-2.07,2.81-1.13,4.52a2.57,2.57,0,0,0,1.52.83c.24.07.88-.34.88-.52C530.28,449.75,531.15,447.88,529,446.55Z"/><path class="cls-3" d="M407.4,460c0,2.39-.2,4.76-2.61,6a7.7,7.7,0,0,1-7.81-.34c-1.61-.95-3.28-5.11-2.39-6.59.41-.69,1.86-1.06,2.82-1,.68,0,1.42.87,2,1.49.24.28-.08,1,.15,1.36s.9,1,1.37,1,1.06-.94,1-1.25a10.88,10.88,0,0,0-1.73-3.63c-1.13-1.31-2.78-2.18-3.95-3.47a7.85,7.85,0,0,1-.57-9,7.19,7.19,0,0,1,8-2.33c2.61.81,4.74,4.87,3.41,7.21-.42.76-2.3.81-3.54.9-.35,0-.83-.92-1.16-1.48a17.76,17.76,0,0,0-1-1.95c-.08-.11-1.26.24-1.32.52-.18.79-.37,1.93.05,2.41a20.78,20.78,0,0,0,3.62,3.1C406.39,454.9,407.36,456.65,407.4,460Z"/><path class="cls-3" d="M447.18,439.26c-.17.87-.31,1.57-.48,2.46,1.75-.08,2.87.34,2.93,2.41s-.75,2.94-2.75,3c0,6-.1,11.78.05,17.59.05,1.7-.53,2.23-2,2.07s-3.35.69-3.27-2.13c.16-5,.08-10.05,0-15.08,0-1.24.46-2.71-1.55-3.2-.39-.1-.65-1.91-.46-2.82s1.08-1.42,2.08-2.63c.66-6,1.9-7.15,7.26-6.28C450,438.08,449.63,439.13,447.18,439.26Z"/><path class="cls-3" d="M512.14,466.39V434.54h5c.1.95.26,1.73.26,2.5,0,9.27-.11,18.53-.12,27.8,0,1.5-.62,2-2,1.86C514.34,466.59,513.47,466.52,512.14,466.39Z"/><path class="cls-3" d="M506.46,442.52V466.2c-.26.2-.32.28-.38.29-4.92.52-5,.42-4.89-4.47.08-5.27.15-10.54.05-15.81C501.16,442,500.53,441.79,506.46,442.52Z"/><path class="cls-3" d="M506.47,434.42c.11,2.12.19,3.68.27,5.4h-5.33c.07-1.59-.42-3.63.38-4.58S504.64,434.68,506.47,434.42Z"/><path class="cls-3" d="M266.36,155.16c2.58,1.85,3.54,4.52,4.25,7.5,2.59,10.92,5,21.85,4.79,33.52L258,181c-2.9,2.29-5.51,4.4-8.18,6.43-2.4,1.83-3.44,1.77-5.69-.22-6.06-5.36-12.1-10.75-18.4-16.34-.9,1.05-1.83,2-2.63,3.07-4.42,5.9-8.87,11.79-13.2,17.76-1.26,1.74-2.41,2.17-4.06.67a7.85,7.85,0,0,0-1.17-.84c-3.14-1.94-3-1.84-5.6.81-3.75,3.9-7.66,7.63-11.5,11.44l-.67-.29a91.45,91.45,0,0,1,1-9.38c1.37-6.75,2.88-13.47,4.66-20.12a8.55,8.55,0,0,1,3.33-4.39,29.5,29.5,0,0,0,7.64-8.19c1.87-2.76,4-5.37,6-8l.82.06.88,4.6,1.54-.69,1.06,5.41c5.49-9.52,9.73-19.15,16.92-27.9a18.17,18.17,0,0,1,.67,3.3,38.68,38.68,0,0,1-.4,5.26c-.45,3-.51,5.6,2.88,7.25,1,.48,1.41,2.56,1.62,4a45.1,45.1,0,0,1,.07,6.16l7-6.56,11.9,10.46c.44-2,.69-3.69,1.23-5.31s.49-3.69,3.19-2.93c-1.11-3-3.81-5.21-3.8-9.14L266,154.57C266.09,154.77,266.22,155,266.36,155.16Zm-69,28.35-3.33-2.14-.25.33,4.68,4.88c1.76-1.55-1.25-1.89-1.11-3.07,1.5.12,3,.29,4.5.29.16,0,.54-1,.44-1.46a10.56,10.56,0,0,0-.94-2.17l-.52,1.29Zm23.18-24.66c-3.24.41-3.49,2.23-.88,6.83l4.32-3.76a5.34,5.34,0,0,1-1.39,2.17,10.6,10.6,0,0,0-1.92,2.52,2.16,2.16,0,0,0,.55,2c.41.29,1.37-.21,2.09-.36l-.13-.62h-1.4l0-.71h5.64l-.14-3.05h-2.21c.81-1,1.48-1.85,2.07-2.71a6.66,6.66,0,0,0,.61-1.39,4.38,4.38,0,0,0-1.69-.3,7.25,7.25,0,0,0-1.78,1.12l-4.74,3.14c-1-1.76-1.48-3.07.67-3.88.21-.08.21-.72.3-1.11l2.91-1.53L222,154.72C220.9,156.28,219,157,220.58,158.85Zm15.18,10.47c.34-1.07,1.29-2.74.92-3.12a48.69,48.69,0,0,0-5.46-4.38l-.53.44,4.16,5-.46,2.11,1.42-.12,1,1.67-3.17.4,4.35,5.24,4.07-2.46c-3.4,6.11,2,7.33,4.49,10.49,2.59-1.8,5-3.57,7.53-5.2,1.3-.84,2.9-2.16,4.12-1.93,1.82.33,3.5,1.75,5.1,2.89,1.2.85,2,2.46,3.3,2.89a4.12,4.12,0,0,1,3,2.67,2,2,0,0,0,1.35.84c.25,0,.92-.71.89-.76-.73-1.11-1.54-2.16-2.32-3.22l-.2.1-1.86-2.79c.9-.37,2.49-.58,2.65-1.17a19,19,0,0,0,.13-4.73l-2.14,1.24c2-1.4,2.08-3.13,1.11-5.18l-1.17.88.46-5-2.6,1.12a10.71,10.71,0,0,1-.84-1.15,16.14,16.14,0,0,1-.71-1.58c-.22.5-.45,1-.82,1.79l-4-6.27c-1.12,3-1.64,5.77,1.88,7.34l-2.89-.51c.84,1.76,1.22,3.27,2.14,4.28,1.32,1.42.91,2.09-.16,2.67l-10.74-5.05.52,2.9-.35.14-2.53-3.18,6.06-.7a21.18,21.18,0,0,0-1.86-1.91c-.46-.4-1.23-.94-1.64-.79-1.61.58-1.54,0-1.69-1.4-.11-1.06-1.35-2.06-2.23-2.94-.1-.1-1.13.73-1.74,1.13l-.79-1.21-1.56,1.82-.37-.34,1.95-3.81-.75-.58c-1.16,1.42-2.34,2.81-3.47,4.25-1.89,2.4.23,3.47,1.6,4.82.77.75,1.44,1.61,2.16,2.42-2,0-2.5-3.06-4.94-1.76l1.07,1.86ZM218,173.88c.08,0,.18,0,.23,0s.06-.15.06-.23c-.06-1.71-.19-3.42-.17-5.13s-1.1-2.4-2.75-1.83a13.49,13.49,0,0,1-3,.44l.46,1.62-5.28.25,1.21,4.42c-2.81-1.52-2.81-1.52-4.66.78l2.69,1.48-.55.13.61,3.1-1.16-.11a9.37,9.37,0,0,1-.27,2.75c-.94,2-.24,3.29.88,4,.74-1.14,1.18-2.59,2.14-3.13,1.32-.75,3-.8,4.56-1.19a1.28,1.28,0,0,0,.52-.49c1.33-1.88,2.64-3.77,4.15-5.93-2.52-1.11-2.41-3-1.14-5.28Zm-26,14.47.42.32,1.71-1.28c-1.24,2.15.9,2.06,1.68,2.78,1.2-3.19.87-4.3-1.7-5.4Zm75.28-23.2.6-.42c-.49-1.21-1-2.42-1.6-3.93l-2,1.71-3.14-2.45-.54.8Z"/><path class="cls-3" d="M228.8,184c.41,2.37.94,4.73,1.21,7.11.24,2.12.75,3.84,2.89,4.86,1.75.84.9,2.44.74,3.84-.1.84-.22,2.26.21,2.5,5.7,3.31,8.16,9.33,12.06,14.13.26.31.5.63.77.92a3.14,3.14,0,0,0,.67.4c-.15-3.53-.3-6.88-.47-10.65l7.88,2.38.51-.91L248.15,201c2.9-2.61,5.71-5.15,8.31-7.51,1.76,3.72,3.59,7.61,5.56,11.79l2.12-2.38c3.29,2.44,6.66,4.85,9.9,7.42a2.9,2.9,0,0,1,.73,2.33c-.77,5.3-1.43,10.63-2.62,15.85s-3,10.61-4.55,15.89a19.65,19.65,0,0,1-1.23,2.63,17.68,17.68,0,0,1-1.77-1.4c-4.12-4.26-8.26-8.49-12.28-12.84-1.32-1.43-2.59-.79-3.64-.12-5.85,3.74-5.48,2.79-10.08-2.26-3.54-3.89-7.15-7.73-11-11.88-2.71,4.06-5.11,7.71-7.56,11.34s-4.82,7.19-7.39,10.66a3,3,0,0,1-2.51.77,23.52,23.52,0,0,1-4.79-1.56c-1.77-.74-3-.21-4.13,1.23-3.45,4.29-7,8.51-10.89,13.2-.76-4.41-1.57-8.45-2.12-12.51-.75-5.4-1.25-10.83-1.95-16.23a6.14,6.14,0,0,1,1.89-5.58c4.2-4.31,8.2-8.8,12.29-13.2a2.51,2.51,0,0,1,1.6-.85c-.86,2.5-1.73,5-2.67,7.74l3.74-.36c-.52,2.42-1,4.57-1.45,6.72l.49.36A245,245,0,0,0,228.07,184Zm-11.92,42c3-.89,3.63-1.91,2.52-4.49l1.32.54,4.44-6-2.78-2,5.82-.94c1,1.33,1.83,3.21,2.52,3.17,2.17-.15,2.07,1.84,3.1,2.68s1.31,2.14,2.18,3c1.13,1.13,2.65,1.89,3.74,3.05,1.79,1.92,3.37,4,5.11,6.14a8.51,8.51,0,0,0,2-1.33c1.87-2.3,4.62-2.54,6.66-.57,1.84,1.77,3.71,3.5,5.66,5.14.36.31,1.13.15,1.7.21,1.36,1.82,2.75,3.7,4.22,5.66a55.79,55.79,0,0,0,2.49-5.64c.63-2,.49-4.25,1.4-6s-.22-3.4.8-5.12,1.2-3.94,1.51-6,.28-3.93.39-5.74l-7.65-6a4.86,4.86,0,0,1-.61,1c-.61.56-1.27,1.06-1.91,1.59-.35-.65-.69-1.3-1-1.94l-1.61-2.92H255c1.92,2.65,3.87,5.42,5.94,8.09.34.45,1.23.48,1.87.7l0,.45-8.79-.62.11-.46-3.3.89v6.55l1.35-.54q-1.09,2.25-2,4.18l-2,.57-9.65-12.64-1.64,1c.29-5.27-4.81-6.07-7.15-9.36a31.83,31.83,0,0,0,1-3.55c.09-.46-.37-1-.65-1.55a17.12,17.12,0,0,1-1-1.66c-.8-1.88-1.53-3.8-2.26-5.62-2.34,3.87-4.72,7.77-7,11.73-.25.41,0,1.13.08,1.71l-.36-.48-5.68,6.64,2.3,3.34,3.95.59-4,2.78.93-2.15-4.27.21.19-2.4-2.82,2.4,2.18,1.16-.25.47-2.58-.33-4.09,5.59,1.58-.3,1.43,4.4-2.3.2.71-2.34-.5-.25-1.43,1.31-2-1.06-2.25,2.72c2.18,2,4.09,7.52,3.23,9l3.19,1.14c1.18-1.31,2.19-1.19,3.15,1l.27-3.51h3.05l-.78-1.56c2.95,0,2.84-2.66,4.14-3.82l-2-1.5h2.85v-.48ZM193.8,242.8c1.44.48,3.13-1.55,2.91-3.54a48,48,0,0,1,0-5.23h.54l.6,5.36,2-2.27c-1.28-2-2.92-4.23.83-5.52.19-.06.08-1.06.07-1.62a6.59,6.59,0,0,0-.35-1.19l-.86,2.53-1.07-1.26-1.2,1.85c-1,.13-2.1,0-2.35.37-1.11,1.79-2.36,1.92-4.29.89.4,1.08.79,2.16,1.15,3.15l-1,.37c1.48,2.82,2.31,5.55,1.62,8.67l.86,0Zm1.9-24.19c1.91,2.61-.73,1.84-1.89,2.43.47.4.75.62,1,.85s.51.48.94.88c-2.55-.26-3.4.16-3.78,1.68l2.44-.92-.14,1.72a22.16,22.16,0,0,0,2.89-2.64,16.89,16.89,0,0,0,1.57-3.12Z"/><path class="cls-3" d="M157.71,237.53c-2.19,0-4.39.13-6.57,0-3.94-.27-4.47-.69-5-4.61s-.82-7.8-1.18-11.7a3.68,3.68,0,0,1,3.41-4.4c3-.47,6-.78,9.06-1,5.91-.44,11.83-.77,17.74-1.16,4.88-.33,6.7,1.07,7.28,6q1.54,13.25,2.89,26.52c.43,4.27-1,6.26-5.1,7.36-8.36,2.22-16.74,4.35-25.11,6.49a4,4,0,0,1-5.26-3.1c-.83-4.07-1.46-8.19-2.1-12.3-.33-2.14.73-3.42,2.73-4.21,2.49-1,4.91-2.16,7.36-3.25Zm20.21,1.33,2.27-1.86-.07-.62-3.16-.17-.3-1.2,2.78-.34-2.18-1.81c2.1-.79,2.26-2,1.09-3.26,0-2.42.66-4.68-.17-6-.94-1.46-3.22-2.06-5-3.08,1.14-1.94,2.49,1.24,4.38.23-.75-1-1.31-2.65-2.2-2.86-3.07-.75-4.8.36-6,3.28l2.56-.19c-1.11,2.05-1.75,4-3,5.39a11.61,11.61,0,0,0-3.35,7.74,23.86,23.86,0,0,1-.9,4.51c-.35,1.56-1.23,3.19-1,4.64.32,1.89-.8,2.59-1.59,3.83-1.72,2.73-4.53,5-4.34,8.67l.78.26,1-4.11,1.86.93-.95.76a2,2,0,0,0,1.86-.1c.88-.49,1.48-1.67,2.64-.06.6.83,1.86.66,2.22-.89.57-2.44,2.32-4.83-.39-7.26l4-.88.31.39-2,1.85,5.4,5.42.58-.64-1.78-1.5a4.2,4.2,0,0,1,2.37-.37,13,13,0,0,0,1.72-.25c-.62-2.55,1.59-1.41,2.41-2.12l1.45,2.27.75-.31c-.45-1.25-1.4-2.57-1.26-3.75a6.18,6.18,0,0,0-2.44-6.25,2.2,2.2,0,0,1-.3-.37Zm-19.66,9.83.66.12,2.22-4.19-1.7-1.39Z"/><path class="cls-3" d="M187.35,381.5c-2.47-.61-4.69-1.17-6.92-1.69a3.38,3.38,0,0,1-2.79-3.41c-.17-2.55-.45-5.11-.47-7.67,0-4.4,1.38-5.86,5.81-6.22,7.5-.62,15-1.18,22.5-1.75a4.74,4.74,0,0,1,1.19,0c2.17.39,3.71,1.53,4,3.82,1,7.14,1.88,14.29,2.81,21.43a4.34,4.34,0,0,1,0,.72c-.07,3.1-5,8.74-8.06,8.94-7,.45-13.52,2.94-20.32,4.26-4.11.79-5.69-.08-6.11-4.28-.24-2.39-.39-4.78-.6-7.18-.27-3,.35-4,3.27-4.89,1.67-.53,3.36-1,5-1.53C186.89,382,187,381.87,187.35,381.5Zm5.67-9.18,1.19,1.6c2.15.23,2.86,1.22,3,4.27L194,383.77l1.32,1a10,10,0,0,0,1.47-2.55,26.87,26.87,0,0,0,.38-4.13l2,1.18-1.6,2.12c.7.37,1.41,1,2.08,1,.48,0,1.09-.94,1.29-1.57a24.84,24.84,0,0,0,.64-3.48c.44.45,1,1.34,1.3,1.26,1.5-.36,2.58-.36,2.66,1.58,0,.73.09,1.46.19,2.18.4,2.93-.09,3.8-2.93,4.54l3.91,2.26c-1.51-2.41-1.47-2.91.49-5.32v3.64c.43-.07,1.06-.06,1.09-.2a15,15,0,0,0,.78-4,77.34,77.34,0,0,0-.72-7.89c0-.3-.78-.52-1.2-.78,1.32-1.79.49-6.42-1.37-6.9l1.62-2.52-5.85-.48,1.64,2.74c-4.17-3.48-4.7-3.39-6.33.54l-1.74-2.32-3.1,3.22-.37-.33,1.15-3.34-4.17,1.57c1.51,1,1.18,1.85-.13,2.37l1.17,3.13,1-1,.74-.77C192,371.17,192.52,371.74,193,372.32Zm-.38,5.35-1.42-5.2C190.61,374.57,189.68,376.79,192.64,377.67Z"/><path class="cls-3" d="M170.66,288.59c-3.28.21-6,.41-8.83.57a3.82,3.82,0,0,1-4.2-2.88c-1.36-4.18-2.7-8.37-3.93-12.6a4,4,0,0,1,2.77-5.13c3.08-1.08,6.22-2,9.38-2.76,5.91-1.44,11.83-2.83,17.78-4,3.11-.63,4.37.2,5.16,3.22A162.19,162.19,0,0,0,199,294.17a14.34,14.34,0,0,1,.82,2.5c.75,2.7.25,4.28-2.3,5.57-4.65,2.33-9.36,4.53-14.12,6.64-3.72,1.65-7.52,3.15-11.34,4.55-3,1.1-5.06.22-6.17-2.68-1.51-4-2.81-8-4.13-12a4.6,4.6,0,0,1,2-5.63C166,291.62,168.2,290.2,170.66,288.59Zm9,9.08c.86.08,1.92-.31,1.6,1.42-.15.79.71,1.78.87,2.14l-.36,4.1,2.71-2.16c-.41-.94-.93-2.31-1.58-3.62-1.29-2.62-1.31-2.61-.3-3.47l.75,1.78c.91,2.61,2.71,1.62,4.61,1l.89,2.74c1.38-.64,2.61-1.23,3.85-1.78s2.68-1.13,4.31-1.82l-2.77-3.67-2.37,3.85c-.81-.73-1.14-4-.21-4.59l.55,2c1.82-1.45,2.12-3,1.23-4.73-1.1-2.17-2.54-4.2-3.35-6.46-1.16-3.23-1.84-6.63-2.81-9.93-.61-2-1.4-4-2.2-6.32a9.82,9.82,0,0,0,0-2.16,39.06,39.06,0,0,0-5-.35l1.58,3.32-.61.33-1.75-3.86c-1.11,2.53-2.54,4.42-2.7,6.42-.24,3.08,1.71,5.36,4.5,6.64l-.82,2.27h5.09l-.87,1.41-2.72-.78.19,3.08c1-.4,1.54-.66,2.13-.83.08,0,.29.32.43.5L182,285.42c-2.57-4.49-5.09-8.87-7.7-13.41l-2.77,2c.85,1.36,1.56,2.49,2.26,3.63l-.66.64-9.42-8.1c-2.54.64-2.66.82-2.45,4.05.05.75-.22,1.53-.15,2.27,0,.36.54.66.83,1a20.64,20.64,0,0,0,1.27-3.14c.1-.44-.46-1-.72-1.57l.64-.31c1.92,3.14,1.92,3.87.09,5.14l1,2.44-3-.58-.52,6,3.66-2.7c.08,1.74.64,2.42,2.78,1.81s4.52-.5,6.79-.7c-.32-1.6-.32-1.6,2.13-2.38-.81,1.36.44,5.29,1.88,5.82.23.09.53-.05.8-.07s1-.19,1.2,0c1.49,1.91,2.9,3.88,4.33,5.83l-4.1-3.52,1.45,4.85c-.89,1.5-1.44,2.42-2,3.31-2.33-1.55.11-3.19-.23-4.89a6.08,6.08,0,0,0-1.43,3.69c.11,1.21,1.06,2.35,1.63,3.53l.51-.26Zm-4.41,2.7L168,294.08l-3.65,3.41.56.56.88-1.26c.43,1.3.73,2.32,1.1,3.31a10.51,10.51,0,0,0,.72,1.31h-1.54c.87.92,2.57,1.17,2.81,1.9.35,1.05-.35,2.45-.64,3.84l1.77,1-1.23,1c2.54,2.06,4-1.11,6.26-.74l-2.11-5c2.5.56,4,4.2,7.3,1.82-.81-.6-1.85-.64-2.61-1.13a12.39,12.39,0,0,1-2.8-2.61C174.65,301.3,175.24,300.44,175.26,300.37Zm1-5.65c.37-2.31.72-4.44,1.11-6.84C173.2,290.73,173,292.28,176.3,294.72Zm-7-23.08L167.69,269l-.58.27,1.81,5,.94-.05,1.21-3.36-.63-.23Zm4.45,21.82L171.78,292l-2.08,1.48C171.09,296.45,172.32,292.83,173.72,293.46Z"/><path class="cls-3" d="M205.36,297.38c-1.36-2.36-2.85-4.3-3.66-6.49-2.6-7.05-5-14.18-7.35-21.33a3.46,3.46,0,0,1,.35-2.85c4.06-4.7,8.28-9.26,12.44-13.87l.75.23a41.18,41.18,0,0,1-.93,4.83c-.47,1.48-.12,2.24.94,3.48,1.69,2,2.67,4.55,4.07,7.08,2.46-3,5.18-6.12,7.66-9.42,1.16-1.55,2.05-1.63,3.5-.52s3.27,2.21,5.46,3.66c-.31-2.85-.67-5.1-.74-7.36,0-1.18,0-2.91.73-3.48,3-2.4,2.72-5.26,1.75-8.36-.52-1.68-1.15-3.34-1.52-5a15.12,15.12,0,0,1,0-3.23l.93-.25q10,12.41,19.94,24.85c.54-2.68,1.1-5.48,1.53-7.58,3.19,2.77,6.37,5.45,9.42,8.26a2.51,2.51,0,0,1,.21,2.17c-2.55,7.08-5.14,14.15-7.83,21.18-.7,1.82-2,2.4-4.05,1.38-5.23-2.59-10.54-5-15.84-7.46a4.42,4.42,0,0,0-5.07.95q-9.06,7.73-18.15,15.38Zm39.1-19.73.58.22,3.23,1.87c1.44-1.12,3-1.73,3.48-2.82a60.4,60.4,0,0,0,2.6-7.76c.07-.25-.41-.63-.52-1-.25-.77-.42-1.57-.62-2.35l2.39-.41c.26,0,.53,0,.8-.06-.81-.73-1.83-1.54-2.64-1.37a21.46,21.46,0,0,0-4.15,1.69,24.22,24.22,0,0,0-1.23-3.4,22.24,22.24,0,0,0-2.29-3.26c-2.09-2.58-4.25-5.11-6.36-7.68-.91-1.1-1.74-2.25-2.63-3.36-1.16-1.44-1.59-3.72-4.13-3.57l-.91.92,3.67,1.64-.64.7-2.31-.92,1,3.49a4.37,4.37,0,0,0-3.48,5.35c.41,1.41-.38,3.21,1.51,4.33.43.26,0,2.47-.49,3.62-.4,1-1.28,2.28-2.13,2.43a5.1,5.1,0,0,1-3.68-.94,33.75,33.75,0,0,1-4-4.41c-3.3,4.14-6.21,7.85-9.2,11.5-1.2,1.47-3,1.57-3.44.15-.7-2.33-2-4.68-1.11-7.68L200,269.88c.24-2.07.42-3.6.61-5.25-.89.53-1.94.81-2.29,1.46-.53,1-1.08,3-.74,3.21,1.29.83,1.34,1.83,1.37,3.11a13.89,13.89,0,0,0,.57,4.33c1.15,3.11,2.57,6.11,3.69,8.71l2.22-2.37c.12,1.68-.73,3.22-.3,4.19.54,1.2,2.14,1.94,3.18,2.79l8.7-7.54-2.81-2.34c3.72,2.18,4.18,2,5.17-2.55l2.46.77c2.08-1.69,3.89-4.2,6.2-4.79,3.06-.8,5.46-1.63,6.27-5.21l1.9,2.18-1.83,2,5.08,3.14-1.74-4.07c2.61,1.18,1.51,5.88,5.43,4.33Zm-41.14-16.83c-.35,1.37-.59,2.41-.88,3.43s-.63,2-.95,3l.32.09,2.73-6.06Z"/><path class="cls-3" d="M157.36,187.06c-2.32-.75-4.62-1.57-7-2.22a3.82,3.82,0,0,1-3.08-4.68c.54-3.39,1.3-6.74,2.17-10.06a3.34,3.34,0,0,1,3.71-2.76c5.33.52,10.67,1,16,1.68,4.68.62,9.32,1.51,14,2.28,3.09.52,4.34,2,3.82,5.13-.56,3.31-1.53,6.55-2.07,9.86-.78,4.82-1.39,9.67-2,14.52-.54,4.47-1.89,6.07-6.41,6.44-9.25.74-18.51,1.33-27.77,1.91a3.47,3.47,0,0,1-3.82-3.89c.22-4.15.47-8.3.81-12.45.23-2.91,1.33-3.8,4.2-4.12,2.49-.27,4.95-.77,7.42-1.16Zm10,11.18c1.27-1.24,2.64-1.66,2.88-3.85.34-3.11,1.81-6.09,3-9.69l1,2.26.76-.2c-.38-1.27-.44-2.83-1.24-3.73s-2.46-1.41-3.64-2l-4.77-.78,1-2.77,2,1.89a9.33,9.33,0,0,0,.86-1.39c.27-.66.44-1.35.65-2-.81,0-1.62,0-2.43.1-.43,0-.86.36-1.28.33-3.25-.22-3.25-.24-2.24,2.64-3.69.84-2.28-2.32-3-4l-1.79.7-1.09,5.38.43.06,1.48-2.64a2.12,2.12,0,0,1-.09,1.45c-1.16,3.13-1,3.45,2,4.91,1.13.54,2.18,1.23,3.72,2.1-3.33,4-8.68,2.11-11.86,5.05l1.1,1.7-.26.21-1.3-1.1-4.54,1-.23,3.66c1.13-1,1-3.52,3.28-2.61.42.17.21,1.93.29,2.95l-.75.08-.58-1.56-.63-.13-2.44,7c3.31-1.13,1.68,1.05,2.23,2l4.52-.87c.35-.25.74.2,1.23.36,2.58.86,6.91-.78,8.32-3.09.38-.61,1.1-1.17,1.14-1.8.11-1.48.29-3.17-.33-4.4-.38-.77-2.16-.84-3.45-1.28C164.85,193,164.89,193,167.38,198.24Zm4.62,3.14.22.48-1.09,1.22c.73.08,1.26.18,1.8.19,6.11.12,7-.61,5.32-5.64a1.08,1.08,0,0,1,.08-.85c2.26-2.94.52-6.73,2-9.84.11-.23-.54-.83-.93-1.39,2.48-.9,1.17-2.5.74-3.89,3.61-.62,1.31-4,2.83-5.59.14-.15-.44-1.47-.69-1.47-2.32,0-4.8-2.35-6.56.13L174,173l-2.25,3.22,3,1-1.3,1.46a12,12,0,0,0,3.27-1.72c2-1.3,2-1.3,2.27.47-2.36-.29-3.79.91-4.41,3.85l1.81-1.48.39.31-1.58,2.46c1.8,3.52-.75,6.52-1.28,9.87l1.63-.34-6,9.72Zm-18.66-20c2.79-4.21,2.89-6.75.2-7.63l.9,2.21c-4,1-4,1-3.31,4.47l.61-3,2.54,1.69-2.4.91ZM153.15,171l.1.76,2.87,2.47.45-.68-1.24-.64.27-2.38Z"/><path class="cls-3" d="M190.81,117.22a6.46,6.46,0,0,0-.93.7c-3.2,3.46-3.47,3.46-7.76,1.37-.79-.38-2,.12-2.85-.14a46.13,46.13,0,0,1-6.53-2.35c-1.8-.85-2.17-2.8-1.09-4.76,4-7.33,8.67-14.3,14.78-20.06a169.92,169.92,0,0,1,13.94-11.76C203.9,77.55,205,78.06,207,82c.76,1.59,1.35,3.26,2.09,4.85.9,1.92.35,3-1.38,4.35-5.24,4-10.26,8.41-15.35,12.68a15.27,15.27,0,0,0-1.47,1.76c4.24-3.44,8.06-6.61,12-9.68,1.63-1.28,3.43-2.36,5.18-3.49,1.48-1,3-1.4,4.11.5,1.25,2.06,1,3.68-.89,5-2.64,1.82-5.54,3.35-7.87,5.5-4.05,3.74-7.76,7.84-11.57,11.83A5.6,5.6,0,0,0,191,117,1.89,1.89,0,0,1,190.81,117.22Zm4-28.66-.52.68c1.65,1,4.22,1.35,3,4.87l2.64-2.17Z"/><path class="cls-3" d="M210.08,447.7c-.09-.77-.15-1.22-.2-1.67-.51-4.38-.44-4.37,3.54-6.42,2-1,3.48-.57,5.24.68,3.63,2.58,7.4,5,11.25,7.22,2.51,1.47,3.27,3.2,1.69,5.7-2,3.18-4.17,6.25-6.27,9.37-1.67,2.49-3.82,3.6-7.19,2.06,2.89,3.06,1.12,5.25-.63,7.45a56.66,56.66,0,0,1-4.2,5.24c-2.49,2.47-4.4,2.4-6.85,0A68,68,0,0,1,192.76,458a16.57,16.57,0,0,1-1-3,3.19,3.19,0,0,1,1.77-4c3.27-1.68,6.5-3.46,9.83-5a4.8,4.8,0,0,1,3,.07A29,29,0,0,1,210.08,447.7Zm6.47,5.38-.94.38-2.85,1.79-4.88-4.93c-1.49,5.08,3.2,5.76,5,8.3,1.38-2.25,2.82-1,4.89-.34l-1.87,1.19c1.12.18,2.56,0,2.84.52,1.83,3.24,2.93.79,4.84-.63l-5-1,1.83-2.23-5.72-4.93-.54.6Zm3.41-6.91c-1.23,2.41-3.12,4.16-1,6.93.67.88,1.27,1.55,1.95,1.26a3.55,3.55,0,0,0,1.82-2.18,15.74,15.74,0,0,0-.09-3.93l-.6.45Zm-14.63,9.59c.39-1.42.85-2.84,1.13-4.31a3.11,3.11,0,0,0-.41-1.84c-.09-.15-1.41.16-1.41.21.2,2.63-2.31,1.49-3.3,2.4-.42.39-.8.84-1.19,1.26l.63.56,3.8-2.17C201.51,454.39,205,454.86,205.33,455.76Zm.79,14.75c-.42,1.17,2.22,3.65,4.5,3.35.48-.06.89-.61,1.34-.93a8.93,8.93,0,0,0-1.53-1C209,471.43,207.57,471,206.12,470.51Z"/><path class="cls-3" d="M242.67,491a60.85,60.85,0,0,1-24-5.13c-4.47-2.06-4.88-4.22-1.43-7.76,1.24-1.26,2.44-2.55,3.66-3.82a2.61,2.61,0,0,1,3.46-.49c19.41,9.8,39.85,4.89,54.39-9.31,1.16-1.13,2.26-1.5,3.63-.82,2.23,1.1,4.45,2.21,6.59,3.46,1.77,1,2.16,2.64.9,4.27a24.16,24.16,0,0,1-3.76,4C274,485.41,260,490.8,242.67,491ZM283,472.5c1.22-1.06,2.48-1.63,2.56-2.34a1.71,1.71,0,0,0-2.21-1.88c-.18,0-.47-.62-.64-.59-1.41.23-2.83-1.07-4.25.15-2.87,2.48-5.81,4.88-8.71,7.31,1.07,1.22,3.74,1.33,4.07,4l1-3.93,3.57-.81.8,1.35,1.46-2C282.31,474.83,282.93,474.4,283,472.5Zm-60,10.4,4.09-1.41v3.63c2.49.47,4.95,1.09,7.45,1.31.7.06,1.5-1.06,2.25-1.64l-2.21-1.62-.35.52,1.92-.75-.85-1-2.52-.27c-.08-.64,0-1.65-.26-1.77a37.83,37.83,0,0,0-5.17-1.84,22.12,22.12,0,0,0-3.32-.38l-.24-1C223.56,479,220.53,481.14,223.09,482.9Zm40.18-3.5,3.24-1.95c.08,1.39.13,2.29.18,3.32l3-1.14c-.11-2.11-1.58-3-3.41-3.1C264.87,476.44,263.32,478.3,263.27,479.4Zm-4.76,3.47c3.79,1.33,4.82.67,4.37-2.47Zm-15.11,0c-.88-2.26-2.37-.53-3.67-.47l2.55,1.77Z"/><path class="cls-3" d="M166.23,140.61a2.06,2.06,0,0,0-.37-.29c-6.39-3.46-6.54-3.87-3.79-10.62.54-1.33,1.12-2.65,1.75-3.94A5,5,0,0,1,170,123c7.5,2.27,14.95,4.73,22.42,7.14,2.28.74,4.53,1.59,6.82,2.32,3.37,1.09,4.69,3.36,3.34,6.66-1.17,2.88-2.84,5.54-4.25,8.33-2.12,4.21-4.27,8.42-6.29,12.69-1.78,3.77-2.95,4.49-7.1,4-8.19-1-16.38-1.87-24.55-2.89a31.58,31.58,0,0,1-5.6-1.29c-1.73-.55-2.63-1.73-2-3.71,1-3.36,1.93-6.77,3-10.12,1.56-4.77,2.71-5.44,7.77-4.91a26.41,26.41,0,0,0,2.67,0Zm-1.76,9.66h-1.21l.54-2.1-.54-.11-.74,1.08-.46-.22,1.14-3.14-3.42,2.85-.49-.55,2.3-2.43c-3.43.11-3.06,2.8-4.33,4.31,3.69,1.93-.45,4.14.51,6.17l9.12,1.55c2.61.45,5.11.73,7.1-1.7a11.36,11.36,0,0,1,2.62-1.86c4.09,4.84,4.09,4.84,6.66,5.49a2.39,2.39,0,0,0,.69.19c2.06-.15,3.91.14,5.06-2.67,2.27-5.53,5.24-10.77,7.95-16.13.84-1.67,1.75-3.32,2.68-5.06l-8-2.56-1,1.4v-1.92c-1.61.09-3.55-.33-4.75.42s-1.68,2.69-2.48,4.11l-1.9-.71.07.06-1.9-1.8c.66-.88,1.66-1.63,1.59-2.25a20.79,20.79,0,0,0-1.51-4.2l-1.83,2.34c.35-3.28-1.85-2.74-3.29-3.36-.72,3.55-1,3.68-4.05,2.08-1-.55-2.2-.92-3.22-1.34l-2.23,7.12,5.56,3.24c-1-1.87-.51-3.8,1.68-6.43l4.86,1.42c-2.13,1-4.95.62-5.81,3.71l2.16,1-.48.44a5.91,5.91,0,0,0,1.17,1.5c2.25,1.5,2.41,2.32.83,4.45-.23.31-.13.86-.18,1.34-1-1.18-4.66-2-6.07-1.34-.53.25-1.93.05-1.11,1.5.13.24-.51.9-1,1.67l-.88-3.81-2,3,.49,0v3.32Z"/><path class="cls-3" d="M306.54,179.16c1.79.27,3.57.6,5.37.81,2.69.31,3.79,1.25,3.86,3.92.09,3.35.05,6.72-.1,10.07-.11,2.61-1.23,3.83-3.86,4-4.64.23-9.29.17-13.94.32q-5.88.18-11.76.58c-4.35.3-6.07-.93-6.6-5.26q-1.36-11.1-2.53-22.2c-.35-3.26.66-4.78,3.93-5.6,5.43-1.36,10.91-2.51,16.36-3.74,3.59-.81,7.15-1.76,10.77-2.4,4.19-.74,5.28.08,6,4.29.45,2.68.61,5.41.94,8.11a4.07,4.07,0,0,1-2.88,4.67c-1.84.7-3.7,1.34-5.55,2Zm-8.3,3.44c-.93-.1-1.61,0-2.05-.27-.87-.54-1.51-1.53-2.42-1.93-1.74-.78-1.66-1.74-.5-3.12l-1.5.12c.48-1.17-1.12-6.68-2-6.61-1.55.13-3.2-2.47-4.66,0,1.94,3.35,5,6.06,5.14,10.3l2.65,2.22L291,185.48l-3.19-8.55-2,.58,1.62-2.16c-1.85-1.36-5.1.65-5.81-2.62.5,5.74,1,11.48,1.52,17.41,1.56-1.86,1.57.1,1.79.31-.19,1.64-.32,2.81-.48,4.16,2.67,0,5.25.65,7.2-.18s3.1-3.13,4.63-4.8c.72,1.46,1.56,3.16,2.68,5.4.33-3.85.59-6.82.85-9.82,2,.67,2,.75.91,2.79-2,3.61-.58,6.12,3.38,6.31a13,13,0,0,0,8.57-2.24c.12-1.86.39-3.76.33-5.64s-.16-3.66-3-3.82A99.08,99.08,0,0,1,299.4,181c-.52,1.07,2.57,2.19,0,3.57Zm-3.14-8.49-3.71-5.76a17.69,17.69,0,0,0,1.18,6.35,34.75,34.75,0,0,0,3.49,5.23l.63.29c-.23-3.48,4.4-2.15,4.63-5.39l.31,1.22c1.8-.64,3.61-1.25,5.39-1.92.51-.19,1.17-.45,1.38-.86.65-1.32,1.11-2.73,1.58-3.91l-1.17-.54.81-1.13c-1.38-1-1.41-1.37-.34-2.76a6,6,0,0,0,.59-1.37c-.49-.06-1-.11-1.49-.19-.26,0-.66-.26-.76-.16-.85.83-3.35-1.11-2.85,1.82l-2.08-.57c.14.54.23.85.14.52l-6.17.69Z"/><path class="cls-3" d="M277.42,99a60.36,60.36,0,0,0-14.48-12.55c-1.83-1.19-2.4-2.39-1.39-4.36.69-1.35,1.15-2.82,1.8-4.19,1.3-2.71,3-3.32,5.66-1.87a38.4,38.4,0,0,1,5.23,3.4,77.88,77.88,0,0,1,21.31,25.41c1.67,3.2,1.23,4.89-1.95,6.4s-6.15,2.71-9.2,4.12a2.68,2.68,0,0,1-3.74-1A67,67,0,0,0,259.91,94.6c-1.89-1.16-2.13-3.22-.75-5.21,1.19-1.73,2.74-1.42,4.19-.4C268.3,92.48,273.21,96,277.42,99Zm-2.83-11.65,2-.38c.07,1.48.12,2.68.18,4l1.73.16c-.18-2-.34-3.85-.5-5.65h-3.76c.12.75.22,1.35.31,1.93L272.12,84c.45,2.74-1.94,1.22-3.2,2.33.93.4,2.13,1.1,2.25.94,1-1.3,1.59-.22,2.34.25C273.75,87.67,274.22,87.43,274.59,87.37ZM265,83.67c1.92,1.59,4.14.73,5.6-1.43l-4.19-4.86c-.52,1.9-1,3.51-1.39,5l2.62,1.22-.11.38Zm25.05,23.85,2.71-.89a9,9,0,0,0-1.83-1.58,13.24,13.24,0,0,0-3-.64l1.81,1.37c-1.36.88-2.62,1.65-1.16,3.59Z"/><path class="cls-3" d="M287.6,363.31c2.4,0,4.22.05,6,0a2.49,2.49,0,0,1,2.88,1.93c.91,3.24,2,6.42,2.77,9.69s-.62,5-4,5.46c-4.59.64-9.2,1.12-13.77,1.82a54.08,54.08,0,0,0-5.8,1.46,9.29,9.29,0,0,1-11.63-6.6c-1.47-6-2.81-12-4.08-18-.95-4.56-.26-5.54,4.16-7.1,5.65-2,11.26-4.11,16.91-6.08a44.61,44.61,0,0,1,6-1.6c2.34-.46,3.82.5,4.56,2.8.85,2.67,1.61,5.36,2.44,8a3.67,3.67,0,0,1-1.52,4.4C291.06,360.63,289.55,361.81,287.6,363.31Zm-5.49-10.48-3.65-2.06c-2.14.78-4.86,1.88-7.66,2.72-1.59.48-2.64,1.15-2.63,2.94a4.22,4.22,0,0,1-.64.14l-.33-1.79-3.57,1.57c.44,2.29-.42,5.27,2.95,6.46l.26-2h.4c.21,1.12.43,2.23.7,3.63l-2.16-.59c.6,3.81,1,7.32,1.74,10.78a6.84,6.84,0,0,0,1.74,3.62c3.71,3.33,8.06,2,9.63-2.85-1.76.43-2.12-.74-1.48-1.8.93-1.54.16-2.48-.52-3.64-.52-.92-.87-1.95-1.42-3.2h1.77c.53-1.55.63-3.23,1.53-4.1,1.28-1.23,1-2.21.46-3.44l.66-.12.43,5,5.85-3.92-2-1.37c2.06-3.06,2.06-3.06,4-.94v-3.73c-1.2.24-2,.38-2.81.56s-1.62.37-2.59.6c-.24-.86-.47-1.68-.69-2.49l.74-1.57,2.43,1.61c-3-3.48-3-3.48-4.59-2Zm8.73,15.62c.52.57.87.92,1.18,1.3s.6.82,1.22,1.66c-1.38-4.68-4-5.86-8.07-3.68l3.71,2.37-2.8,4.45,3.08,2.13.68-1.87.46.12v2.25l5.69-1.39-1.81-1.31c.37-.6.93-1.23.82-1.4a2.24,2.24,0,0,0-1.36-.9,14,14,0,0,0-2.4,0ZM285,371.68a18.46,18.46,0,0,0,.42-2.27,2.12,2.12,0,0,0-2.46-2.07c-1.38.4-2.77.76-4.13,1.13Zm2.28-21.49c-.44-.72-.91-1.47-1.23-2l-2.55,1C284.39,350.84,285.59,351.59,287.31,350.19Z"/><path class="cls-3" d="M190.62,424.71c-8.36-.71-8.36-.71-9.78-9-.06-.32-.15-.63-.2-1-1-6.53-.18-7.88,6.24-9.22,5-1,10.06-2,15.13-2.68,2.93-.41,3.71.67,3.4,3.64a38.6,38.6,0,0,0,4,21.62c2.09,4.16,1.9,5.1-2.09,7.46q-7.76,4.59-15.53,9.14c-2.27,1.33-3.7,1.14-4.55-1.36A92.46,92.46,0,0,1,183.87,430c-.18-.95,1.37-2.49,2.46-3.31A21.43,21.43,0,0,1,190.62,424.71Zm-1.29-9.24c.12,2.44,2.7,5.33,4.38,4.72-.7-.8-1.35-1.57-2-2.31s-1.55-1.61-2.33-2.41L184.7,412c.21,1.22.41,1.94.45,2.67A19.29,19.29,0,0,1,185,417l.69.14,1.07-2.31Zm5.34-7.69,4.2,5.43-2.15,3.1a7.65,7.65,0,0,0-1-.71,9.85,9.85,0,0,0-1.29-.49c-.39,2.58-.4,2.59,1.57,4.52a13.36,13.36,0,0,0,1.94,1.76c1.55,1,1.61,1.85.17,3.13-.79.7-1.08,1.94-1.6,2.94l.66.3,1-2c.3,2.05.21,3-1.7,2.49-.55-.15-1.24.22-1.86.35l.18,1.09h10.27L203.56,432l.49.48,2.79-1.4c-1.5-3-2.94-5.85-4.32-8.74-.21-.44,0-1.06-.11-1.58-.32-1.59-.69-3.17-1-4.76l-.59.39-.11-.18a21.24,21.24,0,0,0,.45-5.6c0-.08-.29-.16-.46-.23Zm5.43,25.29-4.09.46-.45-.79-1.16,1C192,430.83,192,430.83,190,433l-1.07-1.39-.62.44c.43.55.88,1.09,1.28,1.66a13.86,13.86,0,0,1,1,1.53c-2.41,1.74.67,2.16.79,3L190,440.56a20.92,20.92,0,0,0,3.66-1.75c1.76-1,3.53-1.9,5.33-2.78,2-1,2.79-2.46,1.6-4.81Zm-8.37-20.38-3.21-3.12a5.82,5.82,0,0,0,.48,2.59c.34.78.78,1.52,1.21,2.33ZM193,408c.33,2.86,2.53,3.73,3.87,5.46Z"/><path class="cls-3" d="M288.72,272.29c1.67.64,3.32,1.34,5,1.92,3.27,1.12,3.75,1.88,2.81,5.08-1.23,4.22-2.49,8.44-3.83,12.64-1.09,3.43-3,4.59-6.37,3.74-7.6-1.89-15.2-3.81-22.75-5.92-4.71-1.32-5.9-3.22-4.49-7.79,2.87-9.25,6-18.41,9.16-27.58.93-2.71,3.07-3.95,5.94-4q13.21-.39,26.42-.83c4-.13,5.55,1.88,4.32,5.53-1.09,3.27-2.5,6.45-3.32,9.78-1.08,4.36-4,5.78-8,6.09-1.62.12-3.23.46-4.84.7Zm7.55-17.65c-1.59-2.48-4-1.36-6.13-1.57-1.66-.16-2.54.59-3.35,2a14.23,14.23,0,0,1-3,3.25,1.58,1.58,0,0,1-1.47-.36,37.47,37.47,0,0,1-1.21-4c-1.27-.18-2.13-.36-3-.4a25.1,25.1,0,0,1-2.59.09,3.75,3.75,0,0,0-4.39,2.79c-.39,1.28-.87,2.54-1.13,3.85a16.14,16.14,0,0,0,0,2.89c-.18.16-1.06.57-1.19,1.15-.48,2.31-.62,4.62-2.17,6.68-1,1.25-1.17,3.06-1.67,4.51l2.66.9-2.72,1.26-.52-.51-3,8c3.83-.11,6.74,3.07,10.21.85a6.39,6.39,0,0,0,0,1.32c2.63.48,5,3,8.17.87l-.73-.78c.42-1.16.75-2.17,1.15-3.15a5.19,5.19,0,0,1,.77-1.28c0-.06.75.21.76.35a4,4,0,0,1-.23,1.49c-.24.67-.85,1.3-.83,1.93a21.94,21.94,0,0,0,.72,3.64,23.6,23.6,0,0,1,4.81,1.25c2.14,1,3.05-.05,3.58-1.7,1.16-3.65,2.2-7.35,3.17-11.06a2.32,2.32,0,0,0-.58-2.05,21,21,0,0,0-3.64-1.42l-8.7-3.3c-.09-3.53,3.45-2.64,5.3-4.6l-3-.31c.38-1.36,4.75-2.63,6.65-1.6l-2.76,1.78a13.66,13.66,0,0,0,8.88-.9,10.32,10.32,0,0,0,3.18-2.56c.48-.54.45-1.53.65-2.32l1.29-5.18-.27.08,2.14-3.35h-6.26Z"/><path class="cls-3" d="M299.32,136.57a40.12,40.12,0,0,1,6.11.09c1.08.16,2.65,1,2.92,1.9a84.11,84.11,0,0,1,2.72,11.62c.32,2-1.54,2.83-3.27,3.19-3.13.66-6.29,1.19-9.44,1.8-6.43,1.24-12.87,2.47-19.3,3.76-2.46.49-4.29-.22-5.3-2.56-2.94-6.82-5.88-13.65-8.73-20.52A3.45,3.45,0,0,1,266.9,131c4.67-2.26,9.38-4.47,14.05-6.74,4.46-2.16,8.9-4.37,13.36-6.53a13.83,13.83,0,0,1,3.11-1.24c2.07-.44,3.74,0,4.6,2.31,1,2.7,2.22,5.32,3.35,8,1.63,3.79,1.08,5.43-2.58,7.42-1.18.64-2.4,1.23-3.59,1.84Zm-6.84-3-1-2c3.2-1.12,1.41,1.63,2.23,2.63l9.19-5c-1.25-3-2.21-5.5-3.3-7.91-.26-.58-1.12-1.44-1.44-1.34a5.48,5.48,0,0,0-2.36,1.58,5.63,5.63,0,0,0-.66,2.11l-.3-.07.16-2.9c-2.66,1.66-4.72,3.52-7.13,4.28-2.57.8-2.88,2.44-3.28,4.49a6.1,6.1,0,0,1-1.42,2.66c-.13.15-1.39-.62-2.08-1-.47-.28-.84-.72-1.29-1.05-1.21-.89-6.74.61-7.3,2-.11.28.09.69.17,1.15L270.79,132l.33,1.81-.38.24-.56-1.21c-.33,1.24-1,2.28-.73,3,.68,1.91,1.8,3.65,2.65,5.51,1.27,2.75,2.54,5.5,3.66,8.32a48.73,48.73,0,0,1,1.41,4.93l9.39-1.79c-1.17-1.38,1.35-3.66-1.82-3.89l3.33-1.92c1.88,1.49,3.64,4,5.55,4.15,3.25.21,6.6-1.12,9.91-1.76,1.34-.26,2.7-.38,4.22-.6q-.93-4.71-1.81-9.1l-3.12,1.12,1.69-1.47c-5.38-.86-11.07,2-15.88-1.86l3.52-2.47-1.07-1.15Z"/><path class="cls-3" d="M304.64,225.13c1.65.56,3.32,1.08,4.95,1.69a3.42,3.42,0,0,1,2.38,4.54c-.61,2.41-1,4.87-1.64,7.26-.95,3.34-2,4-5.53,4.14-3.28.1-6.56.19-9.84.21-5.21,0-10.41,0-15.62,0-4.06,0-5.83-1.93-5.13-5.87q2.43-13.49,5.06-26.92a4.43,4.43,0,0,1,4.34-3.83q10.42-.76,20.86-1.41c2.31-.15,4.65-.17,7-.09,3.12.1,3.95.89,3.79,3.92-.19,3.59-.61,7.17-1,10.75a4.4,4.4,0,0,1-4.38,4.27c-1.73.16-3.44.48-5.15.73Zm4.47-9.7c2.8-.82,2.76-3.36,3.27-5.47.11-.48-.91-1.75-1.45-1.78-3.43-.17-6.87-.12-10.3-.07a1.78,1.78,0,0,0-1.16.71c-.92,1.23-1.75,2.53-2.61,3.8l-.18.32c-.07-.2-.19-.58-.2-.58-1.77.49-2-1.13-2.78-2a3.62,3.62,0,0,0-2.07-1.24c-1.95-.08-3.91.14-5.87.25-3.36.18-3.27.22-3.48,3.59a67.88,67.88,0,0,1-1.07,9.56c-1.1,5.29-2.54,10.5-3.83,15.7l1.14.44c4.09,1.35,7.06.38,9.43-3a27,27,0,0,1,2.38-2.54,33.58,33.58,0,0,0,1.49,4.16c.36.69,1.15,1.6,1.78,1.62,4.31.15,8.64.08,13.08.08.64-3.21,1.27-6.35,1.86-9.29l-11.68-4.26c-1.38-.5-1.8-1.48-.82-2.56a5.13,5.13,0,0,1,2.65-1.55c3.14-.58,6.33-.9,9.5-1.37,2.74-.41,3.31-1.16,3.05-4.2L310,218Z"/><path class="cls-3" d="M285.55,433.73A21,21,0,0,0,288,431.1a5.55,5.55,0,0,1,6.29-2.75c2.75.49,5.56.63,8.32,1.06,2,.3,3.35,1.57,3,3.64-1.05,5.72-2.08,11.47-3.61,17.08a64.5,64.5,0,0,1-4.32,10.66c-1.73,3.65-3.54,4.26-7.08,2.44-3.25-1.66-6.36-3.62-9.54-5.46l.84-2.73c-.23-.08-.47-.27-.61-.21-3.81,1.64-6.79-.09-9.68-2.31-1.9-1.47-3.93-2.78-5.76-4.33-2.39-2-2.5-3.81-.2-5.77a48,48,0,0,0,10.63-12.93c1.24-2.16,6.68-2.89,8.48-1.21a3.07,3.07,0,0,1,.63,1.73C285.48,431,285.47,432,285.55,433.73ZM300.63,441l0-.91-3.36-.25,2.47-1.36a9.84,9.84,0,0,0-2.93-5.83c-1.17,1.65.24,2.4,1.42,3.27l-.82,1.66a22,22,0,0,0-1.78-2.75,24.36,24.36,0,0,0-2.61-2.24c-.55,2.71-1.52.55-1.89.38-1.34,1.43-2.52,2.66-3.65,3.92s-2.32,2.62-3.28,3.72a15.18,15.18,0,0,1-2.84-1.85,2.9,2.9,0,0,1-.57-2,29.5,29.5,0,0,1,.77-3.69L281,433l1-.8-2.41-1.61c1,2.06-3.66,2.65-.79,4.43-3.68,0-3.05,3.72-4.89,4.81l1.94,1.24L268,444.76l-.07.77,5.11,2.79,2.56-2.22.4.57-1.9,2.37,2.33,1.95-.08-.63,3.58-.47v-4.37l.35-.14c.51,1.66,1,3.31,1.52,5l.62-.07.11-2.35,2.12,1.92.17-.72,3.16.51-3.39,6.58c3.78.32,5.42,4.63,9.42,4l-.52-1.85c2.59-.45,6.64-11.75,5.19-14.17l1.2-.27-1.5-2.22Z"/><path class="cls-3" d="M297.1,404.52c1.57.21,3.16.36,4.72.65,2.26.42,3.78,1.48,3.8,4.13,0,3.35.57,6.72.4,10.05s-1.54,4.2-4.76,3.78c-6.19-.81-12.36-1.67-18.54-2.53-2.26-.31-3-1.35-2.61-4a43.67,43.67,0,0,0-1.86-20.39c-.23-.69-.43-1.39-.7-2.05-1.33-3.32-1.23-3.72,2.39-4.45,6-1.21,12-2.17,17.94-3.27,2.47-.46,3.84.71,4.43,2.95s1.2,4.66,1.6,7c.52,3-.15,4.08-3,5.49l-4,2Zm.48,10.72L300,413l.28.13-.87,1.87,2.75.42c0-1.78-.39-3.4.09-4.68.76-2-.73-2.22-1.74-2.45-.44-.1-1.17,1.05-1.56,1.43-2.63-2.94-7.17-1.47-10.68-3.52.83-1.21,2.15-2.26,2.05-3.16-.33-2.85,1.24-4.54,3-6.21.26-.24.92-.06,1.39-.07l-.73,1.12,2,2.8c.5-.35,1.59-.85,1.54-1.16-.2-1.2-.6-3.24-1.22-3.35-2.78-.52-2.16-2.23-1.88-4l2.53,2.41c-.45-1.95-.73-3.16-1-4.32l-2.57.53,1.19,1.48c-2-2-4.49.48-6.64-.77l-3.62,5.78-.6-.19,1.44-3.75-.31-.19L283.34,395l-1.4-2c.82,3,1.54,5.65,2.28,8.39l2.18-1.45.5.6-2.51,2.19v13l2.43-2.2a4.29,4.29,0,0,0,4.79,3.83l-.92-3.08c.67.34.91.38.93.48.42,1.77,1.49,3.37,3.24,3.25,1-.07,1.86-1.79,2.79-2.77Zm-2.35-14.13-2-2.57-2,4Z"/><path class="cls-3" d="M228.49,180.45c-3.83,5.84-7.21,11.08-10.68,16.27-1.78,2.66-3.76,5.19-5.57,7.83-1.17,1.71-2.39,2-4.16.78s-3.56-2.13-5.73-3.4L187,219.15c-.66-4.09-.22-7.35,2.8-10.28a120.73,120.73,0,0,0,9.71-11c1.41-1.75,2.49-1.7,4.1-.49,1.85,1.38,3.81,2.61,5.88,4l17.92-25,19.24,18c3-2.36,5.91-4.61,8.75-6.95,1.47-1.21,2.51-1.4,4,.16,4.59,4.81,9.32,9.5,14.11,14.12,2,1.9,1.74,4.09,1.56,7.07-6.82-5.49-12.25-11.74-18.32-17.64-2.64,2.15-5.27,4.12-7.69,6.31-1.52,1.36-2.74,1.33-4.11,0-4.6-4.56-9.21-9.1-13.78-13.69C230.3,182.86,229.58,181.79,228.49,180.45Z"/><path class="cls-3" d="M238.2,67.93c5.25.85,11.17,1.72,17.05,2.8,2.68.49,3.09,1.41,2.51,4.14-.39,1.8-.8,3.6-1.21,5.39-.57,2.52-1.52,3-4.13,2.82-5.82-.39-11.68-1.16-17.45-.73-5.27.39-10.45,2.12-15.65,3.35-3.5.83-5-.15-5.61-3.68a30,30,0,0,0-1.05-4.91c-.75-2.23,0-3.72,2.05-4.38A79,79,0,0,1,224.4,70C228.7,69.19,233.08,68.7,238.2,67.93Zm-3.08,5.36c-2.42,1.72-2.77-1.67-4.65-2.05l1.34,3-.53-.15-2.18,5a6,6,0,0,0,2.35-2.78c.77-1.9,1.66-3,4-1-.21-1.07-.31-1.58-.4-2.08l3.94,2-3.3-3.18.4-.41L233,71l-.23.79a17.38,17.38,0,0,1,1.86.71C234.86,72.63,235,73,235.12,73.29Zm19.49,2.36a8.89,8.89,0,0,0-9.94-1.74l-.24-2.82-.59.13-.37,1.5c-1-.43-1.91-1.21-2.68-1.08s-2.6.46-1.85,2.19,2.19,2,4.31,1l2.38,2.57.8-1.92.4.11.14,1.81,3.73-2.85.37.46-3.53,3.37c1.05.17,1.9.37,2.77.43,1.08.08,2.17,0,3.26.05-.42-1-.85-2-1.25-3,0-.12,0-.29,0-.14Zm-28.42-.37c-3.47-2-4.21-1.74-4.6.84-2.07.8-4.13.71-5.87,1.83-.28.18-.12,1-.19,1.91l5.14-2.42.17,2.38Zm-.67-2.92-.52.15c.13.41.24,1.17.4,1.18a9.82,9.82,0,0,0,3.55,0c.4-.12.44-1.49.64-2.29l-.64-.26-2.73,2.31Z"/><path class="cls-3" d="M266.36,155.16c-.14-.19-.27-.39-.41-.59L255.33,144l-5.2,5.77-18.61-19.43c-3.69,5.49-7.21,10.72-10.72,16-.14.2-.25.41-.37.62-3.36,5.58-3.84,5.7-9.26,2.35l-15.78,19.1-.87-.67c2.92-9.4,10.27-16,15.74-24.14l5.35,3.91c5.07-7.61,10.18-15.26,15.46-23.17l18.7,19.75,6.43-4.68c4.11,5.27,10.85,8.6,12.52,16.54Z"/><path class="cls-3" d="M227.09,225l16.76,18.35c1.3-.94,2.6-1.73,3.72-2.72s2.06-.91,3.06.16c4,4.22,8,8.33,11.79,12.69.81.95.56,2.82.31,4.49-5.22-3.1-8.54-7.95-13.07-11.87L245.09,250l-17.77-19L213,253.8l-5.65-4c-4.33,5.4-8.57,10.69-12.82,16l-.88-.24A6.76,6.76,0,0,1,194,263q5.31-8.29,10.86-16.45a2,2,0,0,1,1.92-.3c5.26,2.62,5.17,2.6,8.3-2.43C218.93,237.6,222.93,231.51,227.09,225Z"/><path class="cls-3" d="M247,477.87a66,66,0,0,1-20.2-3.74c-1.53-.52-3.18-1.18-2.47-3.38a4.54,4.54,0,0,1,4.91-2.86c3.63,1,7.21,2.29,10.9,2.81,11.88,1.67,22.3-1.83,31.33-9.63,1.11-1,2.19-2.13,3.76-1.19,1.19.71,2.75,1.56,3.08,2.67.24.81-1.06,2.34-2,3.2a47.92,47.92,0,0,1-19.74,10.55A73,73,0,0,1,247,477.87Z"/><path class="cls-3" d="M245.29,470.87c-4.42-1-8.86-1.94-13.26-3-1.66-.42-3.3-1.23-2.66-3.5a4,4,0,0,1,5-3c1.84.53,3.63,1.3,5.5,1.66,8.49,1.65,16.18-.5,23.33-5.08,1.08-.69,2.1-1.47,3.21-2.1,1.66-.94,3.59-.24,5,1.56s0,2.66-1.06,3.57C263.15,467.14,254.87,470.26,245.29,470.87Z"/><path class="cls-3" d="M240.74,83c2.95.43,7.16,1,11.33,1.66a2.6,2.6,0,0,1,2.34,3.47c-.62,2.87-1.52,3.93-3.57,3.49-10.17-2.2-20.06-.7-29.89,2-3.09.83-4.78-.45-4.45-3.48a3.44,3.44,0,0,1,1.74-2.38A64.06,64.06,0,0,1,240.74,83Zm6.19,4.13c-1.21-2.24-1.21-2.32-3.47-2.25-2.47.06-4.94.29-7.57.45l.08,1.8Z"/><path class="cls-3" d="M216.19,370.13c-.24-5.83.71-6.88,5-7.35,2.94-.31,5.85-.78,8.76-1.24,3.12-.5,4.24.38,4,3.56-.44,4.94-1.07,9.87-1.59,14.8a2.77,2.77,0,0,1-2.72,2.76c-3.09.39-6.17.88-9.25,1.31a2.2,2.2,0,0,1-2.69-2.09C217.09,377.53,216.57,373.16,216.19,370.13Zm4.68,9,8.08-.56c-.13-2.82,1.52-5.9,0-8.73l1.31-2.58-4.82,1,1.42-2.33h-6.69c-.36,5.9-.36,5.9,3.22,6.32l-2.48,1.54Z"/><path class="cls-3" d="M244.42,450.37c2.87-.69,6.38-1.42,9.8-2.41,1.92-.56,3.58-.68,5.18.67,1.35,1.14,2.82,2.13,4.11,3.33,1.56,1.45,1.63,3,0,4.56a7.71,7.71,0,0,1-1.26,1.1c-7.93,4.69-16.27,6.71-25.32,3.77-3.14-1-3.67-2.71-1.86-5.47a22.35,22.35,0,0,0,1.51-2.18C238.07,450.77,240.14,449,244.42,450.37Zm-4,2.95-3,4.32c1.76,0,3.8-.47,4.13.08,1.07,1.81,1.84,1.25,2.87.6,2.19,1.09,4.68.33,6.66-.24,3.24-.93,7-1.57,9.12-4.88-3.66-2.79-3.66-2.79-6.48-1.35A18.47,18.47,0,0,1,240.45,453.32Z"/><path class="cls-3" d="M249.43,99.84c-6.27-2.06-12.07-1.37-17.84-.5-2.76.41-5.47,1.13-8.18,1.81-3,.76-5.14-1-4.72-4.05a2.8,2.8,0,0,1,1.54-1.83A50.49,50.49,0,0,1,248,92.48c3.93.71,5,2.3,3.45,5.48C251,98.78,250,99.3,249.43,99.84Zm-24-4.72.17.91,5.61-.62-.12-1Zm15.16-1.37,5.88,1.86C244.49,93.07,242.86,92.69,240.62,93.75Z"/><path class="cls-3" d="M190.81,117.22a1.89,1.89,0,0,0,.2-.27c4.86-4.62,9.65-9.33,14.63-13.81,1.7-1.52,3.91-2.48,5.87-3.71,1.09-.68,2.27-1.26,3.05.24s1.88,3,.3,4.59a5.21,5.21,0,0,1-1.16.86c-7,4-12.49,9.66-17.55,15.84-.81,1-2.3,2.09-3.41,2C188.8,122.78,188.6,122,190.81,117.22Z"/><path class="cls-3" d="M280.14,115.65a3.11,3.11,0,0,1-4.53,2.69,5.92,5.92,0,0,1-2-1.68,55.35,55.35,0,0,0-16.16-14.16c-1.49-.87-2.56-2-2-3.85.89-2.81,1.47-3.17,4.18-2,5.75,2.53,10.25,6.78,14.63,11.12a54.85,54.85,0,0,1,4.84,6A9.61,9.61,0,0,1,280.14,115.65Z"/><path class="cls-3" d="M236.3,99.78c4.68.46,7.87.72,11,1.11,1.91.25,2.74,1.42,2.4,3.4-.42,2.37-1.77,3.82-3.68,3.54A53.48,53.48,0,0,0,225.56,109c-2.09.5-3-.61-3.6-2.23-.62-1.81-.61-3.67,1.7-4.23C228.3,101.42,233,100.49,236.3,99.78Zm6.26,2.13c-.38,2.27,1.21,2.29,2.58,2.34.52,0,1.05-.47,1.57-.73l-.31-.59Z"/><path class="cls-3" d="M201.54,126a15.13,15.13,0,0,1-3.27-1c-1.44-.87-2.13-2-.83-3.72a57,57,0,0,1,16.45-14.57c1.38-.82,2.74-1,3.72.65,1.32,2.15,1.13,4-.23,5.12-4.55,3.89-9,7.87-13.54,11.79C203.09,124.9,202.24,125.45,201.54,126Z"/><path class="cls-3" d="M247.24,376.29c.76-4.71,1.62-9.91,2.43-15.12.3-2,1.65-3.22,3.34-3.05,1,.11,2.31,1.69,2.6,2.83,1.27,4.95,2.22,10,3.26,15a2.15,2.15,0,0,1-2,2.89c-2.52.43-5,1.06-7.55,1.27S247.7,378.14,247.24,376.29ZM253,364.5h-.83c-.27,3.48-.53,7-.81,10.55l4.44-.22-3.13-3.15c-.17-.76,3.32-1.89.33-2.78Z"/><path class="cls-3" d="M238.28,107.85c2.89.61,5.32,1.05,7.7,1.66a2.17,2.17,0,0,1,1.64,3.15c-.36,1.06-.75,2.1-1.19,3.12-.72,1.67-1.86,2-3.79,2a134.13,134.13,0,0,0-13.87.76c-2.6.23-3.45-.28-4.34-3.52-.78-2.86-.41-4.16,2-4.76C230.42,109.27,234.52,108.6,238.28,107.85Zm1.18,4.72.42.94a10.91,10.91,0,0,0,3.41.07c.71-.22,1.24-1.28,1.66-2.07.08-.16-.69-1.13-1.08-1.14-3.75-.09-7.5-.05-11.25-.05l-.26,2.8h4.19l-.49-1.9.47-.29,1.67,2.28,2.47-1.84.36.43Z"/><path class="cls-3" d="M252.64,108.8c.12-4.67,2.34-6,5.47-3.71,4.66,3.47,9.08,7.26,13.45,11.09,1.21,1.06,2.82,2.64,1,4.47-2.07,2.09-3.94,1.93-6.08.13-3.89-3.28-7.91-6.41-11.82-9.68A16,16,0,0,1,252.64,108.8Z"/><path class="cls-3" d="M260.36,126.57a13.49,13.49,0,0,1-2.54-1.06c-2.1-1.46-4-3.36-6.21-4.48-2.91-1.46-2.57-3.4-1.74-5.78,1.26-3.58,3-4.44,6-2.33a83.87,83.87,0,0,1,9.06,7.46c2,1.79,1.68,3.18-.68,4.52A34.49,34.49,0,0,1,260.36,126.57Zm2.7-5.76-3.9-3.44-.39.36,1.84,2.31-2.87.52C259.59,122,261.15,123,263.06,120.81Z"/><path class="cls-3" d="M222.3,119.74a13.75,13.75,0,0,1-1.86,2.4c-2.17,1.88-4.44,3.65-6.71,5.42-2,1.58-7.5,1-9-1.07a1.9,1.9,0,0,1,.16-1.83c3.76-3.56,7.47-7.22,11.49-10.46,2.16-1.74,4-.81,5,1.91C221.7,117.16,221.91,118.27,222.3,119.74Zm-4.93-2.62c-1.34-.29-5.21,1.53-5.62,2.63a1,1,0,0,0-.06.68c.83,2.22-1.19,1.94-2.21,2.51a10,10,0,0,1-1.53.56c.18.41.32,1.13.56,1.16a2.71,2.71,0,0,0,1.82-.29c1.49-1.16,2.69-3.2,4.31-3.56C217.06,120.27,217.1,118.82,217.37,117.12Z"/><path class="cls-3" d="M193,372.32c.08-.22.1-.58.23-.63a18.56,18.56,0,0,1,4.17-1.1l-3.21,3.34C193.81,373.39,193.42,372.85,193,372.32Z"/><path class="cls-3" d="M244.46,277.65l1-2-1.55-1.63,2.45-1.56c.52,1.7,1,3.44,1.71,5.66l-3-.28Z"/><path class="cls-3" d="M268.43,216.45c-.51.14-1.12.53-1.63.42-2.68-.57-2.67-.62-4.63.4l-1.41-2.2.25-.22.69.61c1.15-1.61,2.29-3.19,3.43-4.77l.63.07.62,3.1-1.77-.94-.86,1.82Z"/><path class="cls-3" d="M226.82,202.51l-2.61.69,1.24-2.68-1.4-2.94.43-.42c.87.75,2.1,1.35,2.5,2.3S226.89,201.67,226.82,202.51Z"/><path class="cls-3" d="M212.15,217.17l1.78-.37a6.41,6.41,0,0,0,.06,2.31,8.59,8.59,0,0,0,1.75,1.94C213.45,220.67,212.46,219.32,212.15,217.17Z"/><path class="cls-3" d="M209.54,217.78l3.28,4.28-2.86-1-.75-3.22Z"/><path class="cls-3" d="M178,238.8l-1.33-.57-.52,3.26c-.4-.39-1.45-1.08-1.35-1.35a13.72,13.72,0,0,1,1.72-2.75l1.44,1.46S178,238.8,178,238.8Z"/><path class="cls-3" d="M183.3,297.9a4.94,4.94,0,0,0,1-4.9l3.67,5.49Z"/><path class="cls-3" d="M169.89,281.61l-2.9-.8V277.4Z"/><path class="cls-3" d="M169.64,297.22c.68.84,1.8,1.61,1.93,2.53s-.9,1.74-1.41,2.62l-.85-.09-.55-4.56Z"/><path class="cls-3" d="M205,271.88c.36.86,1.25,2.11,1,2.51-.6.81-1.82,1.16-2.78,1.7a9.45,9.45,0,0,1-.57-1.59,17.33,17.33,0,0,1-.12-2.12c1.09.93,2.1,1.24,2.55-.56Z"/><path class="cls-3" d="M232.49,253.3c2.37-1.59,4.15-1.28,6,1.29-1.21-.77-2.33-2.06-3.84-.45C234.48,254.36,233.24,253.61,232.49,253.3Z"/><path class="cls-3" d="M242.75,266.73c1,.49,2.08.69,2.39,1.32s.1,1.84.1,2.79l-1.1.09C243.66,269.47,243.18,268,242.75,266.73Z"/><path class="cls-3" d="M205,271.82c-.47-.31-1.38-.71-1.33-.91a33.25,33.25,0,0,1,1.23-3.7l1.49,2.34H205v2.33Z"/><path class="cls-3" d="M155.12,202.23l-1.75-2,3.38-6,1.52.82-1.53,1.12,1.07,2C155.44,198.66,156.22,201.07,155.12,202.23Z"/><path class="cls-3" d="M164.41,150.35l1.71-1.47-3.37,7.52-1.09-.37a16.7,16.7,0,0,1,.87-2.84,25.58,25.58,0,0,1,1.95-2.92S164.41,150.35,164.41,150.35Z"/><path class="cls-3" d="M181.52,136.68l.15,1a21.53,21.53,0,0,1-2.68-.21,2.63,2.63,0,0,1-1.32-.8,1.23,1.23,0,0,1,.22-1,3.32,3.32,0,0,1,1.53.14c.74.25,1.44.63,2.17,1Z"/><path class="cls-3" d="M275.25,372c-1.73-1.4-4.57-1.76-4.9-4.82C273.55,367.38,273.19,370.93,275.25,372Z"/><path class="cls-3" d="M272.33,285.17l-6.05-4.93a7.17,7.17,0,0,1,1.6-.52c.29,0,.64.41.86.33,4.05-1.29,3.5,1.45,3.42,3.82,0,.21.22.42.28.65S272.4,284.81,272.33,285.17Z"/><path class="cls-3" d="M274.19,280.69c0-.37-.22-1-.09-1.06,1.33-.75,2.72-1.41,3.95-2l2.94,3.78-.11.3c-.59-.38-1.52-.63-1.72-1.16-.88-2.33-2.07-1.75-3.47-.62,1.19,2.14,1.19,2.14-.25,2.21C275,281.63,274.61,281.16,274.19,280.69Z"/><path class="cls-3" d="M270.15,265.23c1.75.36,1.16,3.25,3.77,2v4Z"/><path class="cls-3" d="M274.19,280.69c.42.47.84.94,1.25,1.42l1.7,2.93-.46.31-4.27-5.12Z"/><path class="cls-3" d="M286.18,441.63c-1.16,1.57-3.23,2.9-.41,5.46h-2.92C283.55,444.75,283.79,442.54,286.18,441.63Z"/><path class="cls-3" d="M297.65,415.17c-.36-.24-.85-.4-1-.74s.08-1.09-.16-1.27c-2.18-1.65-.16-2.58.76-3.73v2.8l2-.7-1.63,3.71Z"/></g></g></svg>